<?xml version="1.0" encoding="UTF-8"?>
<!DOCTYPE svg PUBLIC "-//W3C//DTD SVG 1.1//EN" "http://www.w3.org/Graphics/SVG/1.1/DTD/svg11.dtd">
<svg xmlns="http://www.w3.org/2000/svg" version="1.1" width="400px" height="400px" style="shape-rendering:geometricPrecision; text-rendering:geometricPrecision; image-rendering:optimizeQuality; fill-rule:evenodd; clip-rule:evenodd" xmlns:xlink="http://www.w3.org/1999/xlink">
<g><path style="opacity:1" fill="#1d9143" d="M 127.5,170.5 C 135.322,170.788 137.155,174.121 133,180.5C 128.535,184.433 123.368,185.933 117.5,185C 114.918,182.108 115.084,179.275 118,176.5C 121.147,174.35 124.313,172.35 127.5,170.5 Z"/></g>
<g><path style="opacity:1" fill="#1f9346" d="M 281.5,190.5 C 280.518,193.962 280.185,197.629 280.5,201.5C 283.167,201.5 285.833,201.5 288.5,201.5C 289.794,202.29 290.961,203.29 292,204.5C 292.667,210.167 292.667,215.833 292,221.5C 291.215,223.286 290.049,224.786 288.5,226C 284.27,227.29 279.936,227.79 275.5,227.5C 275.333,215.162 275.5,202.829 276,190.5C 276.833,188.333 278.333,186.833 280.5,186C 284.152,185.501 287.818,185.335 291.5,185.5C 291.5,187.167 291.5,188.833 291.5,190.5C 288.167,190.5 284.833,190.5 281.5,190.5 Z"/></g>
<g><path style="opacity:1" fill="#219245" d="M 300.5,185.5 C 305.509,184.771 309.342,186.437 312,190.5C 312.5,202.829 312.667,215.162 312.5,227.5C 310.533,227.739 308.699,227.406 307,226.5C 306.5,219.842 306.334,213.175 306.5,206.5C 304.833,206.5 303.167,206.5 301.5,206.5C 301.5,213.5 301.5,220.5 301.5,227.5C 299.533,227.739 297.699,227.406 296,226.5C 295.333,214.833 295.333,203.167 296,191.5C 297.332,189.34 298.832,187.34 300.5,185.5 Z"/></g>
<g><path style="opacity:1" fill="#088d3c" d="M 317.5,185.5 C 319.167,185.5 320.833,185.5 322.5,185.5C 322.5,190.5 322.5,195.5 322.5,200.5C 324.265,201.461 326.265,201.795 328.5,201.5C 328.5,196.167 328.5,190.833 328.5,185.5C 330.167,185.5 331.833,185.5 333.5,185.5C 333.5,199.167 333.5,212.833 333.5,226.5C 331.833,226.5 330.167,226.5 328.5,226.5C 328.824,219.646 328.491,212.979 327.5,206.5C 325.833,206.5 324.167,206.5 322.5,206.5C 322.5,213.167 322.5,219.833 322.5,226.5C 320.833,226.5 319.167,226.5 317.5,226.5C 317.5,212.833 317.5,199.167 317.5,185.5 Z"/></g>
<g><path style="opacity:1" fill="#0e8d3c" d="M 354.5,208.5 C 354.5,214.5 354.5,220.5 354.5,226.5C 352.833,226.5 351.167,226.5 349.5,226.5C 349.666,220.491 349.499,214.491 349,208.5C 347.89,206.963 346.39,206.297 344.5,206.5C 343.509,212.979 343.176,219.646 343.5,226.5C 341.833,226.5 340.167,226.5 338.5,226.5C 338.5,212.833 338.5,199.167 338.5,185.5C 340.167,185.5 341.833,185.5 343.5,185.5C 343.5,190.833 343.5,196.167 343.5,201.5C 345.981,201.677 347.814,200.677 349,198.5C 349.499,194.179 349.666,189.846 349.5,185.5C 351.5,185.5 353.5,185.5 355.5,185.5C 356.77,192.869 354.77,199.035 349.5,204C 351.687,205.025 353.354,206.525 354.5,208.5 Z"/></g>
<g><path style="opacity:1" fill="#0d8d3c" d="M 102.5,225.5 C 97.3595,226.488 92.0262,226.821 86.5,226.5C 85.0299,224.849 83.6966,223.015 82.5,221C 75.4763,220.169 68.4763,220.336 61.5,221.5C 56.0693,230.518 50.4026,230.684 44.5,222C 45.9534,218.928 47.7868,216.095 50,213.5C 58.6846,204.316 67.1846,194.983 75.5,185.5C 84.5257,198.851 93.5257,212.184 102.5,225.5 Z"/></g>
<g><path style="opacity:1" fill="#0c8d3b" d="M 141.5,186.5 C 142.496,199.656 142.829,212.99 142.5,226.5C 137.833,226.5 133.167,226.5 128.5,226.5C 128.649,225.448 128.483,224.448 128,223.5C 125.173,225.961 121.84,226.961 118,226.5C 107.247,227.127 99.9133,222.461 96,212.5C 95.3333,205.167 95.3333,197.833 96,190.5C 100.445,188.74 104.945,187.073 109.5,185.5C 110.332,193.479 110.832,201.479 111,209.5C 112.399,213.238 115.066,214.904 119,214.5C 122.771,214.779 125.771,213.446 128,210.5C 128.333,203.833 128.667,197.167 129,190.5C 133.004,188.665 137.17,187.332 141.5,186.5 Z"/></g>
<g><path style="opacity:1" fill="#128e3e" d="M 205.5,225.5 C 205.44,224.957 205.107,224.624 204.5,224.5C 200.078,226.359 195.412,227.026 190.5,226.5C 189.507,218.016 189.174,209.349 189.5,200.5C 188.5,200.5 187.5,200.5 186.5,200.5C 189.078,216.734 182.412,226.067 166.5,228.5C 156.911,227.461 150.411,222.461 147,213.5C 146.333,205.833 146.333,198.167 147,190.5C 151.333,188.833 155.667,187.167 160,185.5C 160.333,194.167 160.667,202.833 161,211.5C 163.549,215.925 166.882,216.592 171,213.5C 173,209.833 173,206.167 171,202.5C 170.25,201.874 169.416,201.374 168.5,201C 180.125,195.736 191.792,190.57 203.5,185.5C 204.332,196.485 204.832,207.485 205,218.5C 214.667,207.5 224.333,196.5 234,185.5C 243.167,199.167 252.333,212.833 261.5,226.5C 255.833,227.833 250.167,227.833 244.5,226.5C 239.5,219.167 234.5,211.833 229.5,204.5C 226.213,207.076 223.38,210.076 221,213.5C 220.156,217.647 218.99,221.647 217.5,225.5C 213.351,229.459 209.351,229.459 205.5,225.5 Z"/></g>
<g><path style="opacity:1" fill="#5eb581" d="M 141.5,186.5 C 141.56,185.957 141.893,185.624 142.5,185.5C 143.499,199.484 143.833,213.484 143.5,227.5C 138.305,227.821 133.305,227.487 128.5,226.5C 133.167,226.5 137.833,226.5 142.5,226.5C 142.829,212.99 142.496,199.656 141.5,186.5 Z"/></g>
<g><path style="opacity:1" fill="#65b886" d="M 317.5,185.5 C 317.5,199.167 317.5,212.833 317.5,226.5C 319.167,226.5 320.833,226.5 322.5,226.5C 320.735,227.461 318.735,227.795 316.5,227.5C 316.171,213.323 316.504,199.323 317.5,185.5 Z"/></g>
<g><path style="opacity:1" fill="#74bf92" d="M 328.5,185.5 C 328.5,190.833 328.5,196.167 328.5,201.5C 326.265,201.795 324.265,201.461 322.5,200.5C 324.167,200.5 325.833,200.5 327.5,200.5C 327.179,195.305 327.513,190.305 328.5,185.5 Z"/></g>
<g><path style="opacity:1" fill="#f5faf7" d="M 306.5,190.5 C 306.5,193.833 306.5,197.167 306.5,200.5C 304.833,200.5 303.167,200.5 301.5,200.5C 301.5,197.167 301.5,193.833 301.5,190.5C 303.167,190.5 304.833,190.5 306.5,190.5 Z"/></g>
<g><path style="opacity:1" fill="#72be90" d="M 281.5,190.5 C 281.5,193.833 281.5,197.167 281.5,200.5C 284.059,200.198 286.393,200.532 288.5,201.5C 285.833,201.5 283.167,201.5 280.5,201.5C 280.185,197.629 280.518,193.962 281.5,190.5 Z"/></g>
<g><path style="opacity:1" fill="#77c194" d="M 306.5,190.5 C 307.482,193.962 307.815,197.629 307.5,201.5C 305.265,201.795 303.265,201.461 301.5,200.5C 303.167,200.5 304.833,200.5 306.5,200.5C 306.5,197.167 306.5,193.833 306.5,190.5 Z"/></g>
<g><path style="opacity:1" fill="#f3f9f6" d="M 70.5,204.5 C 72.6054,205.987 74.272,207.987 75.5,210.5C 72.2156,211.657 68.8823,211.824 65.5,211C 67.7655,209.242 69.4322,207.075 70.5,204.5 Z"/></g>
<g><path style="opacity:1" fill="#fefffe" d="M 281.5,206.5 C 283.167,206.5 284.833,206.5 286.5,206.5C 286.5,211.5 286.5,216.5 286.5,221.5C 284.833,221.5 283.167,221.5 281.5,221.5C 281.5,216.5 281.5,211.5 281.5,206.5 Z"/></g>
<g><path style="opacity:1" fill="#6dbc8d" d="M 327.5,206.5 C 328.491,212.979 328.824,219.646 328.5,226.5C 330.167,226.5 331.833,226.5 333.5,226.5C 331.735,227.461 329.735,227.795 327.5,227.5C 327.5,220.5 327.5,213.5 327.5,206.5 Z"/></g>
<g><path style="opacity:1" fill="#c0e2cd" d="M 344.5,206.5 C 344.5,213.5 344.5,220.5 344.5,227.5C 342.265,227.795 340.265,227.461 338.5,226.5C 340.167,226.5 341.833,226.5 343.5,226.5C 343.176,219.646 343.509,212.979 344.5,206.5 Z"/></g>
<g><path style="opacity:1" fill="#6ebc8d" d="M 354.5,208.5 C 355.49,214.645 355.823,220.978 355.5,227.5C 353.265,227.795 351.265,227.461 349.5,226.5C 351.167,226.5 352.833,226.5 354.5,226.5C 354.5,220.5 354.5,214.5 354.5,208.5 Z"/></g>
<g><path style="opacity:1" fill="#7cc398" d="M 102.5,225.5 C 103.043,225.56 103.376,225.893 103.5,226.5C 97.6796,227.816 92.0129,227.816 86.5,226.5C 92.0262,226.821 97.3595,226.488 102.5,225.5 Z"/></g>
<g><path style="opacity:1" fill="#7bc298" d="M 205.5,225.5 C 203.108,226.713 200.441,227.379 197.5,227.5C 194.975,227.497 192.641,227.163 190.5,226.5C 195.412,227.026 200.078,226.359 204.5,224.5C 205.107,224.624 205.44,224.957 205.5,225.5 Z"/></g>
</svg>
