<?xml version="1.0" encoding="UTF-8"?>
<!DOCTYPE svg PUBLIC "-//W3C//DTD SVG 1.1//EN" "http://www.w3.org/Graphics/SVG/1.1/DTD/svg11.dtd">
<svg xmlns="http://www.w3.org/2000/svg" version="1.1" width="121px" height="120px" style="shape-rendering:geometricPrecision; text-rendering:geometricPrecision; image-rendering:optimizeQuality; fill-rule:evenodd; clip-rule:evenodd" xmlns:xlink="http://www.w3.org/1999/xlink">
<g><path style="opacity:1" fill="#b71312" d="M -0.5,-0.5 C 32.1667,-0.5 64.8333,-0.5 97.5,-0.5C 95.1414,2.7213 92.6414,5.05464 90,6.5C 83.1667,12 76.3333,17.5 69.5,23C 71.3867,23.1626 72.8867,22.3293 74,20.5C 75.0674,21.1905 76.2341,21.6905 77.5,22C 76.552,22.4828 75.552,22.6495 74.5,22.5C 74.5,23.5 74.5,24.5 74.5,25.5C 55.023,21.7437 38.8563,27.4103 26,42.5C 22.8132,48.938 23.3132,49.1046 27.5,43C 47.3707,28.3765 68.704,25.8765 91.5,35.5C 94.4995,38.5082 93.8328,40.1749 89.5,40.5C 84.4889,40.3341 79.4889,40.5007 74.5,41C 71.5168,42.08 70.1835,43.9133 70.5,46.5C 75.3105,44.5151 80.3105,44.0151 85.5,45C 93.3978,47.2903 96.2311,52.4569 94,60.5C 91.8409,71.3261 85.3409,75.8261 74.5,74C 68.0596,66.7769 67.8929,59.2769 74,51.5C 82.5157,44.9843 81.349,43.8176 70.5,48C 68.3056,50.6947 66.3056,53.528 64.5,56.5C 63.675,57.3857 62.675,57.719 61.5,57.5C 62.3591,51.0639 63.6925,44.7306 65.5,38.5C 62.9556,38.1043 60.7889,38.771 59,40.5C 55.5283,52.4361 52.3616,64.4361 49.5,76.5C 51.924,76.8076 54.2573,76.4742 56.5,75.5C 57.3937,71.1357 58.3937,66.8024 59.5,62.5C 60.5,62.5 61.5,62.5 62.5,62.5C 62.684,66.7159 63.684,70.7159 65.5,74.5C 64.5768,73.6971 63.5768,73.5304 62.5,74C 57.2164,78.3199 51.883,82.6532 46.5,87C 47.7375,87.2321 48.7375,87.7321 49.5,88.5C 44.7363,88.2311 40.403,86.8978 36.5,84.5C 38.6491,83.2524 40.6491,81.7524 42.5,80C 41.2625,79.7679 40.2625,79.2679 39.5,78.5C 41.7638,77.7814 44.0971,77.448 46.5,77.5C 49.2967,65.1113 52.2967,52.778 55.5,40.5C 38.3374,42.4916 24.8374,50.4916 15,64.5C 12.715,68.1869 11.5483,72.1869 11.5,76.5C 14.221,76.0372 16.8877,75.3705 19.5,74.5C 12.8419,79.4974 6.17524,84.4974 -0.5,89.5C -0.5,59.5 -0.5,29.5 -0.5,-0.5 Z"/></g>
<g><path style="opacity:1" fill="#b20605" d="M 97.5,-0.5 C 105.167,-0.5 112.833,-0.5 120.5,-0.5C 120.5,7.83333 120.5,16.1667 120.5,24.5C 114.348,29.085 108.348,33.9183 102.5,39C 101.552,39.4828 100.552,39.6495 99.5,39.5C 92.812,31.9871 84.4786,27.3204 74.5,25.5C 74.5,24.5 74.5,23.5 74.5,22.5C 75.552,22.6495 76.552,22.4828 77.5,22C 76.2341,21.6905 75.0674,21.1905 74,20.5C 72.8867,22.3293 71.3867,23.1626 69.5,23C 76.3333,17.5 83.1667,12 90,6.5C 92.6414,5.05464 95.1414,2.7213 97.5,-0.5 Z"/></g>
<g><path style="opacity:1" fill="#f9eeed" d="M 74.5,25.5 C 84.4786,27.3204 92.812,31.9871 99.5,39.5C 100.303,40.4232 100.47,41.4232 100,42.5C 97.5838,39.5766 94.7504,37.2433 91.5,35.5C 68.704,25.8765 47.3707,28.3765 27.5,43C 23.3132,49.1046 22.8132,48.938 26,42.5C 38.8563,27.4103 55.023,21.7437 74.5,25.5 Z"/></g>
<g><path style="opacity:1" fill="#faf1f1" d="M 89.5,40.5 C 99.2592,44.0151 102.759,51.0151 100,61.5C 95.5515,74.8049 86.3848,80.6383 72.5,79C 69.7982,77.9879 67.4649,76.4879 65.5,74.5C 63.684,70.7159 62.684,66.7159 62.5,62.5C 61.5,62.5 60.5,62.5 59.5,62.5C 58.3937,66.8024 57.3937,71.1357 56.5,75.5C 54.2573,76.4742 51.924,76.8076 49.5,76.5C 52.3616,64.4361 55.5283,52.4361 59,40.5C 60.7889,38.771 62.9556,38.1043 65.5,38.5C 63.6925,44.7306 62.3591,51.0639 61.5,57.5C 62.675,57.719 63.675,57.3857 64.5,56.5C 66.3056,53.528 68.3056,50.6947 70.5,48C 81.349,43.8176 82.5157,44.9843 74,51.5C 67.8929,59.2769 68.0596,66.7769 74.5,74C 85.3409,75.8261 91.8409,71.3261 94,60.5C 96.2311,52.4569 93.3978,47.2903 85.5,45C 80.3105,44.0151 75.3105,44.5151 70.5,46.5C 70.1835,43.9133 71.5168,42.08 74.5,41C 79.4889,40.5007 84.4889,40.3341 89.5,40.5 Z"/></g>
<g><path style="opacity:1" fill="#faf3f3" d="M 39.5,78.5 C 40.6272,73.1177 41.9606,67.7843 43.5,62.5C 37.0137,62.5977 30.6803,63.5977 24.5,65.5C 23.9569,65.44 23.6236,65.1067 23.5,64.5C 24.1925,63.4822 24.8592,62.4822 25.5,61.5C 31.9417,59.1774 38.6084,57.6774 45.5,57C 47.2085,53.7073 48.2085,50.2073 48.5,46.5C 38.4752,48.4997 30.4752,53.4997 24.5,61.5C 23.0256,62.4363 22.0256,63.7697 21.5,65.5C 20.0712,68.3084 19.4045,71.3084 19.5,74.5C 16.8877,75.3705 14.221,76.0372 11.5,76.5C 11.5483,72.1869 12.715,68.1869 15,64.5C 24.8374,50.4916 38.3374,42.4916 55.5,40.5C 52.2967,52.778 49.2967,65.1113 46.5,77.5C 44.0971,77.448 41.7638,77.7814 39.5,78.5 Z"/></g>
<g><path style="opacity:1" fill="#b31711" d="M 25.5,61.5 C 25.1667,61.5 24.8333,61.5 24.5,61.5C 30.4752,53.4997 38.4752,48.4997 48.5,46.5C 48.2085,50.2073 47.2085,53.7073 45.5,57C 38.6084,57.6774 31.9417,59.1774 25.5,61.5 Z"/></g>
<g><path style="opacity:1" fill="#d89997" d="M 24.5,61.5 C 24.8333,61.5 25.1667,61.5 25.5,61.5C 24.8592,62.4822 24.1925,63.4822 23.5,64.5C 23.6236,65.1067 23.9569,65.44 24.5,65.5C 23.6522,66.625 22.6522,66.625 21.5,65.5C 22.0256,63.7697 23.0256,62.4363 24.5,61.5 Z"/></g>
<g><path style="opacity:1" fill="#b10404" d="M 120.5,74.5 C 120.5,89.5 120.5,104.5 120.5,119.5C 101.833,119.5 83.1667,119.5 64.5,119.5C 82.7618,104.031 101.429,89.0306 120.5,74.5 Z"/></g>
<g><path style="opacity:1" fill="#b10503" d="M 39.5,78.5 C 40.2625,79.2679 41.2625,79.7679 42.5,80C 40.6491,81.7524 38.6491,83.2524 36.5,84.5C 32.0713,83.2567 28.2379,80.9234 25,77.5C 26.1143,80.8049 28.2809,83.4716 31.5,85.5C 31.4142,86.4959 31.7476,87.3292 32.5,88C 21.6255,97.0467 10.6255,105.88 -0.5,114.5C -0.5,106.167 -0.5,97.8333 -0.5,89.5C 6.17524,84.4974 12.8419,79.4974 19.5,74.5C 19.4045,71.3084 20.0712,68.3084 21.5,65.5C 22.6522,66.625 23.6522,66.625 24.5,65.5C 30.6803,63.5977 37.0137,62.5977 43.5,62.5C 41.9606,67.7843 40.6272,73.1177 39.5,78.5 Z"/></g>
<g><path style="opacity:1" fill="#f8edee" d="M 31.5,85.5 C 28.2809,83.4716 26.1143,80.8049 25,77.5C 28.2379,80.9234 32.0713,83.2567 36.5,84.5C 40.403,86.8978 44.7363,88.2311 49.5,88.5C 63.88,90.3238 77.5467,87.8238 90.5,81C 93.6301,78.872 96.4634,76.372 99,73.5C 97.1019,78.7549 93.6019,82.9216 88.5,86C 69.2564,97.3477 50.2564,97.181 31.5,85.5 Z"/></g>
<g><path style="opacity:1" fill="#b60312" d="M 120.5,24.5 C 120.5,41.1667 120.5,57.8333 120.5,74.5C 101.429,89.0306 82.7618,104.031 64.5,119.5C 42.8333,119.5 21.1667,119.5 -0.5,119.5C -0.5,117.833 -0.5,116.167 -0.5,114.5C 10.6255,105.88 21.6255,97.0467 32.5,88C 31.7476,87.3292 31.4142,86.4959 31.5,85.5C 50.2564,97.181 69.2564,97.3477 88.5,86C 93.6019,82.9216 97.1019,78.7549 99,73.5C 96.4634,76.372 93.6301,78.872 90.5,81C 77.5467,87.8238 63.88,90.3238 49.5,88.5C 48.7375,87.7321 47.7375,87.2321 46.5,87C 51.883,82.6532 57.2164,78.3199 62.5,74C 63.5768,73.5304 64.5768,73.6971 65.5,74.5C 67.4649,76.4879 69.7982,77.9879 72.5,79C 86.3848,80.6383 95.5515,74.8049 100,61.5C 102.759,51.0151 99.2592,44.0151 89.5,40.5C 93.8328,40.1749 94.4995,38.5082 91.5,35.5C 94.7504,37.2433 97.5838,39.5766 100,42.5C 100.47,41.4232 100.303,40.4232 99.5,39.5C 100.552,39.6495 101.552,39.4828 102.5,39C 108.348,33.9183 114.348,29.085 120.5,24.5 Z"/></g>
</svg>
