<?xml version="1.0" encoding="UTF-8"?>
<!DOCTYPE svg PUBLIC "-//W3C//DTD SVG 1.1//EN" "http://www.w3.org/Graphics/SVG/1.1/DTD/svg11.dtd">
<svg xmlns="http://www.w3.org/2000/svg" version="1.1" width="240px" height="273px" style="shape-rendering:geometricPrecision; text-rendering:geometricPrecision; image-rendering:optimizeQuality; fill-rule:evenodd; clip-rule:evenodd" xmlns:xlink="http://www.w3.org/1999/xlink">
<g><path style="opacity:1" fill="#fcfdfd" d="M -0.5,-0.5 C 79.5,-0.5 159.5,-0.5 239.5,-0.5C 239.5,88.8333 239.5,178.167 239.5,267.5C 238.06,266.637 236.726,266.637 235.5,267.5C 234.833,263.353 234.166,259.353 233.5,255.5C 233.167,255.5 232.833,255.5 232.5,255.5C 229.5,255.5 226.5,255.5 223.5,255.5C 221.035,256.465 218.535,257.465 216,258.5C 214.133,257.623 212.966,256.123 212.5,254C 209.341,253.989 206.507,253.155 204,251.5C 200.911,253.018 197.744,254.351 194.5,255.5C 186.16,255.334 177.827,255.5 169.5,256C 167.84,257.488 166.84,259.321 166.5,261.5C 164.656,259.721 163.99,257.388 164.5,254.5C 160.958,254.187 157.625,254.521 154.5,255.5C 154.739,257.467 154.406,259.301 153.5,261C 150.413,261.259 147.413,261.759 144.5,262.5C 143.527,260.052 143.194,257.385 143.5,254.5C 139.958,254.187 136.625,254.521 133.5,255.5C 124.372,254.21 115.372,254.21 106.5,255.5C 105.833,255.5 105.167,255.5 104.5,255.5C 103.573,253.524 102.24,253.191 100.5,254.5C 101.025,255.192 101.692,255.692 102.5,256C 102,256.167 101.5,256.333 101,256.5C 96.3068,255.251 91.4734,254.584 86.5,254.5C 81.9866,254.501 77.6533,254.834 73.5,255.5C 72.391,255.557 71.391,255.89 70.5,256.5C 69.448,256.649 68.448,256.483 67.5,256C 68.9733,255.29 69.6399,254.124 69.5,252.5C 67.4458,252.365 65.7791,253.032 64.5,254.5C 64.1667,254.5 63.8333,254.5 63.5,254.5C 63.5824,252.748 62.7491,251.748 61,251.5C 56.5098,252.199 52.0098,252.866 47.5,253.5C 44.8324,251.531 41.9991,251.198 39,252.5C 38.2428,249.524 39.4094,247.691 42.5,247C 41.6919,246.692 41.0253,246.192 40.5,245.5C 42.9688,244.832 45.3021,244.165 47.5,243.5C 48.5,243.5 49.5,243.5 50.5,243.5C 54.5138,243.666 58.5138,243.499 62.5,243C 63.3333,242.167 64.1667,241.333 65,240.5C 66.0974,234.694 66.9307,228.861 67.5,223C 71.8206,222.501 76.1539,222.334 80.5,222.5C 80.5,229.5 80.5,236.5 80.5,243.5C 84.8333,243.5 89.1667,243.5 93.5,243.5C 94.1666,235.324 94.8333,226.99 95.5,218.5C 96.1667,226.99 96.8334,235.324 97.5,243.5C 109.838,243.667 122.171,243.5 134.5,243C 139.833,238 139.833,233 134.5,228C 127.833,227.333 121.167,227.333 114.5,228C 113.619,228.708 112.953,229.542 112.5,230.5C 111.833,225.833 111.167,221.167 110.5,216.5C 110.389,215.883 110.056,215.383 109.5,215C 105.961,214.718 102.461,214.218 99,213.5C 97.9412,213.63 97.1079,214.13 96.5,215C 84.6595,215.169 72.9928,215.669 61.5,216.5C 60.0413,216.433 58.7079,216.766 57.5,217.5C 54.9956,217.828 53.1622,219.162 52,221.5C 51.5008,226.155 51.3342,230.821 51.5,235.5C 50.5,235.5 49.5,235.5 48.5,235.5C 48.6621,237.527 48.4955,239.527 48,241.5C 47.8294,232.99 47.3294,224.657 46.5,216.5C 44.5,216.5 42.5,216.5 40.5,216.5C 29.1618,216.333 17.8284,216.5 6.5,217C 5.29857,217.903 4.46524,219.069 4,220.5C 3.50031,228.159 3.33365,235.826 3.5,243.5C 7.31227,244.324 11.3123,244.824 15.5,245C 13.9559,245.29 12.6226,245.956 11.5,247C 13.2852,248.163 15.2852,248.83 17.5,249C 18.1667,250.333 19.1667,251.333 20.5,252C 15.7057,252.902 11.039,253.735 6.5,254.5C 6.5,254.833 6.5,255.167 6.5,255.5C 5.5,255.5 4.5,255.5 3.5,255.5C 3.5,257.5 3.5,259.5 3.5,261.5C 2.04125,261.567 0.707917,261.234 -0.5,260.5C -0.5,173.5 -0.5,86.5 -0.5,-0.5 Z"/></g>
<g><path style="opacity:1" fill="#0968b0" d="M 116.5,5.5 C 119.985,9.79038 122.985,14.457 125.5,19.5C 125.679,21.9541 125.013,24.1208 123.5,26C 123.833,26.5 124.167,27 124.5,27.5C 125.167,26.5 125.833,25.5 126.5,24.5C 128.01,26.322 129.343,28.322 130.5,30.5C 128.995,31.8415 128.328,33.5082 128.5,35.5C 123.256,43.7454 117.256,51.4121 110.5,58.5C 110.389,57.8826 110.056,57.3826 109.5,57C 110.648,53.2813 111.314,49.448 111.5,45.5C 112.844,32.0808 114.511,18.7475 116.5,5.5 Z"/></g>
<g><path style="opacity:1" fill="#094277" d="M 116.5,5.5 C 114.511,18.7475 112.844,32.0808 111.5,45.5C 109.72,46.7547 107.887,46.7547 106,45.5C 103.667,48.1667 101.333,48.1667 99,45.5C 97.6667,46.8333 96.3333,46.8333 95,45.5C 91.2791,51.5011 87.1125,57.1677 82.5,62.5C 93.3096,43.5547 104.143,24.5547 115,5.5C 115.69,4.26166 116.19,4.26166 116.5,5.5 Z"/></g>
<g><path style="opacity:1" fill="#f5fafa" d="M 138.5,61.5 C 122.227,74.8061 106.561,88.8061 91.5,103.5C 83.5709,109.092 76.2376,115.426 69.5,122.5C 60.2431,129.584 51.4097,137.251 43,145.5C 42.3333,144.833 42.3333,144.167 43,143.5C 50.4287,135.245 57.262,126.579 63.5,117.5C 69.8482,110.482 75.8482,103.149 81.5,95.5C 87.8333,87.5 94.1667,79.5 100.5,71.5C 104.064,67.3857 107.397,63.0524 110.5,58.5C 117.256,51.4121 123.256,43.7454 128.5,35.5C 129.789,33.752 131.289,33.4186 133,34.5C 135.817,42.1418 138.651,49.8085 141.5,57.5C 140.714,59.0411 139.714,60.3744 138.5,61.5 Z"/></g>
<g><path style="opacity:1" fill="#055290" d="M 111.5,45.5 C 111.314,49.448 110.648,53.2813 109.5,57C 110.056,57.3826 110.389,57.8826 110.5,58.5C 107.397,63.0524 104.064,67.3857 100.5,71.5C 99.8485,70.9094 99.1818,70.2427 98.5,69.5C 95.9528,70.9336 93.6195,72.6002 91.5,74.5C 88.7862,74.0596 86.6195,72.7262 85,70.5C 82.9189,71.3331 80.7522,71.3331 78.5,70.5C 79.3257,67.5152 80.659,64.8485 82.5,62.5C 87.1125,57.1677 91.2791,51.5011 95,45.5C 96.3333,46.8333 97.6667,46.8333 99,45.5C 101.333,48.1667 103.667,48.1667 106,45.5C 107.887,46.7547 109.72,46.7547 111.5,45.5 Z"/></g>
<g><path style="opacity:1" fill="#095fa2" d="M 100.5,71.5 C 94.1667,79.5 87.8333,87.5 81.5,95.5C 80.5041,95.4142 79.6708,95.7476 79,96.5C 75.3854,94.2805 71.8854,91.9472 68.5,89.5C 68.5,88.8333 68.1667,88.5 67.5,88.5C 70.679,82.1303 74.3457,76.1303 78.5,70.5C 80.7522,71.3331 82.9189,71.3331 85,70.5C 86.6195,72.7262 88.7862,74.0596 91.5,74.5C 93.6195,72.6002 95.9528,70.9336 98.5,69.5C 99.1818,70.2427 99.8485,70.9094 100.5,71.5 Z"/></g>
<g><path style="opacity:1" fill="#0a6baf" d="M 138.5,61.5 C 139.5,61.5 140.5,61.5 141.5,61.5C 141.157,63.4832 141.824,64.8166 143.5,65.5C 146.456,78.4043 149.122,91.4043 151.5,104.5C 151.41,107.152 152.076,109.485 153.5,111.5C 153.833,114.167 154.167,116.833 154.5,119.5C 154.813,122.247 154.48,124.914 153.5,127.5C 152.971,124.743 151.971,122.243 150.5,120C 150.827,117.315 150.827,114.482 150.5,111.5C 149.5,111.5 148.5,111.5 147.5,111.5C 147.509,113.308 147.009,114.975 146,116.5C 144.192,113.647 144.025,110.647 145.5,107.5C 144.787,105.224 144.287,102.891 144,100.5C 143.51,101.793 143.343,103.127 143.5,104.5C 139.776,104.95 137.609,103.283 137,99.5C 136.196,100.804 135.029,101.471 133.5,101.5C 131.547,100.844 129.547,100.511 127.5,100.5C 127.5,101.5 127.5,102.5 127.5,103.5C 120.358,103.232 113.358,102.398 106.5,101C 105.299,101.903 104.465,103.069 104,104.5C 103.667,104.167 103.333,103.833 103,103.5C 102.057,106.251 101.224,108.917 100.5,111.5C 99.0527,110.378 98.0527,108.878 97.5,107C 96.5,106.667 95.5,106.333 94.5,106C 95.8333,105.333 95.8333,104.667 94.5,104C 93.552,103.517 92.552,103.351 91.5,103.5C 106.561,88.8061 122.227,74.8061 138.5,61.5 Z"/></g>
<g><path style="opacity:1" fill="#0b5091" d="M 68.5,89.5 C 71.8854,91.9472 75.3854,94.2805 79,96.5C 79.6708,95.7476 80.5041,95.4142 81.5,95.5C 75.8482,103.149 69.8482,110.482 63.5,117.5C 62.5041,117.586 61.6708,117.252 61,116.5C 60.5172,117.448 60.3505,118.448 60.5,119.5C 59.5,119.5 58.5,119.5 57.5,119.5C 57.1111,116.7 56.6111,114.033 56,111.5C 60.0271,104.001 64.1937,96.6677 68.5,89.5 Z"/></g>
<g><path style="opacity:1" fill="#f6fbfb" d="M 168.5,121.5 C 174.014,138.392 180.681,154.725 188.5,170.5C 189.87,175.579 191.536,180.579 193.5,185.5C 193.784,187.877 193.784,190.044 193.5,192C 195.037,193.11 195.703,194.61 195.5,196.5C 192.167,196.5 188.833,196.5 185.5,196.5C 180.768,196.622 176.102,196.122 171.5,195C 170.915,193.698 170.249,192.531 169.5,191.5C 166.989,175.203 163.656,159.203 159.5,143.5C 158.581,135.234 156.914,127.234 154.5,119.5C 154.167,116.833 153.833,114.167 153.5,111.5C 153.59,108.848 152.924,106.515 151.5,104.5C 149.122,91.4043 146.456,78.4043 143.5,65.5C 142.986,63.4884 142.82,61.4884 143,59.5C 151.3,80.4099 159.8,101.077 168.5,121.5 Z"/></g>
<g><path style="opacity:1" fill="#1573b5" d="M 125.5,19.5 C 143.654,49.1305 161.321,79.1305 178.5,109.5C 175.956,106.693 174.956,107.36 175.5,111.5C 174.022,111.762 172.689,111.429 171.5,110.5C 175.148,106.998 175.148,103.331 171.5,99.5C 171.167,99.8333 170.833,100.167 170.5,100.5C 171.485,102.098 171.651,103.765 171,105.5C 169.238,107.742 167.738,110.076 166.5,112.5C 166.709,113.994 167.376,115.161 168.5,116C 167.862,117.707 167.862,119.54 168.5,121.5C 159.8,101.077 151.3,80.4099 143,59.5C 142.82,61.4884 142.986,63.4884 143.5,65.5C 141.824,64.8166 141.157,63.4832 141.5,61.5C 140.5,61.5 139.5,61.5 138.5,61.5C 139.714,60.3744 140.714,59.0411 141.5,57.5C 138.651,49.8085 135.817,42.1418 133,34.5C 131.289,33.4186 129.789,33.752 128.5,35.5C 128.328,33.5082 128.995,31.8415 130.5,30.5C 129.343,28.322 128.01,26.322 126.5,24.5C 125.833,25.5 125.167,26.5 124.5,27.5C 124.167,27 123.833,26.5 123.5,26C 125.013,24.1208 125.679,21.9541 125.5,19.5 Z"/></g>
<g><path style="opacity:1" fill="#7dafc7" d="M 151.5,104.5 C 152.924,106.515 153.59,108.848 153.5,111.5C 152.076,109.485 151.41,107.152 151.5,104.5 Z"/></g>
<g><path style="opacity:1" fill="#0376b8" d="M 154.5,119.5 C 156.914,127.234 158.581,135.234 159.5,143.5C 159.5,145.5 159.5,147.5 159.5,149.5C 154.167,146.5 148.833,143.5 143.5,140.5C 139.135,136.811 134.469,133.478 129.5,130.5C 125.11,126.883 120.277,123.883 115,121.5C 114.5,121.833 114,122.167 113.5,122.5C 114.022,123.607 114.355,124.774 114.5,126C 113.144,129.412 112.144,132.912 111.5,136.5C 112.152,144.364 112.818,152.197 113.5,160C 112.322,160.967 110.989,161.467 109.5,161.5C 110.861,163.028 112.028,164.695 113,166.5C 113.414,166.043 113.914,165.709 114.5,165.5C 115.429,166.689 115.762,168.022 115.5,169.5C 114.448,169.351 113.448,169.517 112.5,170C 115.188,170.782 116.188,172.282 115.5,174.5C 114.719,173.263 113.719,172.263 112.5,171.5C 110.253,172.374 107.92,172.708 105.5,172.5C 101.857,171.331 98.1899,169.998 94.5,168.5C 95.1095,162.185 95.4428,155.851 95.5,149.5C 97.3997,136.994 99.0663,124.327 100.5,111.5C 101.224,108.917 102.057,106.251 103,103.5C 103.333,103.833 103.667,104.167 104,104.5C 104.465,103.069 105.299,101.903 106.5,101C 113.358,102.398 120.358,103.232 127.5,103.5C 127.5,102.5 127.5,101.5 127.5,100.5C 129.547,100.511 131.547,100.844 133.5,101.5C 135.029,101.471 136.196,100.804 137,99.5C 137.609,103.283 139.776,104.95 143.5,104.5C 143.343,103.127 143.51,101.793 144,100.5C 144.287,102.891 144.787,105.224 145.5,107.5C 144.025,110.647 144.192,113.647 146,116.5C 147.009,114.975 147.509,113.308 147.5,111.5C 148.5,111.5 149.5,111.5 150.5,111.5C 150.827,114.482 150.827,117.315 150.5,120C 151.971,122.243 152.971,124.743 153.5,127.5C 154.48,124.914 154.813,122.247 154.5,119.5 Z"/></g>
<g><path style="opacity:1" fill="#044d8e" d="M 91.5,103.5 C 92.552,103.351 93.552,103.517 94.5,104C 95.8333,104.667 95.8333,105.333 94.5,106C 95.5,106.333 96.5,106.667 97.5,107C 98.0527,108.878 99.0527,110.378 100.5,111.5C 99.0663,124.327 97.3997,136.994 95.5,149.5C 95.4867,145.593 94.6534,141.926 93,138.5C 92.6667,139.833 92.3333,141.167 92,142.5C 86.9812,137.388 81.1479,133.555 74.5,131C 72.8753,130.147 72.5419,129.147 73.5,128C 71.1144,127.716 70.4477,126.716 71.5,125C 70.6195,124.292 69.9528,123.458 69.5,122.5C 76.2376,115.426 83.5709,109.092 91.5,103.5 Z"/></g>
<g><path style="opacity:1" fill="#056aa8" d="M 129.5,130.5 C 127.821,130.892 126.154,131.392 124.5,132C 125.716,141.313 125.716,150.813 124.5,160.5C 126.76,163.815 127.093,167.315 125.5,171C 125.629,172.981 126.296,174.647 127.5,176C 123.506,177.46 123.506,178.627 127.5,179.5C 119.898,177.681 112.564,175.348 105.5,172.5C 107.92,172.708 110.253,172.374 112.5,171.5C 113.719,172.263 114.719,173.263 115.5,174.5C 116.188,172.282 115.188,170.782 112.5,170C 113.448,169.517 114.448,169.351 115.5,169.5C 115.762,168.022 115.429,166.689 114.5,165.5C 113.914,165.709 113.414,166.043 113,166.5C 112.028,164.695 110.861,163.028 109.5,161.5C 110.989,161.467 112.322,160.967 113.5,160C 112.818,152.197 112.152,144.364 111.5,136.5C 112.144,132.912 113.144,129.412 114.5,126C 114.355,124.774 114.022,123.607 113.5,122.5C 114,122.167 114.5,121.833 115,121.5C 120.277,123.883 125.11,126.883 129.5,130.5 Z"/></g>
<g><path style="opacity:1" fill="#084680" d="M 67.5,88.5 C 68.1667,88.5 68.5,88.8333 68.5,89.5C 64.1937,96.6677 60.0271,104.001 56,111.5C 56.6111,114.033 57.1111,116.7 57.5,119.5C 58.5,119.5 59.5,119.5 60.5,119.5C 60.3505,118.448 60.5172,117.448 61,116.5C 61.6708,117.252 62.5041,117.586 63.5,117.5C 57.262,126.579 50.4287,135.245 43,143.5C 42.3333,144.167 42.3333,144.833 43,145.5C 51.4097,137.251 60.2431,129.584 69.5,122.5C 69.9528,123.458 70.6195,124.292 71.5,125C 70.4477,126.716 71.1144,127.716 73.5,128C 72.5419,129.147 72.8753,130.147 74.5,131C 81.1479,133.555 86.9812,137.388 92,142.5C 92.3333,141.167 92.6667,139.833 93,138.5C 94.6534,141.926 95.4867,145.593 95.5,149.5C 95.4428,155.851 95.1095,162.185 94.5,168.5C 88.2903,167.097 82.2903,165.097 76.5,162.5C 75.9517,159.916 74.285,158.916 71.5,159.5C 71.762,158.022 71.4287,156.689 70.5,155.5C 70.598,156.616 70.098,157.616 69,158.5C 66.632,157.283 64.132,156.449 61.5,156C 60.3333,155.5 59.5,154.667 59,153.5C 58.4387,154.022 57.772,154.355 57,154.5C 52.6066,152.214 47.9399,150.547 43,149.5C 42.0546,149.095 41.3879,148.428 41,147.5C 39.1862,148.76 37.3529,148.76 35.5,147.5C 37.0761,145.021 38.0761,142.354 38.5,139.5C 47.9136,122.337 57.5803,105.337 67.5,88.5 Z"/></g>
<g><path style="opacity:1" fill="#015189" d="M 143.5,140.5 C 148.833,143.5 154.167,146.5 159.5,149.5C 157.736,150.902 155.736,151.735 153.5,152C 154.696,153.364 155.696,154.864 156.5,156.5C 155.747,162.804 155.247,169.137 155,175.5C 154.667,170.167 154.333,164.833 154,159.5C 153.501,165.157 153.334,170.824 153.5,176.5C 146.908,177.428 146.908,178.428 153.5,179.5C 153.5,180.5 153.5,181.5 153.5,182.5C 150.472,182.339 147.639,183.006 145,184.5C 142.176,183.129 139.343,182.129 136.5,181.5C 137.766,180.91 139.099,180.41 140.5,180C 138.122,179.026 138.456,178.359 141.5,178C 140.167,176.16 140.334,175.66 142,176.5C 142.962,166.818 142.462,157.318 140.5,148C 139.988,144.737 140.988,142.237 143.5,140.5 Z"/></g>
<g><path style="opacity:1" fill="#015b97" d="M 129.5,130.5 C 134.469,133.478 139.135,136.811 143.5,140.5C 140.988,142.237 139.988,144.737 140.5,148C 142.462,157.318 142.962,166.818 142,176.5C 140.334,175.66 140.167,176.16 141.5,178C 138.456,178.359 138.122,179.026 140.5,180C 139.099,180.41 137.766,180.91 136.5,181.5C 135.167,181.5 133.833,181.5 132.5,181.5C 130.597,181.204 128.93,180.537 127.5,179.5C 123.506,178.627 123.506,177.46 127.5,176C 126.296,174.647 125.629,172.981 125.5,171C 127.093,167.315 126.76,163.815 124.5,160.5C 125.716,150.813 125.716,141.313 124.5,132C 126.154,131.392 127.821,130.892 129.5,130.5 Z"/></g>
<g><path style="opacity:1" fill="#f6fafb" d="M 76.5,162.5 C 82.2903,165.097 88.2903,167.097 94.5,168.5C 98.1899,169.998 101.857,171.331 105.5,172.5C 112.564,175.348 119.898,177.681 127.5,179.5C 128.93,180.537 130.597,181.204 132.5,181.5C 142.943,185.537 153.609,189.204 164.5,192.5C 163.726,193.147 162.726,193.48 161.5,193.5C 156.855,192.615 152.189,191.948 147.5,191.5C 136.648,189.736 125.648,188.069 114.5,186.5C 107.071,184.345 99.4042,183.011 91.5,182.5C 74.8956,179.729 58.2289,177.396 41.5,175.5C 35.024,173.887 28.3574,172.554 21.5,171.5C 26.6204,163.589 32.4538,156.255 39,149.5C 51.4778,153.993 63.9778,158.327 76.5,162.5 Z"/></g>
<g><path style="opacity:1" fill="#0b80c6" d="M 178.5,109.5 C 196.655,138.466 214.322,167.799 231.5,197.5C 217.289,188.317 202.956,179.317 188.5,170.5C 180.681,154.725 174.014,138.392 168.5,121.5C 167.862,119.54 167.862,117.707 168.5,116C 167.376,115.161 166.709,113.994 166.5,112.5C 167.738,110.076 169.238,107.742 171,105.5C 171.651,103.765 171.485,102.098 170.5,100.5C 170.833,100.167 171.167,99.8333 171.5,99.5C 175.148,103.331 175.148,106.998 171.5,110.5C 172.689,111.429 174.022,111.762 175.5,111.5C 174.956,107.36 175.956,106.693 178.5,109.5 Z"/></g>
<g><path style="opacity:1" fill="#05457b" d="M 188.5,170.5 C 202.956,179.317 217.289,188.317 231.5,197.5C 221.013,198.494 210.346,198.828 199.5,198.5C 197.5,194.167 195.5,189.833 193.5,185.5C 191.536,180.579 189.87,175.579 188.5,170.5 Z"/></g>
<g><path style="opacity:1" fill="#0c477a" d="M 159.5,143.5 C 163.656,159.203 166.989,175.203 169.5,191.5C 169.53,192.497 169.03,193.164 168,193.5C 166.862,193.011 165.695,192.678 164.5,192.5C 153.609,189.204 142.943,185.537 132.5,181.5C 133.833,181.5 135.167,181.5 136.5,181.5C 139.343,182.129 142.176,183.129 145,184.5C 147.639,183.006 150.472,182.339 153.5,182.5C 153.5,181.5 153.5,180.5 153.5,179.5C 146.908,178.428 146.908,177.428 153.5,176.5C 153.334,170.824 153.501,165.157 154,159.5C 154.333,164.833 154.667,170.167 155,175.5C 155.247,169.137 155.747,162.804 156.5,156.5C 155.696,154.864 154.696,153.364 153.5,152C 155.736,151.735 157.736,150.902 159.5,149.5C 159.5,147.5 159.5,145.5 159.5,143.5 Z"/></g>
<g><path style="opacity:1" fill="#0d3966" d="M 38.5,139.5 C 38.0761,142.354 37.0761,145.021 35.5,147.5C 37.3529,148.76 39.1862,148.76 41,147.5C 41.3879,148.428 42.0546,149.095 43,149.5C 47.9399,150.547 52.6066,152.214 57,154.5C 57.772,154.355 58.4387,154.022 59,153.5C 59.5,154.667 60.3333,155.5 61.5,156C 64.132,156.449 66.632,157.283 69,158.5C 70.098,157.616 70.598,156.616 70.5,155.5C 71.4287,156.689 71.762,158.022 71.5,159.5C 74.285,158.916 75.9517,159.916 76.5,162.5C 63.9778,158.327 51.4778,153.993 39,149.5C 32.4538,156.255 26.6204,163.589 21.5,171.5C 28.3574,172.554 35.024,173.887 41.5,175.5C 34.0673,175.432 26.734,174.765 19.5,173.5C 19.3354,176.518 19.502,179.518 20,182.5C 23.4518,186.625 25.7852,185.958 27,180.5C 28.3186,182.25 28.8186,184.25 28.5,186.5C 27.1266,186.343 25.7932,186.51 24.5,187C 24.8333,187.333 25.1667,187.667 25.5,188C 22.9178,190.027 23.4178,191.193 27,191.5C 28.8895,191.215 30.2229,190.215 31,188.5C 31.4828,189.448 31.6495,190.448 31.5,191.5C 34.7189,191.843 36.8856,191.176 38,189.5C 39.4038,189.509 40.5704,190.009 41.5,191C 49.0799,191.813 56.5799,191.647 64,190.5C 69.083,191.307 74.2497,191.807 79.5,192C 58.1693,192.5 36.8359,192.667 15.5,192.5C 15.5,193.5 15.5,194.5 15.5,195.5C 18.5788,195.74 21.5788,195.407 24.5,194.5C 42.8933,196.648 61.2266,197.981 79.5,198.5C 54.5,198.5 29.5,198.5 4.5,198.5C 5.10978,197.609 5.44312,196.609 5.5,195.5C 16.5,176.833 27.5,158.167 38.5,139.5 Z"/></g>
<g><path style="opacity:1" fill="#043c71" d="M 41.5,175.5 C 58.2289,177.396 74.8956,179.729 91.5,182.5C 91.5,187.833 91.5,193.167 91.5,198.5C 87.5,198.5 83.5,198.5 79.5,198.5C 61.2266,197.981 42.8933,196.648 24.5,194.5C 21.5788,195.407 18.5788,195.74 15.5,195.5C 15.5,194.5 15.5,193.5 15.5,192.5C 36.8359,192.667 58.1693,192.5 79.5,192C 74.2497,191.807 69.083,191.307 64,190.5C 56.5799,191.647 49.0799,191.813 41.5,191C 40.5704,190.009 39.4038,189.509 38,189.5C 36.8856,191.176 34.7189,191.843 31.5,191.5C 31.6495,190.448 31.4828,189.448 31,188.5C 30.2229,190.215 28.8895,191.215 27,191.5C 23.4178,191.193 22.9178,190.027 25.5,188C 25.1667,187.667 24.8333,187.333 24.5,187C 25.7932,186.51 27.1266,186.343 28.5,186.5C 28.8186,184.25 28.3186,182.25 27,180.5C 25.7852,185.958 23.4518,186.625 20,182.5C 19.502,179.518 19.3354,176.518 19.5,173.5C 26.734,174.765 34.0673,175.432 41.5,175.5 Z"/></g>
<g><path style="opacity:1" fill="#097dbf" d="M 91.5,182.5 C 99.4042,183.011 107.071,184.345 114.5,186.5C 114.611,187.117 114.944,187.617 115.5,188C 120.236,188.684 124.903,189.684 129.5,191C 126.833,191.667 126.833,192.333 129.5,193C 127.893,194.049 127.227,195.549 127.5,197.5C 124.615,197.194 121.948,197.527 119.5,198.5C 110.167,198.5 100.833,198.5 91.5,198.5C 91.5,193.167 91.5,187.833 91.5,182.5 Z"/></g>
<g><path style="opacity:1" fill="#0e6ba9" d="M 114.5,186.5 C 125.648,188.069 136.648,189.736 147.5,191.5C 146.167,191.5 144.833,191.5 143.5,191.5C 143.215,193.288 143.548,194.955 144.5,196.5C 145.148,194.488 146.981,193.155 150,192.5C 154.839,193.129 159.339,194.629 163.5,197C 151.505,197.5 139.505,197.667 127.5,197.5C 127.227,195.549 127.893,194.049 129.5,193C 126.833,192.333 126.833,191.667 129.5,191C 124.903,189.684 120.236,188.684 115.5,188C 114.944,187.617 114.611,187.117 114.5,186.5 Z"/></g>
<g><path style="opacity:1" fill="#175c91" d="M 147.5,191.5 C 152.189,191.948 156.855,192.615 161.5,193.5C 162.726,193.48 163.726,193.147 164.5,192.5C 165.695,192.678 166.862,193.011 168,193.5C 169.03,193.164 169.53,192.497 169.5,191.5C 170.249,192.531 170.915,193.698 171.5,195C 176.102,196.122 180.768,196.622 185.5,196.5C 186.209,197.404 187.209,197.737 188.5,197.5C 165.673,198.498 142.673,198.831 119.5,198.5C 121.948,197.527 124.615,197.194 127.5,197.5C 139.505,197.667 151.505,197.5 163.5,197C 159.339,194.629 154.839,193.129 150,192.5C 146.981,193.155 145.148,194.488 144.5,196.5C 143.548,194.955 143.215,193.288 143.5,191.5C 144.833,191.5 146.167,191.5 147.5,191.5 Z"/></g>
<g><path style="opacity:1" fill="#4a6c8a" d="M 231.5,197.5 C 232.043,197.56 232.376,197.893 232.5,198.5C 231.675,199.386 230.675,199.719 229.5,199.5C 219.319,199.827 209.319,199.494 199.5,198.5C 210.346,198.828 221.013,198.494 231.5,197.5 Z"/></g>
<g><path style="opacity:1" fill="#e6fcfd" d="M 193.5,185.5 C 195.5,189.833 197.5,194.167 199.5,198.5C 209.319,199.494 219.319,199.827 229.5,199.5C 229.03,200.693 228.03,201.36 226.5,201.5C 152.182,200.509 77.849,200.176 3.5,200.5C 1.59932,197.672 2.26599,196.006 5.5,195.5C 5.44312,196.609 5.10978,197.609 4.5,198.5C 68.332,199.665 132.332,199.832 196.5,199C 193.937,197.921 191.271,197.421 188.5,197.5C 187.209,197.737 186.209,197.404 185.5,196.5C 188.833,196.5 192.167,196.5 195.5,196.5C 195.703,194.61 195.037,193.11 193.5,192C 193.784,190.044 193.784,187.877 193.5,185.5 Z"/></g>
<g><path style="opacity:1" fill="#4f82a2" d="M 188.5,197.5 C 191.271,197.421 193.937,197.921 196.5,199C 132.332,199.832 68.332,199.665 4.5,198.5C 29.5,198.5 54.5,198.5 79.5,198.5C 83.5,198.5 87.5,198.5 91.5,198.5C 100.833,198.5 110.167,198.5 119.5,198.5C 142.673,198.831 165.673,198.498 188.5,197.5 Z"/></g>
<g><path style="opacity:1" fill="#c9dbed" d="M 110.5,216.5 C 106.167,216.5 101.833,216.5 97.5,216.5C 97.5,225.5 97.5,234.5 97.5,243.5C 96.8334,235.324 96.1667,226.99 95.5,218.5C 94.8333,226.99 94.1666,235.324 93.5,243.5C 93.5,234.5 93.5,225.5 93.5,216.5C 82.8333,216.5 72.1667,216.5 61.5,216.5C 72.9928,215.669 84.6595,215.169 96.5,215C 97.1079,214.13 97.9412,213.63 99,213.5C 102.461,214.218 105.961,214.718 109.5,215C 110.056,215.383 110.389,215.883 110.5,216.5 Z"/></g>
<g><path style="opacity:1" fill="#0e4e8b" d="M 219.5,233.5 C 214.5,232.833 209.5,232.167 204.5,231.5C 205.364,230.312 206.364,229.145 207.5,228C 211.486,227.501 215.486,227.334 219.5,227.5C 219.5,225.833 219.5,224.167 219.5,222.5C 213.974,222.179 208.64,222.512 203.5,223.5C 202.509,229.979 202.176,236.646 202.5,243.5C 198.167,243.5 193.833,243.5 189.5,243.5C 189.334,235.826 189.5,228.159 190,220.5C 190.465,219.069 191.299,217.903 192.5,217C 205.829,216.5 219.163,216.333 232.5,216.5C 232.5,225.5 232.5,234.5 232.5,243.5C 228.167,243.5 223.833,243.5 219.5,243.5C 219.5,240.167 219.5,236.833 219.5,233.5 Z"/></g>
<g><path style="opacity:1" fill="#1d4d7c" d="M 40.5,216.5 C 32.0097,217.33 23.343,217.83 14.5,218C 15.3366,219.011 15.67,220.178 15.5,221.5C 21.358,221.178 27.0247,221.511 32.5,222.5C 27.0557,221.892 22.0557,222.558 17.5,224.5C 16.5098,230.645 16.1765,236.978 16.5,243.5C 12.1667,243.5 7.83333,243.5 3.5,243.5C 3.33365,235.826 3.50031,228.159 4,220.5C 4.46524,219.069 5.29857,217.903 6.5,217C 17.8284,216.5 29.1618,216.333 40.5,216.5 Z"/></g>
<g><path style="opacity:1" fill="#024e91" d="M 7.5,217.5 C 9.5273,217.338 11.5273,217.505 13.5,218C 12.8333,218.333 12.1667,218.667 11.5,219C 12.3333,220.5 13.5,221.667 15,222.5C 15.4996,229.158 15.6663,235.825 15.5,242.5C 12.1667,242.5 8.83333,242.5 5.5,242.5C 5.33365,234.826 5.50031,227.159 6,219.5C 6.71719,218.956 7.21719,218.289 7.5,217.5 Z"/></g>
<g><path style="opacity:1" fill="#eaf5fb" d="M 32.5,222.5 C 33.4511,223.919 33.7845,225.585 33.5,227.5C 29.1161,227.174 24.7828,227.508 20.5,228.5C 19.8075,229.518 19.1408,230.518 18.5,231.5C 17.5318,229.393 17.1984,227.059 17.5,224.5C 22.0557,222.558 27.0557,221.892 32.5,222.5 Z"/></g>
<g><path style="opacity:1" fill="#084e8d" d="M 40.5,216.5 C 42.5,216.5 44.5,216.5 46.5,216.5C 46.5,225.5 46.5,234.5 46.5,243.5C 42.1667,243.5 37.8333,243.5 33.5,243.5C 33.5,240.167 33.5,236.833 33.5,233.5C 28.5,232.833 23.5,232.167 18.5,231.5C 19.1408,230.518 19.8075,229.518 20.5,228.5C 24.7828,227.508 29.1161,227.174 33.5,227.5C 33.7845,225.585 33.4511,223.919 32.5,222.5C 27.0247,221.511 21.358,221.178 15.5,221.5C 15.67,220.178 15.3366,219.011 14.5,218C 23.343,217.83 32.0097,217.33 40.5,216.5 Z"/></g>
<g><path style="opacity:1" fill="#17508d" d="M 61.5,216.5 C 72.1667,216.5 82.8333,216.5 93.5,216.5C 93.5,225.5 93.5,234.5 93.5,243.5C 89.1667,243.5 84.8333,243.5 80.5,243.5C 80.5,236.5 80.5,229.5 80.5,222.5C 76.1539,222.334 71.8206,222.501 67.5,223C 66.9307,228.861 66.0974,234.694 65,240.5C 64.1667,241.333 63.3333,242.167 62.5,243C 58.5138,243.499 54.5138,243.666 50.5,243.5C 51.9652,237.018 52.7985,230.352 53,223.5C 54.332,221.34 55.832,219.34 57.5,217.5C 58.7079,216.766 60.0413,216.433 61.5,216.5 Z"/></g>
<g><path style="opacity:1" fill="#d2e8f4" d="M 46.5,216.5 C 47.3294,224.657 47.8294,232.99 48,241.5C 48.4955,239.527 48.6621,237.527 48.5,235.5C 49.5,235.5 50.5,235.5 51.5,235.5C 51.3342,230.821 51.5008,226.155 52,221.5C 53.1622,219.162 54.9956,217.828 57.5,217.5C 55.832,219.34 54.332,221.34 53,223.5C 52.7985,230.352 51.9652,237.018 50.5,243.5C 49.5,243.5 48.5,243.5 47.5,243.5C 47.1667,243.5 46.8333,243.5 46.5,243.5C 46.5,234.5 46.5,225.5 46.5,216.5 Z"/></g>
<g><path style="opacity:1" fill="#bbd9ed" d="M 110.5,216.5 C 111.167,221.167 111.833,225.833 112.5,230.5C 112.389,231.117 112.056,231.617 111.5,232C 116.684,232.174 121.684,232.674 126.5,233.5C 121.5,233.5 116.5,233.5 111.5,233.5C 111.5,234.5 111.5,235.5 111.5,236.5C 116.5,236.5 121.5,236.5 126.5,236.5C 121.36,237.488 116.026,237.821 110.5,237.5C 110.5,230.5 110.5,223.5 110.5,216.5 Z"/></g>
<g><path style="opacity:1" fill="#84a7c8" d="M 17.5,224.5 C 17.1984,227.059 17.5318,229.393 18.5,231.5C 23.5,232.167 28.5,232.833 33.5,233.5C 28.1667,233.5 22.8333,233.5 17.5,233.5C 17.8128,237.042 17.4794,240.375 16.5,243.5C 16.1765,236.978 16.5098,230.645 17.5,224.5 Z"/></g>
<g><path style="opacity:1" fill="#e4f2f9" d="M 204.5,231.5 C 203.527,229.052 203.194,226.385 203.5,223.5C 208.64,222.512 213.974,222.179 219.5,222.5C 219.5,224.167 219.5,225.833 219.5,227.5C 215.486,227.334 211.486,227.501 207.5,228C 206.364,229.145 205.364,230.312 204.5,231.5 Z"/></g>
<g><path style="opacity:1" fill="#144f8b" d="M 110.5,216.5 C 110.5,223.5 110.5,230.5 110.5,237.5C 116.026,237.821 121.36,237.488 126.5,236.5C 127.833,235.5 127.833,234.5 126.5,233.5C 121.684,232.674 116.684,232.174 111.5,232C 112.056,231.617 112.389,231.117 112.5,230.5C 112.953,229.542 113.619,228.708 114.5,228C 121.167,227.333 127.833,227.333 134.5,228C 139.833,233 139.833,238 134.5,243C 122.171,243.5 109.838,243.667 97.5,243.5C 97.5,234.5 97.5,225.5 97.5,216.5C 101.833,216.5 106.167,216.5 110.5,216.5 Z"/></g>
<g><path style="opacity:1" fill="#cee1ef" d="M 182.5,216.5 C 169.829,216.333 157.162,216.5 144.5,217C 143.667,217.833 142.833,218.667 142,219.5C 141.333,222.833 141.333,226.167 142,229.5C 142.833,230.333 143.667,231.167 144.5,232C 149.489,232.499 154.489,232.666 159.5,232.5C 159.5,236.167 159.5,239.833 159.5,243.5C 158.521,240.375 158.187,237.042 158.5,233.5C 152.907,233.807 147.407,233.473 142,232.5C 138.914,227.085 139.08,221.751 142.5,216.5C 155.961,215.177 169.294,215.177 182.5,216.5 Z"/></g>
<g><path style="opacity:1" fill="#80a3c7" d="M 203.5,223.5 C 203.194,226.385 203.527,229.052 204.5,231.5C 209.5,232.167 214.5,232.833 219.5,233.5C 214.167,233.5 208.833,233.5 203.5,233.5C 203.813,237.042 203.479,240.375 202.5,243.5C 202.176,236.646 202.509,229.979 203.5,223.5 Z"/></g>
<g><path style="opacity:1" fill="#0f4d89" d="M 182.5,216.5 C 187.569,220.1 188.736,224.767 186,230.5C 185.184,231.823 184.017,232.489 182.5,232.5C 178.167,232.5 173.833,232.5 169.5,232.5C 169.5,236.167 169.5,239.833 169.5,243.5C 166.167,243.5 162.833,243.5 159.5,243.5C 159.5,239.833 159.5,236.167 159.5,232.5C 154.489,232.666 149.489,232.499 144.5,232C 143.667,231.167 142.833,230.333 142,229.5C 141.333,226.167 141.333,222.833 142,219.5C 142.833,218.667 143.667,217.833 144.5,217C 157.162,216.5 169.829,216.333 182.5,216.5 Z"/></g>
<g><path style="opacity:1" fill="#d8e6f2" d="M 169.5,222.5 C 171.527,222.338 173.527,222.505 175.5,223C 176.833,224.333 176.833,225.667 175.5,227C 173.527,227.495 171.527,227.662 169.5,227.5C 169.5,225.833 169.5,224.167 169.5,222.5 Z"/></g>
<g><path style="opacity:1" fill="#d6e9f7" d="M 152.5,222.5 C 154.833,222.5 157.167,222.5 159.5,222.5C 159.5,224.167 159.5,225.833 159.5,227.5C 157.167,227.5 154.833,227.5 152.5,227.5C 152.5,225.833 152.5,224.167 152.5,222.5 Z"/></g>
<g><path style="opacity:1" fill="#f8fbf8" d="M 126.5,233.5 C 127.833,234.5 127.833,235.5 126.5,236.5C 121.5,236.5 116.5,236.5 111.5,236.5C 111.5,235.5 111.5,234.5 111.5,233.5C 116.5,233.5 121.5,233.5 126.5,233.5 Z"/></g>
<g><path style="opacity:1" fill="#90b1cb" d="M 182.5,232.5 C 178.702,233.483 174.702,233.817 170.5,233.5C 170.813,237.042 170.479,240.375 169.5,243.5C 169.5,239.833 169.5,236.167 169.5,232.5C 173.833,232.5 178.167,232.5 182.5,232.5 Z"/></g>
<g><path style="opacity:1" fill="#8098aa" d="M 6.5,255.5 C 6.5,255.167 6.5,254.833 6.5,254.5C 15.5246,254.168 24.5246,254.502 33.5,255.5C 33.3764,256.107 33.0431,256.44 32.5,256.5C 24.0161,255.507 15.3494,255.174 6.5,255.5 Z"/></g>
<g><path style="opacity:1" fill="#eef4f6" d="M 33.5,233.5 C 33.5,236.833 33.5,240.167 33.5,243.5C 37.8333,243.5 42.1667,243.5 46.5,243.5C 46.8333,243.5 47.1667,243.5 47.5,243.5C 45.3021,244.165 42.9688,244.832 40.5,245.5C 41.0253,246.192 41.6919,246.692 42.5,247C 39.4094,247.691 38.2428,249.524 39,252.5C 41.9991,251.198 44.8324,251.531 47.5,253.5C 52.0098,252.866 56.5098,252.199 61,251.5C 62.7491,251.748 63.5824,252.748 63.5,254.5C 55.3159,254.174 47.3159,254.508 39.5,255.5C 33.2983,259.549 32.965,264.049 38.5,269C 46.5,269.667 54.5,269.667 62.5,269C 63.1667,268.333 63.8333,267.667 64.5,267C 58.5,266.667 52.5,266.333 46.5,266C 43.8333,263.667 43.8333,261.333 46.5,259C 51.8333,258.667 57.1667,258.333 62.5,258C 63.056,257.617 63.3893,257.117 63.5,256.5C 64.3382,256.158 64.6716,255.492 64.5,254.5C 65.7791,253.032 67.4458,252.365 69.5,252.5C 69.6399,254.124 68.9733,255.29 67.5,256C 68.448,256.483 69.448,256.649 70.5,256.5C 69.852,260.916 68.852,265.249 67.5,269.5C 70.8499,269.665 74.1832,269.498 77.5,269C 78.132,265.73 78.7986,262.563 79.5,259.5C 82.5,259.5 85.5,259.5 88.5,259.5C 88.1872,263.042 88.5206,266.375 89.5,269.5C 92.5,269.5 95.5,269.5 98.5,269.5C 98.5,264.833 98.5,260.167 98.5,255.5C 90.1667,255.5 81.8333,255.5 73.5,255.5C 77.6533,254.834 81.9866,254.501 86.5,254.5C 91.4734,254.584 96.3068,255.251 101,256.5C 101.5,256.333 102,256.167 102.5,256C 101.692,255.692 101.025,255.192 100.5,254.5C 102.24,253.191 103.573,253.524 104.5,255.5C 99.2475,260.006 99.2475,264.506 104.5,269C 112.833,269.667 121.167,269.667 129.5,269C 129.957,268.586 130.291,268.086 130.5,267.5C 124.528,266.67 118.528,266.17 112.5,266C 109.833,263.667 109.833,261.333 112.5,259C 117.833,258.667 123.167,258.333 128.5,258C 129.167,257.333 129.833,256.667 130.5,256C 122.507,255.5 114.507,255.334 106.5,255.5C 115.372,254.21 124.372,254.21 133.5,255.5C 133.5,260.167 133.5,264.833 133.5,269.5C 136.5,269.5 139.5,269.5 142.5,269.5C 143.451,268.081 143.784,266.415 143.5,264.5C 146.833,264.5 150.167,264.5 153.5,264.5C 154.451,265.919 154.784,267.585 154.5,269.5C 157.5,269.5 160.5,269.5 163.5,269.5C 164.015,267.249 165.015,265.249 166.5,263.5C 167.215,265.755 168.548,267.588 170.5,269C 178.5,269.667 186.5,269.667 194.5,269C 199.791,264.423 199.791,259.923 194.5,255.5C 197.744,254.351 200.911,253.018 204,251.5C 206.507,253.155 209.341,253.989 212.5,254C 212.966,256.123 214.133,257.623 216,258.5C 218.535,257.465 221.035,256.465 223.5,255.5C 221.425,257.719 219.091,259.719 216.5,261.5C 214.147,259.477 211.814,257.477 209.5,255.5C 206.713,254.523 203.713,254.19 200.5,254.5C 200.5,259.833 200.5,265.167 200.5,270.5C 203.833,270.5 207.167,270.5 210.5,270.5C 210.194,267.615 210.527,264.948 211.5,262.5C 213.463,263.96 215.296,265.627 217,267.5C 219,265.5 221,263.5 223,261.5C 223.497,264.146 223.664,266.813 223.5,269.5C 228.311,270.756 233.311,271.256 238.5,271C 237.128,270.598 235.795,270.098 234.5,269.5C 233.507,264.88 233.173,260.214 233.5,255.5C 234.166,259.353 234.833,263.353 235.5,267.5C 236.726,266.637 238.06,266.637 239.5,267.5C 239.5,269.167 239.5,270.833 239.5,272.5C 159.5,272.5 79.5,272.5 -0.5,272.5C -0.5,268.5 -0.5,264.5 -0.5,260.5C 0.707917,261.234 2.04125,261.567 3.5,261.5C 3.5,259.5 3.5,257.5 3.5,255.5C 4.5,255.5 5.5,255.5 6.5,255.5C 6.0472,256.458 5.38053,257.292 4.5,258C 7.81677,258.498 11.1501,258.665 14.5,258.5C 14.5,262.167 14.5,265.833 14.5,269.5C 17.5,269.5 20.5,269.5 23.5,269.5C 23.5,265.833 23.5,262.167 23.5,258.5C 26.8375,258.935 29.8375,258.268 32.5,256.5C 33.0431,256.44 33.3764,256.107 33.5,255.5C 24.5246,254.502 15.5246,254.168 6.5,254.5C 11.039,253.735 15.7057,252.902 20.5,252C 19.1667,251.333 18.1667,250.333 17.5,249C 15.2852,248.83 13.2852,248.163 11.5,247C 12.6226,245.956 13.9559,245.29 15.5,245C 11.3123,244.824 7.31227,244.324 3.5,243.5C 7.83333,243.5 12.1667,243.5 16.5,243.5C 17.4794,240.375 17.8128,237.042 17.5,233.5C 22.8333,233.5 28.1667,233.5 33.5,233.5 Z"/></g>
<g><path style="opacity:1" fill="#0b4a85" d="M 209.5,255.5 C 211.814,257.477 214.147,259.477 216.5,261.5C 219.091,259.719 221.425,257.719 223.5,255.5C 226.5,255.5 229.5,255.5 232.5,255.5C 232.5,260.167 232.5,264.833 232.5,269.5C 229.5,269.5 226.5,269.5 223.5,269.5C 223.664,266.813 223.497,264.146 223,261.5C 221,263.5 219,265.5 217,267.5C 215.296,265.627 213.463,263.96 211.5,262.5C 211.44,261.957 211.107,261.624 210.5,261.5C 209.52,264.086 209.187,266.753 209.5,269.5C 206.833,269.5 204.167,269.5 201.5,269.5C 201.5,264.833 201.5,260.167 201.5,255.5C 204.167,255.5 206.833,255.5 209.5,255.5 Z"/></g>
<g><path style="opacity:1" fill="#bfd1dd" d="M 154.5,255.5 C 157.625,254.521 160.958,254.187 164.5,254.5C 163.99,257.388 164.656,259.721 166.5,261.5C 166.5,262.167 166.5,262.833 166.5,263.5C 165.015,265.249 164.015,267.249 163.5,269.5C 164.041,266.348 163.041,263.848 160.5,262C 162.919,260.491 163.919,258.325 163.5,255.5C 160.5,255.5 157.5,255.5 154.5,255.5 Z"/></g>
<g><path style="opacity:1" fill="#96b2d0" d="M 114.5,261.5 C 118.351,260.191 122.351,260.191 126.5,261.5C 126.376,262.107 126.043,262.44 125.5,262.5C 122.038,261.518 118.371,261.185 114.5,261.5 Z"/></g>
<g><path style="opacity:1" fill="#114b86" d="M 39.5,255.5 C 47.6841,255.174 55.6841,255.508 63.5,256.5C 63.3893,257.117 63.056,257.617 62.5,258C 57.1667,258.333 51.8333,258.667 46.5,259C 43.8333,261.333 43.8333,263.667 46.5,266C 52.5,266.333 58.5,266.667 64.5,267C 63.8333,267.667 63.1667,268.333 62.5,269C 54.5,269.667 46.5,269.667 38.5,269C 32.965,264.049 33.2983,259.549 39.5,255.5 Z"/></g>
<g><path style="opacity:1" fill="#0d4b87" d="M 73.5,255.5 C 81.8333,255.5 90.1667,255.5 98.5,255.5C 98.5,260.167 98.5,264.833 98.5,269.5C 95.5,269.5 92.5,269.5 89.5,269.5C 89.5,265.833 89.5,262.167 89.5,258.5C 85.9581,258.187 82.6248,258.521 79.5,259.5C 78.7986,262.563 78.132,265.73 77.5,269C 74.1832,269.498 70.8499,269.665 67.5,269.5C 68.852,265.249 69.852,260.916 70.5,256.5C 71.391,255.89 72.391,255.557 73.5,255.5 Z"/></g>
<g><path style="opacity:1" fill="#0d4984" d="M 6.5,255.5 C 15.3494,255.174 24.0161,255.507 32.5,256.5C 29.8375,258.268 26.8375,258.935 23.5,258.5C 23.5,262.167 23.5,265.833 23.5,269.5C 20.5,269.5 17.5,269.5 14.5,269.5C 14.5,265.833 14.5,262.167 14.5,258.5C 11.1501,258.665 7.81677,258.498 4.5,258C 5.38053,257.292 6.0472,256.458 6.5,255.5 Z"/></g>
<g><path style="opacity:1" fill="#8095a7" d="M 39.5,255.5 C 47.3159,254.508 55.3159,254.174 63.5,254.5C 63.8333,254.5 64.1667,254.5 64.5,254.5C 64.6716,255.492 64.3382,256.158 63.5,256.5C 55.6841,255.508 47.6841,255.174 39.5,255.5 Z"/></g>
<g><path style="opacity:1" fill="#2a507f" d="M 47.5,261.5 C 51.5138,261.334 55.5138,261.501 59.5,262C 59.0426,262.414 58.7093,262.914 58.5,263.5C 54.5,264.833 50.5,264.833 46.5,263.5C 46.8627,262.817 47.1961,262.15 47.5,261.5 Z"/></g>
<g><path style="opacity:1" fill="#0f3c71" d="M 114.5,261.5 C 118.371,261.185 122.038,261.518 125.5,262.5C 125.5,263.167 125.167,263.5 124.5,263.5C 120.629,263.815 116.962,263.482 113.5,262.5C 113.5,261.833 113.833,261.5 114.5,261.5 Z"/></g>
<g><path style="opacity:1" fill="#82a4c8" d="M 133.5,255.5 C 136.625,254.521 139.958,254.187 143.5,254.5C 143.194,257.385 143.527,260.052 144.5,262.5C 147.5,263.167 150.5,263.833 153.5,264.5C 150.167,264.5 146.833,264.5 143.5,264.5C 143.784,266.415 143.451,268.081 142.5,269.5C 142.5,264.833 142.5,260.167 142.5,255.5C 139.5,255.5 136.5,255.5 133.5,255.5 Z"/></g>
<g><path style="opacity:1" fill="#0e4984" d="M 154.5,255.5 C 157.5,255.5 160.5,255.5 163.5,255.5C 163.919,258.325 162.919,260.491 160.5,262C 163.041,263.848 164.041,266.348 163.5,269.5C 160.5,269.5 157.5,269.5 154.5,269.5C 154.784,267.585 154.451,265.919 153.5,264.5C 150.5,263.833 147.5,263.167 144.5,262.5C 147.413,261.759 150.413,261.259 153.5,261C 154.406,259.301 154.739,257.467 154.5,255.5 Z"/></g>
<g><path style="opacity:1" fill="#698cab" d="M 113.5,262.5 C 116.962,263.482 120.629,263.815 124.5,263.5C 120.649,264.809 116.649,264.809 112.5,263.5C 112.624,262.893 112.957,262.56 113.5,262.5 Z"/></g>
<g><path style="opacity:1" fill="#104a84" d="M 133.5,255.5 C 136.5,255.5 139.5,255.5 142.5,255.5C 142.5,260.167 142.5,264.833 142.5,269.5C 139.5,269.5 136.5,269.5 133.5,269.5C 133.5,264.833 133.5,260.167 133.5,255.5 Z"/></g>
<g><path style="opacity:1" fill="#b1cfe9" d="M 79.5,259.5 C 82.6248,258.521 85.9581,258.187 89.5,258.5C 89.5,262.167 89.5,265.833 89.5,269.5C 88.5206,266.375 88.1872,263.042 88.5,259.5C 85.5,259.5 82.5,259.5 79.5,259.5 Z"/></g>
<g><path style="opacity:1" fill="#154b85" d="M 104.5,255.5 C 105.167,255.5 105.833,255.5 106.5,255.5C 114.507,255.334 122.507,255.5 130.5,256C 129.833,256.667 129.167,257.333 128.5,258C 123.167,258.333 117.833,258.667 112.5,259C 109.833,261.333 109.833,263.667 112.5,266C 118.528,266.17 124.528,266.67 130.5,267.5C 130.291,268.086 129.957,268.586 129.5,269C 121.167,269.667 112.833,269.667 104.5,269C 99.2475,264.506 99.2475,260.006 104.5,255.5 Z"/></g>
<g><path style="opacity:1" fill="#0c4781" d="M 194.5,255.5 C 199.791,259.923 199.791,264.423 194.5,269C 186.5,269.667 178.5,269.667 170.5,269C 168.548,267.588 167.215,265.755 166.5,263.5C 166.5,262.833 166.5,262.167 166.5,261.5C 166.84,259.321 167.84,257.488 169.5,256C 177.827,255.5 186.16,255.334 194.5,255.5 Z"/></g>
<g><path style="opacity:1" fill="#e3f1f7" d="M 177.5,258.5 C 180.85,258.335 184.183,258.502 187.5,259C 190.167,261.333 190.167,263.667 187.5,266C 184.167,266.667 180.833,266.667 177.5,266C 174.914,263.506 174.914,261.006 177.5,258.5 Z"/></g>
<g><path style="opacity:1" fill="#7493b1" d="M 209.5,255.5 C 206.833,255.5 204.167,255.5 201.5,255.5C 201.5,260.167 201.5,264.833 201.5,269.5C 204.167,269.5 206.833,269.5 209.5,269.5C 209.187,266.753 209.52,264.086 210.5,261.5C 211.107,261.624 211.44,261.957 211.5,262.5C 210.527,264.948 210.194,267.615 210.5,270.5C 207.167,270.5 203.833,270.5 200.5,270.5C 200.5,265.167 200.5,259.833 200.5,254.5C 203.713,254.19 206.713,254.523 209.5,255.5 Z"/></g>
<g><path style="opacity:1" fill="#c9d7e6" d="M 232.5,255.5 C 232.833,255.5 233.167,255.5 233.5,255.5C 233.173,260.214 233.507,264.88 234.5,269.5C 235.795,270.098 237.128,270.598 238.5,271C 233.311,271.256 228.311,270.756 223.5,269.5C 226.5,269.5 229.5,269.5 232.5,269.5C 232.5,264.833 232.5,260.167 232.5,255.5 Z"/></g>
</svg>
