<?xml version="1.0" encoding="UTF-8"?>
<!DOCTYPE svg PUBLIC "-//W3C//DTD SVG 1.1//EN" "http://www.w3.org/Graphics/SVG/1.1/DTD/svg11.dtd">
<svg xmlns="http://www.w3.org/2000/svg" version="1.1" width="670px" height="600px" style="shape-rendering:geometricPrecision; text-rendering:geometricPrecision; image-rendering:optimizeQuality; fill-rule:evenodd; clip-rule:evenodd" xmlns:xlink="http://www.w3.org/1999/xlink">
<g><path style="opacity:1" fill="#fefefe" d="M -0.5,-0.5 C 222.833,-0.5 446.167,-0.5 669.5,-0.5C 669.5,62.5 669.5,125.5 669.5,188.5C 630.5,188.5 591.5,188.5 552.5,188.5C 552.667,155.498 552.5,122.498 552,89.5C 550.586,90.4132 549.086,90.4132 547.5,89.5C 478.548,61.8629 409.882,33.3629 341.5,4C 337.553,2.51621 333.553,1.34954 329.5,0.5C 323.931,1.1154 318.597,2.6154 313.5,5C 277.171,19.8385 241.171,35.1718 205.5,51C 172.408,64.2226 139.408,77.3892 106.5,90.5C 106.5,123.167 106.5,155.833 106.5,188.5C 70.8333,188.5 35.1667,188.5 -0.5,188.5C -0.5,125.5 -0.5,62.5 -0.5,-0.5 Z"/></g>
<g><path style="opacity:1" fill="#c6c6c6" d="M 329.5,0.5 C 329.5,16.1667 329.5,31.8333 329.5,47.5C 326.027,47.5758 322.694,48.2424 319.5,49.5C 312.959,49.552 307.626,51.8853 303.5,56.5C 300.558,57.3045 297.891,58.6378 295.5,60.5C 293.03,60.6535 291.03,61.6535 289.5,63.5C 288.833,63.5 288.167,63.5 287.5,63.5C 280.916,65.4134 274.25,67.2467 267.5,69C 261.695,71.9616 255.695,74.6283 249.5,77C 248.619,77.7083 247.953,78.5416 247.5,79.5C 245.046,79.3205 242.879,79.9872 241,81.5C 239.079,79.9972 236.912,79.3305 234.5,79.5C 234.67,80.8221 234.337,81.9887 233.5,83C 230.111,82.8127 226.778,82.9794 223.5,83.5C 224.689,84.4287 226.022,84.762 227.5,84.5C 227.719,85.675 227.386,86.675 226.5,87.5C 220.634,87.5892 215.301,89.2559 210.5,92.5C 209.614,93.325 209.281,94.325 209.5,95.5C 207.143,95.3367 204.81,95.5034 202.5,96C 200.76,97.517 199.094,99.017 197.5,100.5C 194.161,100.89 190.827,101.39 187.5,102C 183.381,104.498 179.381,106.998 175.5,109.5C 174.833,110.167 174.167,110.833 173.5,111.5C 172.833,111.5 172.167,111.5 171.5,111.5C 169.143,111.337 166.81,111.503 164.5,112C 162.602,113.417 160.936,114.917 159.5,116.5C 155.541,116.071 152.041,117.071 149,119.5C 148.326,118.422 147.326,117.755 146,117.5C 142.805,118.583 140.471,120.583 139,123.5C 139.124,144.964 139.624,166.297 140.5,187.5C 140.328,188.492 140.662,189.158 141.5,189.5C 141.369,190.376 141.702,191.043 142.5,191.5C 204.294,190.837 265.961,190.17 327.5,189.5C 390.5,189.5 453.5,189.5 516.5,189.5C 528.167,189.5 539.833,189.5 551.5,189.5C 590.833,189.5 630.167,189.5 669.5,189.5C 669.5,263.5 669.5,337.5 669.5,411.5C 624.282,410.847 579.282,411.513 534.5,413.5C 521.876,411.519 508.876,410.852 495.5,411.5C 493.453,409.657 490.953,408.324 488,407.5C 486.933,408.191 485.766,408.691 484.5,409C 429.501,409.5 374.501,409.667 319.5,409.5C 295.843,408.167 271.843,407.5 247.5,407.5C 223.157,407.5 199.157,408.167 175.5,409.5C 172.287,409.19 169.287,409.523 166.5,410.5C 165.167,410.5 163.833,410.5 162.5,410.5C 162.579,411.93 162.246,413.264 161.5,414.5C 163.131,416.22 164.297,418.22 165,420.5C 165.671,421.252 166.504,421.586 167.5,421.5C 170.186,424.903 172.853,428.236 175.5,431.5C 178.5,436.833 181.5,442.167 184.5,447.5C 187.271,451.381 189.271,455.715 190.5,460.5C 193.141,461.626 195.807,462.959 198.5,464.5C 199.098,465.795 199.598,467.128 200,468.5C 205.019,472.359 209.852,476.359 214.5,480.5C 215.8,484.987 218.8,487.32 223.5,487.5C 226.473,489.147 229.14,491.147 231.5,493.5C 233.86,495.853 236.527,497.853 239.5,499.5C 239.5,499.833 239.5,500.167 239.5,500.5C 239.281,501.675 239.614,502.675 240.5,503.5C 244.848,505.069 248.514,507.569 251.5,511C 252.793,511.49 254.127,511.657 255.5,511.5C 259.627,516.592 264.294,521.259 269.5,525.5C 272.829,525.48 276.162,526.147 279.5,527.5C 280.159,531.994 282.825,533.661 287.5,532.5C 287.762,533.978 287.429,535.311 286.5,536.5C 281.016,532.941 277.016,534.108 274.5,540C 273.552,540.483 272.552,540.649 271.5,540.5C 271.5,541.5 271.5,542.5 271.5,543.5C 274.829,543.736 277.829,542.903 280.5,541C 283.817,540.502 287.15,540.335 290.5,540.5C 290.5,539.5 290.5,538.5 290.5,537.5C 294.384,537.424 298.05,538.09 301.5,539.5C 305.412,541.692 309.412,543.692 313.5,545.5C 318.17,549.164 323.504,551.164 329.5,551.5C 329.5,567.5 329.5,583.5 329.5,599.5C 328.167,599.5 326.833,599.5 325.5,599.5C 279.276,577.865 236.609,550.365 197.5,517C 178.697,499.248 161.864,479.748 147,458.5C 137.199,443.561 129.032,427.894 122.5,411.5C 81.5,411.5 40.5,411.5 -0.5,411.5C -0.5,337.167 -0.5,262.833 -0.5,188.5C 35.1667,188.5 70.8333,188.5 106.5,188.5C 106.5,155.833 106.5,123.167 106.5,90.5C 139.408,77.3892 172.408,64.2226 205.5,51C 241.171,35.1718 277.171,19.8385 313.5,5C 318.597,2.6154 323.931,1.1154 329.5,0.5 Z"/></g>
<g><path style="opacity:1" fill="#a4a4a4" d="M 329.5,0.5 C 333.553,1.34954 337.553,2.51621 341.5,4C 409.882,33.3629 478.548,61.8629 547.5,89.5C 548.287,91.1042 549.62,91.7709 551.5,91.5C 551.5,124.167 551.5,156.833 551.5,189.5C 539.833,189.5 528.167,189.5 516.5,189.5C 516.5,189.167 516.5,188.833 516.5,188.5C 518.948,188.915 520.281,187.915 520.5,185.5C 519.689,164.858 519.189,144.191 519,123.5C 512.782,121.049 506.615,118.216 500.5,115C 496.046,114.065 491.713,112.898 487.5,111.5C 487.167,111.5 486.833,111.5 486.5,111.5C 486.577,108.491 485.244,106.324 482.5,105C 480.717,104.768 479.05,105.268 477.5,106.5C 473.264,103.783 468.597,102.45 463.5,102.5C 463.5,101.167 463.5,99.8333 463.5,98.5C 458.132,97.4275 452.799,96.4275 447.5,95.5C 425.218,87.1976 403.218,78.031 381.5,68C 376.846,66.3928 372.179,64.8928 367.5,63.5C 367.5,63.1667 367.5,62.8333 367.5,62.5C 367.5,61.5 367.5,60.5 367.5,59.5C 364.2,58.7247 361.2,57.2247 358.5,55C 354.781,54.6116 351.114,53.9449 347.5,53C 346.663,51.9887 346.33,50.8221 346.5,49.5C 343.615,49.1936 340.948,49.5269 338.5,50.5C 335.743,48.9143 332.743,47.9143 329.5,47.5C 329.5,31.8333 329.5,16.1667 329.5,0.5 Z"/></g>
<g><path style="opacity:1" fill="#aecadf" d="M 319.5,49.5 C 314.375,52.2121 309.042,54.5454 303.5,56.5C 307.626,51.8853 312.959,49.552 319.5,49.5 Z"/></g>
<g><path style="opacity:1" fill="#1771af" d="M 329.5,47.5 C 329.5,47.8333 329.5,48.1667 329.5,48.5C 329.5,51.1667 329.5,53.8333 329.5,56.5C 329.5,58.8333 329.5,61.1667 329.5,63.5C 328.833,100.833 328.167,138.167 327.5,175.5C 327.5,138.167 327.5,100.833 327.5,63.5C 325.469,60.4873 325.135,57.3206 326.5,54C 323.297,51.7169 320.964,52.3835 319.5,56C 320.748,58.4097 321.748,60.9097 322.5,63.5C 321.5,63.5 320.5,63.5 319.5,63.5C 319.5,62.5 319.5,61.5 319.5,60.5C 318.167,60.5 316.833,60.5 315.5,60.5C 315.5,61.5 315.5,62.5 315.5,63.5C 313.473,63.6621 311.473,63.4955 309.5,63C 311.493,60.2528 313.993,58.0862 317,56.5C 317.612,54.7627 316.946,53.7627 315,53.5C 310.719,53.9482 308.219,56.2815 307.5,60.5C 303.593,60.1434 299.593,60.1434 295.5,60.5C 297.891,58.6378 300.558,57.3045 303.5,56.5C 309.042,54.5454 314.375,52.2121 319.5,49.5C 322.694,48.2424 326.027,47.5758 329.5,47.5 Z"/></g>
<g><path style="opacity:1" fill="#90a1ab" d="M 338.5,50.5 C 340.948,49.5269 343.615,49.1936 346.5,49.5C 346.33,50.8221 346.663,51.9887 347.5,53C 351.114,53.9449 354.781,54.6116 358.5,55C 361.2,57.2247 364.2,58.7247 367.5,59.5C 367.5,60.5 367.5,61.5 367.5,62.5C 357.725,58.7795 348.058,54.7795 338.5,50.5 Z"/></g>
<g><path style="opacity:1" fill="#0070b7" d="M 319.5,63.5 C 319.5,100.833 319.5,138.167 319.5,175.5C 260.833,175.5 202.167,175.5 143.5,175.5C 143.167,175.5 142.833,175.5 142.5,175.5C 142.209,158.465 142.542,141.465 143.5,124.5C 147.26,125.226 149.927,123.893 151.5,120.5C 154.167,120.5 156.833,120.5 159.5,120.5C 159.5,119.5 159.5,118.5 159.5,117.5C 159.5,117.167 159.5,116.833 159.5,116.5C 163.576,114.814 167.576,113.147 171.5,111.5C 172.167,111.5 172.833,111.5 173.5,111.5C 178.841,111.879 183.841,110.879 188.5,108.5C 189.167,108.833 189.833,109.167 190.5,109.5C 191.452,107.955 191.785,106.288 191.5,104.5C 194.963,103.901 198.296,102.901 201.5,101.5C 205.584,99.8829 209.917,99.0495 214.5,99C 215.337,97.9887 215.67,96.8221 215.5,95.5C 219.468,94.1886 223.468,92.8552 227.5,91.5C 230.006,91.2207 232.006,92.0541 233.5,94C 235.5,94.6667 237.5,94.6667 239.5,94C 231.715,92.4421 231.715,91.1087 239.5,90C 237.833,89.6667 236.167,89.3333 234.5,89C 236.271,87.4756 237.938,85.9756 239.5,84.5C 242.167,82.8333 244.833,81.1667 247.5,79.5C 248.5,79.5 249.5,79.5 250.5,79.5C 258.235,78.7657 265.235,76.099 271.5,71.5C 276.547,68.262 281.88,65.5953 287.5,63.5C 288.167,63.5 288.833,63.5 289.5,63.5C 292.077,63.5449 294.077,62.5449 295.5,60.5C 299.593,60.1434 303.593,60.1434 307.5,60.5C 308.219,56.2815 310.719,53.9482 315,53.5C 316.946,53.7627 317.612,54.7627 317,56.5C 313.993,58.0862 311.493,60.2528 309.5,63C 311.473,63.4955 313.473,63.6621 315.5,63.5C 315.5,62.5 315.5,61.5 315.5,60.5C 316.833,60.5 318.167,60.5 319.5,60.5C 319.5,61.5 319.5,62.5 319.5,63.5 Z"/></g>
<g><path style="opacity:1" fill="#024a79" d="M 329.5,48.5 C 332.734,50.0617 336.067,51.5617 339.5,53C 340.743,54.1545 341.743,55.4878 342.5,57C 349.555,56.7964 355.888,58.7964 361.5,63C 363.473,63.4955 365.473,63.6621 367.5,63.5C 372.179,64.8928 376.846,66.3928 381.5,68C 403.218,78.031 425.218,87.1976 447.5,95.5C 452.776,97.8284 458.11,100.162 463.5,102.5C 468.833,104.833 474.167,107.167 479.5,109.5C 478.84,114.14 480.507,115.473 484.5,113.5C 489.344,115.642 494.344,117.475 499.5,119C 502.424,123.036 506.424,124.87 511.5,124.5C 511.5,125.5 511.5,126.5 511.5,127.5C 511.5,143.5 511.5,159.5 511.5,175.5C 452.833,175.5 394.167,175.5 335.5,175.5C 334.375,136.503 334.375,97.5034 335.5,58.5C 333.5,57.8333 331.5,57.1667 329.5,56.5C 329.5,53.8333 329.5,51.1667 329.5,48.5 Z"/></g>
<g><path style="opacity:1" fill="#194b6d" d="M 329.5,48.5 C 329.5,48.1667 329.5,47.8333 329.5,47.5C 332.743,47.9143 335.743,48.9143 338.5,50.5C 348.058,54.7795 357.725,58.7795 367.5,62.5C 367.5,62.8333 367.5,63.1667 367.5,63.5C 365.473,63.6621 363.473,63.4955 361.5,63C 355.888,58.7964 349.555,56.7964 342.5,57C 341.743,55.4878 340.743,54.1545 339.5,53C 336.067,51.5617 332.734,50.0617 329.5,48.5 Z"/></g>
<g><path style="opacity:1" fill="#3b7b9b" d="M 295.5,60.5 C 294.077,62.5449 292.077,63.5449 289.5,63.5C 291.03,61.6535 293.03,60.6535 295.5,60.5 Z"/></g>
<g><path style="opacity:1" fill="#024b77" d="M 329.5,56.5 C 331.5,57.1667 333.5,57.8333 335.5,58.5C 334.375,97.5034 334.375,136.503 335.5,175.5C 394.167,175.5 452.833,175.5 511.5,175.5C 452.842,177.33 393.842,178.164 334.5,178C 331.949,179.516 332.282,180.349 335.5,180.5C 333.735,181.461 331.735,181.795 329.5,181.5C 329.5,142.167 329.5,102.833 329.5,63.5C 329.5,61.1667 329.5,58.8333 329.5,56.5 Z"/></g>
<g><path style="opacity:1" fill="#aac5d5" d="M 287.5,63.5 C 281.88,65.5953 276.547,68.262 271.5,71.5C 263.998,73.114 256.998,75.7807 250.5,79.5C 249.5,79.5 248.5,79.5 247.5,79.5C 247.953,78.5416 248.619,77.7083 249.5,77C 255.695,74.6283 261.695,71.9616 267.5,69C 274.25,67.2467 280.916,65.4134 287.5,63.5 Z"/></g>
<g><path style="opacity:1" fill="#29729c" d="M 271.5,71.5 C 265.235,76.099 258.235,78.7657 250.5,79.5C 256.998,75.7807 263.998,73.114 271.5,71.5 Z"/></g>
<g><path style="opacity:1" fill="#b2c5d0" d="M 247.5,79.5 C 244.833,81.1667 242.167,82.8333 239.5,84.5C 229.295,87.7886 219.295,91.4553 209.5,95.5C 209.281,94.325 209.614,93.325 210.5,92.5C 215.301,89.2559 220.634,87.5892 226.5,87.5C 227.386,86.675 227.719,85.675 227.5,84.5C 226.022,84.762 224.689,84.4287 223.5,83.5C 226.778,82.9794 230.111,82.8127 233.5,83C 234.337,81.9887 234.67,80.8221 234.5,79.5C 236.912,79.3305 239.079,79.9972 241,81.5C 242.879,79.9872 245.046,79.3205 247.5,79.5 Z"/></g>
<g><path style="opacity:1" fill="#196fad" d="M 239.5,84.5 C 237.938,85.9756 236.271,87.4756 234.5,89C 236.167,89.3333 237.833,89.6667 239.5,90C 231.715,91.1087 231.715,92.4421 239.5,94C 237.5,94.6667 235.5,94.6667 233.5,94C 232.006,92.0541 230.006,91.2207 227.5,91.5C 223.468,92.8552 219.468,94.1886 215.5,95.5C 215.67,96.8221 215.337,97.9887 214.5,99C 209.917,99.0495 205.584,99.8829 201.5,101.5C 201.5,100.833 201.5,100.167 201.5,99.5C 204.254,98.3586 206.921,97.0252 209.5,95.5C 219.295,91.4553 229.295,87.7886 239.5,84.5 Z"/></g>
<g><path style="opacity:1" fill="#859fb1" d="M 447.5,95.5 C 452.799,96.4275 458.132,97.4275 463.5,98.5C 463.5,99.8333 463.5,101.167 463.5,102.5C 458.11,100.162 452.776,97.8284 447.5,95.5 Z"/></g>
<g><path style="opacity:1" fill="#abc8e1" d="M 209.5,95.5 C 206.921,97.0252 204.254,98.3586 201.5,99.5C 200.167,99.8333 198.833,100.167 197.5,100.5C 199.094,99.017 200.76,97.517 202.5,96C 204.81,95.5034 207.143,95.3367 209.5,95.5 Z"/></g>
<g><path style="opacity:1" fill="#0070bd" d="M 327.5,63.5 C 325.506,100.485 324.84,137.818 325.5,175.5C 324.5,175.5 323.5,175.5 322.5,175.5C 323.833,138.167 323.833,100.833 322.5,63.5C 321.748,60.9097 320.748,58.4097 319.5,56C 320.964,52.3835 323.297,51.7169 326.5,54C 325.135,57.3206 325.469,60.4873 327.5,63.5 Z"/></g>
<g><path style="opacity:1" fill="#2e73a4" d="M 201.5,99.5 C 201.5,100.167 201.5,100.833 201.5,101.5C 198.296,102.901 194.963,103.901 191.5,104.5C 191.785,106.288 191.452,107.955 190.5,109.5C 189.833,109.167 189.167,108.833 188.5,108.5C 183.841,110.879 178.841,111.879 173.5,111.5C 174.167,110.833 174.833,110.167 175.5,109.5C 183.129,107.012 190.462,104.012 197.5,100.5C 198.833,100.167 200.167,99.8333 201.5,99.5 Z"/></g>
<g><path style="opacity:1" fill="#adc4da" d="M 197.5,100.5 C 190.462,104.012 183.129,107.012 175.5,109.5C 179.381,106.998 183.381,104.498 187.5,102C 190.827,101.39 194.161,100.89 197.5,100.5 Z"/></g>
<g><path style="opacity:1" fill="#90a1aa" d="M 463.5,102.5 C 468.597,102.45 473.264,103.783 477.5,106.5C 479.05,105.268 480.717,104.768 482.5,105C 485.244,106.324 486.577,108.491 486.5,111.5C 484.079,111.122 481.746,110.455 479.5,109.5C 474.167,107.167 468.833,104.833 463.5,102.5 Z"/></g>
<g><path style="opacity:1" fill="#a5c8e1" d="M 171.5,111.5 C 167.576,113.147 163.576,114.814 159.5,116.5C 160.936,114.917 162.602,113.417 164.5,112C 166.81,111.503 169.143,111.337 171.5,111.5 Z"/></g>
<g><path style="opacity:1" fill="#2a7ba4" d="M 159.5,117.5 C 159.5,118.5 159.5,119.5 159.5,120.5C 156.833,120.5 154.167,120.5 151.5,120.5C 153.755,118.62 156.422,117.62 159.5,117.5 Z"/></g>
<g><path style="opacity:1" fill="#baccd8" d="M 159.5,116.5 C 159.5,116.833 159.5,117.167 159.5,117.5C 156.422,117.62 153.755,118.62 151.5,120.5C 147.873,121.321 144.54,122.654 141.5,124.5C 140.503,145.327 140.169,166.327 140.5,187.5C 139.624,166.297 139.124,144.964 139,123.5C 140.471,120.583 142.805,118.583 146,117.5C 147.326,117.755 148.326,118.422 149,119.5C 152.041,117.071 155.541,116.071 159.5,116.5 Z"/></g>
<g><path style="opacity:1" fill="#0270b4" d="M 319.5,63.5 C 320.5,63.5 321.5,63.5 322.5,63.5C 323.833,100.833 323.833,138.167 322.5,175.5C 323.5,175.5 324.5,175.5 325.5,175.5C 324.84,137.818 325.506,100.485 327.5,63.5C 327.5,100.833 327.5,138.167 327.5,175.5C 328.379,177.24 328.379,179.24 327.5,181.5C 327.67,180.178 327.337,179.011 326.5,178C 300.159,177.242 273.825,177.409 247.5,178.5C 212.492,178.225 177.825,177.225 143.5,175.5C 202.167,175.5 260.833,175.5 319.5,175.5C 319.5,138.167 319.5,100.833 319.5,63.5 Z"/></g>
<g><path style="opacity:1" fill="#134a6e" d="M 479.5,109.5 C 481.746,110.455 484.079,111.122 486.5,111.5C 486.833,111.5 487.167,111.5 487.5,111.5C 488.058,112.79 489.058,113.623 490.5,114C 499.307,117.24 507.973,120.74 516.5,124.5C 516.5,145.833 516.5,167.167 516.5,188.5C 454.167,188.5 391.833,188.5 329.5,188.5C 329.5,188.167 329.5,187.833 329.5,187.5C 390.336,187.832 451.002,187.499 511.5,186.5C 512.458,186.047 513.292,185.381 514,184.5C 514.167,175 514.333,165.5 514.5,156C 514.498,146.142 513.832,136.642 512.5,127.5C 512.167,127.5 511.833,127.5 511.5,127.5C 511.5,126.5 511.5,125.5 511.5,124.5C 506.424,124.87 502.424,123.036 499.5,119C 494.344,117.475 489.344,115.642 484.5,113.5C 480.507,115.473 478.84,114.14 479.5,109.5 Z"/></g>
<g><path style="opacity:1" fill="#8d9fac" d="M 487.5,111.5 C 491.713,112.898 496.046,114.065 500.5,115C 506.615,118.216 512.782,121.049 519,123.5C 519.189,144.191 519.689,164.858 520.5,185.5C 520.281,187.915 518.948,188.915 516.5,188.5C 516.5,167.167 516.5,145.833 516.5,124.5C 507.973,120.74 499.307,117.24 490.5,114C 489.058,113.623 488.058,112.79 487.5,111.5 Z"/></g>
<g><path style="opacity:1" fill="#004c82" d="M 511.5,127.5 C 511.833,127.5 512.167,127.5 512.5,127.5C 512.201,144.691 512.535,161.858 513.5,179C 513.613,180.699 512.947,181.866 511.5,182.5C 453.176,180.504 394.509,179.837 335.5,180.5C 332.282,180.349 331.949,179.516 334.5,178C 393.842,178.164 452.842,177.33 511.5,175.5C 511.5,159.5 511.5,143.5 511.5,127.5 Z"/></g>
<g><path style="opacity:1" fill="#054a72" d="M 335.5,180.5 C 394.509,179.837 453.176,180.504 511.5,182.5C 451.509,184.496 391.176,185.163 330.5,184.5C 330.167,184.5 329.833,184.5 329.5,184.5C 329.5,183.5 329.5,182.5 329.5,181.5C 331.735,181.795 333.735,181.461 335.5,180.5 Z"/></g>
<g><path style="opacity:1" fill="#004b7b" d="M 512.5,127.5 C 513.832,136.642 514.498,146.142 514.5,156C 514.333,165.5 514.167,175 514,184.5C 513.292,185.381 512.458,186.047 511.5,186.5C 451.167,185.833 390.833,185.167 330.5,184.5C 391.176,185.163 451.509,184.496 511.5,182.5C 512.947,181.866 513.613,180.699 513.5,179C 512.535,161.858 512.201,144.691 512.5,127.5 Z"/></g>
<g><path style="opacity:1" fill="#004b83" d="M 329.5,184.5 C 329.833,184.5 330.167,184.5 330.5,184.5C 390.833,185.167 451.167,185.833 511.5,186.5C 451.002,187.499 390.336,187.832 329.5,187.5C 329.5,186.5 329.5,185.5 329.5,184.5 Z"/></g>
<g><path style="opacity:1" fill="#166ca4" d="M 329.5,63.5 C 329.5,102.833 329.5,142.167 329.5,181.5C 329.5,182.5 329.5,183.5 329.5,184.5C 329.5,185.5 329.5,186.5 329.5,187.5C 329.5,187.833 329.5,188.167 329.5,188.5C 266.833,188.5 204.167,188.5 141.5,188.5C 141.5,167.167 141.5,145.833 141.5,124.5C 144.54,122.654 147.873,121.321 151.5,120.5C 149.927,123.893 147.26,125.226 143.5,124.5C 142.542,141.465 142.209,158.465 142.5,175.5C 142.5,177.833 142.5,180.167 142.5,182.5C 142.286,184.144 142.62,185.644 143.5,187C 204.836,187.833 266.169,187.667 327.5,186.5C 326.088,184.803 325.754,183.136 326.5,181.5C 326.833,181.5 327.167,181.5 327.5,181.5C 328.379,179.24 328.379,177.24 327.5,175.5C 328.167,138.167 328.833,100.833 329.5,63.5 Z"/></g>
<g><path style="opacity:1" fill="#046eb3" d="M 326.5,181.5 C 325.754,183.136 326.088,184.803 327.5,186.5C 266.169,187.667 204.836,187.833 143.5,187C 142.62,185.644 142.286,184.144 142.5,182.5C 203.94,181.509 265.273,181.176 326.5,181.5 Z"/></g>
<g><path style="opacity:1" fill="#0070bd" d="M 142.5,175.5 C 142.833,175.5 143.167,175.5 143.5,175.5C 177.825,177.225 212.492,178.225 247.5,178.5C 273.825,177.409 300.159,177.242 326.5,178C 327.337,179.011 327.67,180.178 327.5,181.5C 327.167,181.5 326.833,181.5 326.5,181.5C 265.273,181.176 203.94,181.509 142.5,182.5C 142.5,180.167 142.5,177.833 142.5,175.5 Z"/></g>
<g><path style="opacity:1" fill="#6897b8" d="M 141.5,124.5 C 141.5,145.833 141.5,167.167 141.5,188.5C 204.167,188.5 266.833,188.5 329.5,188.5C 391.833,188.5 454.167,188.5 516.5,188.5C 516.5,188.833 516.5,189.167 516.5,189.5C 453.5,189.5 390.5,189.5 327.5,189.5C 265.5,189.5 203.5,189.5 141.5,189.5C 140.662,189.158 140.328,188.492 140.5,187.5C 140.169,166.327 140.503,145.327 141.5,124.5 Z"/></g>
<g><path style="opacity:1" fill="#e3e3e3" d="M 547.5,89.5 C 549.086,90.4132 550.586,90.4132 552,89.5C 552.5,122.498 552.667,155.498 552.5,188.5C 591.5,188.5 630.5,188.5 669.5,188.5C 669.5,188.833 669.5,189.167 669.5,189.5C 630.167,189.5 590.833,189.5 551.5,189.5C 551.5,156.833 551.5,124.167 551.5,91.5C 549.62,91.7709 548.287,91.1042 547.5,89.5 Z"/></g>
<g><path style="opacity:1" fill="#b7c8da" d="M 141.5,189.5 C 203.5,189.5 265.5,189.5 327.5,189.5C 265.961,190.17 204.294,190.837 142.5,191.5C 141.702,191.043 141.369,190.376 141.5,189.5 Z"/></g>
<g><path style="opacity:1" fill="#f2f2f2" d="M 641.5,384.5 C 641.5,328.5 641.5,272.5 641.5,216.5C 436.833,216.5 232.167,216.5 27.5,216.5C 27.8315,248.338 27.4982,280.004 26.5,311.5C 26.5,279.5 26.5,247.5 26.5,215.5C 231.833,215.5 437.167,215.5 642.5,215.5C 642.832,272.002 642.499,328.336 641.5,384.5 Z"/></g>
<g><path style="opacity:1" fill="#fcfcfc" d="M 641.5,384.5 C 436.5,384.5 231.5,384.5 26.5,384.5C 26.5,360.167 26.5,335.833 26.5,311.5C 27.4982,280.004 27.8315,248.338 27.5,216.5C 232.167,216.5 436.833,216.5 641.5,216.5C 641.5,272.5 641.5,328.5 641.5,384.5 Z"/></g>
<g><path style="opacity:1" fill="#ebf9fa" d="M 167.5,239.5 C 159.447,237.384 151.447,237.051 143.5,238.5C 143.5,238.833 143.5,239.167 143.5,239.5C 141.801,239.34 140.134,239.506 138.5,240C 135.335,242.335 132.335,244.835 129.5,247.5C 130.167,245.5 130.833,243.5 131.5,241.5C 132.675,241.719 133.675,241.386 134.5,240.5C 135.167,238.167 135.833,235.833 136.5,233.5C 140.7,232.638 144.867,231.638 149,230.5C 152.762,230.814 156.262,231.814 159.5,233.5C 154.167,234.167 148.833,234.833 143.5,235.5C 151.163,236.374 158.829,236.541 166.5,236C 167.337,237.011 167.67,238.178 167.5,239.5 Z"/></g>
<g><path style="opacity:1" fill="#a4a4a4" d="M 351.5,237.5 C 369.833,237.5 388.167,237.5 406.5,237.5C 406.372,243.836 405.372,250.003 403.5,256C 391.505,256.5 379.505,256.667 367.5,256.5C 367.5,267.5 367.5,278.5 367.5,289.5C 378.989,287.962 389.489,290.295 399,296.5C 402.173,300.007 404.506,304.007 406,308.5C 406.667,320.167 406.667,331.833 406,343.5C 403.218,348.742 399.718,353.408 395.5,357.5C 391.686,359.438 387.686,360.771 383.5,361.5C 372.167,361.5 360.833,361.5 349.5,361.5C 348.848,319.947 349.514,278.614 351.5,237.5 Z"/></g>
<g><path style="opacity:1" fill="#a5a5a5" d="M 435.5,237.5 C 443.833,237.5 452.167,237.5 460.5,237.5C 467.884,279.087 474.884,320.754 481.5,362.5C 475.167,362.5 468.833,362.5 462.5,362.5C 460.558,350.528 458.725,338.528 457,326.5C 454.086,325.855 451.086,325.522 448,325.5C 444.724,325.558 441.724,326.224 439,327.5C 436.846,339.089 435.346,350.755 434.5,362.5C 428.167,362.5 421.833,362.5 415.5,362.5C 421.649,320.754 428.316,279.087 435.5,237.5 Z"/></g>
<g><path style="opacity:1" fill="#a5a5a5" d="M 585.5,317.5 C 585.44,316.957 585.107,316.624 584.5,316.5C 583.501,331.485 583.167,346.485 583.5,361.5C 577.5,361.5 571.5,361.5 565.5,361.5C 565.5,320.167 565.5,278.833 565.5,237.5C 571.833,237.5 578.167,237.5 584.5,237.5C 584.167,252.182 584.501,266.848 585.5,281.5C 591.787,266.925 598.62,252.592 606,238.5C 612.777,237.189 619.61,237.189 626.5,238.5C 617.086,258.72 607.753,278.887 598.5,299C 607.991,320.145 617.325,341.311 626.5,362.5C 619.5,362.5 612.5,362.5 605.5,362.5C 599.663,347.157 592.996,332.157 585.5,317.5 Z"/></g>
<g><path style="opacity:1" fill="#b6b6b6" d="M 351.5,237.5 C 349.514,278.614 348.848,319.947 349.5,361.5C 360.833,361.5 372.167,361.5 383.5,361.5C 372.012,362.495 360.345,362.828 348.5,362.5C 348.5,320.833 348.5,279.167 348.5,237.5C 349.5,237.5 350.5,237.5 351.5,237.5 Z"/></g>
<g><path style="opacity:1" fill="#a4a4a4" d="M 532.5,362.5 C 532.5,344.5 532.5,326.5 532.5,308.5C 525.313,308.175 518.313,308.509 511.5,309.5C 511.5,326.833 511.5,344.167 511.5,361.5C 505.5,361.5 499.5,361.5 493.5,361.5C 493.5,320.5 493.5,279.5 493.5,238.5C 499.167,238.5 504.833,238.5 510.5,238.5C 510.17,255.009 510.504,271.342 511.5,287.5C 511.5,288.5 511.5,289.5 511.5,290.5C 518.5,290.5 525.5,290.5 532.5,290.5C 532.5,272.833 532.5,255.167 532.5,237.5C 538.5,237.5 544.5,237.5 550.5,237.5C 550.5,279.167 550.5,320.833 550.5,362.5C 544.5,362.5 538.5,362.5 532.5,362.5 Z"/></g>
<g><path style="opacity:1" fill="#136c9e" d="M 91.5,239.5 C 82.1908,238.683 72.8575,238.35 63.5,238.5C 62.1667,238.5 60.8333,238.5 59.5,238.5C 58.391,238.557 57.391,238.89 56.5,239.5C 55.8333,239.5 55.1667,239.5 54.5,239.5C 53.5015,277.33 53.1682,315.33 53.5,353.5C 52.5655,354.568 52.2322,355.901 52.5,357.5C 52.4142,358.496 52.7476,359.329 53.5,360C 56.2017,360.607 58.8684,360.44 61.5,359.5C 63.1705,359.668 64.5039,360.335 65.5,361.5C 60.8333,361.5 56.1667,361.5 51.5,361.5C 51.5,320.167 51.5,278.833 51.5,237.5C 63.5046,237.333 75.5046,237.5 87.5,238C 89.0581,238.21 90.3915,238.71 91.5,239.5 Z"/></g>
<g><path style="opacity:1" fill="#0074b7" d="M 59.5,238.5 C 58.8478,276.653 59.5145,314.653 61.5,352.5C 60.8291,353.946 59.6624,354.612 58,354.5C 56.4672,354.227 54.9672,353.894 53.5,353.5C 53.1682,315.33 53.5015,277.33 54.5,239.5C 55.1667,388.833 55.8333,388.833 56.5,239.5C 57.391,238.89 58.391,238.557 59.5,238.5 Z"/></g>
<g><path style="opacity:1" fill="#046cbd" d="M 54.5,239.5 C 55.1667,239.5 55.8333,239.5 56.5,239.5C 55.8333,388.833 55.1667,388.833 54.5,239.5 Z"/></g>
<g><path style="opacity:1" fill="#056db9" d="M 59.5,238.5 C 60.8333,238.5 62.1667,238.5 63.5,238.5C 62.1709,276.264 62.1709,313.931 63.5,351.5C 63.5,353.5 63.5,355.5 63.5,357.5C 59.7497,358.083 56.083,358.083 52.5,357.5C 52.2322,355.901 52.5655,354.568 53.5,353.5C 54.9672,353.894 56.4672,354.227 58,354.5C 59.6624,354.612 60.8291,353.946 61.5,352.5C 59.5145,314.653 58.8478,276.653 59.5,238.5 Z"/></g>
<g><path style="opacity:1" fill="#1f73a8" d="M 143.5,238.5 C 151.447,237.051 159.447,237.384 167.5,239.5C 170.463,241.461 173.129,243.794 175.5,246.5C 170.998,245.006 166.498,243.339 162,241.5C 161.586,241.957 161.086,242.291 160.5,242.5C 159.571,241.311 159.238,239.978 159.5,238.5C 154.167,238.5 148.833,238.5 143.5,238.5 Z"/></g>
<g><path style="opacity:1" fill="#2d72a8" d="M 216.5,237.5 C 216.5,251.833 216.5,266.167 216.5,280.5C 214.755,283.403 213.755,283.07 213.5,279.5C 214.445,266.19 214.779,252.857 214.5,239.5C 212.833,239.5 211.167,239.5 209.5,239.5C 206.269,238.218 202.936,238.218 199.5,239.5C 198.335,279.331 198.169,319.331 199,359.5C 202.412,359.214 205.912,359.547 209.5,360.5C 211.32,360.351 212.82,359.684 214,358.5C 214.5,345.504 214.667,332.504 214.5,319.5C 209.866,320.441 208.699,319.107 211,315.5C 212.588,312.691 214.755,312.025 217.5,313.5C 219.971,317.111 221.304,321.111 221.5,325.5C 221.167,325.5 220.833,325.5 220.5,325.5C 219.5,322.833 218.5,320.167 217.5,317.5C 217.217,316.711 216.717,316.044 216,315.5C 215.5,330.83 215.333,346.163 215.5,361.5C 209.69,362.49 203.69,362.823 197.5,362.5C 197.5,320.833 197.5,279.167 197.5,237.5C 203.833,237.5 210.167,237.5 216.5,237.5 Z"/></g>
<g><path style="opacity:1" fill="#0370b1" d="M 209.5,239.5 C 208.5,239.5 207.5,239.5 206.5,239.5C 206.5,276.833 206.5,314.167 206.5,351.5C 205.667,314.336 205.167,277.002 205,239.5C 204.833,277.002 204.333,314.336 203.5,351.5C 202.833,202.167 202.167,202.167 201.5,351.5C 199.506,314.515 198.84,277.182 199.5,239.5C 202.936,238.218 206.269,238.218 209.5,239.5 Z"/></g>
<g><path style="opacity:1" fill="#cdebf5" d="M 237.5,237.5 C 243.31,236.51 249.31,236.177 255.5,236.5C 260.918,236.57 261.918,238.904 258.5,243.5C 257.675,244.386 256.675,244.719 255.5,244.5C 256.933,242.442 257.6,240.108 257.5,237.5C 250.833,237.5 244.167,237.5 237.5,237.5 Z"/></g>
<g><path style="opacity:1" fill="#b3b3b3" d="M 511.5,287.5 C 510.504,271.342 510.17,255.009 510.5,238.5C 504.833,238.5 499.167,238.5 493.5,238.5C 493.5,279.5 493.5,320.5 493.5,361.5C 499.5,361.5 505.5,361.5 511.5,361.5C 505.355,362.49 499.022,362.823 492.5,362.5C 492.5,320.833 492.5,279.167 492.5,237.5C 498.833,237.5 505.167,237.5 511.5,237.5C 511.5,254.167 511.5,270.833 511.5,287.5 Z"/></g>
<g><path style="opacity:1" fill="#0271b6" d="M 63.5,238.5 C 72.8575,238.35 82.1908,238.683 91.5,239.5C 93.153,239.66 94.4863,240.326 95.5,241.5C 95.2053,243.735 95.5386,245.735 96.5,247.5C 96.6106,249.648 95.944,249.981 94.5,248.5C 93.6919,248.808 93.0253,249.308 92.5,250C 93.1667,251.667 93.8333,253.333 94.5,255C 92.4233,255.192 90.4233,255.692 88.5,256.5C 88.8627,257.183 89.1961,257.85 89.5,258.5C 88.8333,258.5 88.1667,258.5 87.5,258.5C 86.5084,258.672 85.8417,258.338 85.5,257.5C 85.0825,256.778 84.4158,256.278 83.5,256C 78.9796,255.186 74.6463,255.353 70.5,256.5C 69.5128,261.305 69.1795,266.305 69.5,271.5C 67.5539,266.604 66.8872,261.271 67.5,255.5C 66.1667,255.5 64.8333,255.5 63.5,255.5C 63.3335,266.172 63.5002,276.839 64,287.5C 64.1733,281.984 64.6733,276.651 65.5,271.5C 65.5,277.833 65.5,284.167 65.5,290.5C 63.744,291.552 63.0773,293.219 63.5,295.5C 65.5273,295.338 67.5273,295.505 69.5,296C 69.9574,296.414 70.2907,296.914 70.5,297.5C 68.6492,299.456 66.3158,300.456 63.5,300.5C 64.449,302.737 65.1156,305.071 65.5,307.5C 67.1667,307.5 68.8333,307.5 70.5,307.5C 70.5,306.167 70.5,304.833 70.5,303.5C 71.5,303.5 72.5,303.5 73.5,303.5C 73.5172,305.565 73.8505,307.565 74.5,309.5C 72.901,309.232 71.5676,309.566 70.5,310.5C 69.5233,313.287 69.19,316.287 69.5,319.5C 67.8356,318.051 67.0023,316.051 67,313.5C 66.3333,314.833 65.3333,315.833 64,316.5C 63.5001,328.162 63.3335,339.829 63.5,351.5C 62.1709,313.931 62.1709,276.264 63.5,238.5 Z"/></g>
<g><path style="opacity:1" fill="#ebfbfd" d="M 244.5,268.5 C 244.833,267.167 245.167,265.833 245.5,264.5C 248.801,257.899 252.134,251.232 255.5,244.5C 256.675,244.719 257.675,244.386 258.5,243.5C 261.918,238.904 260.918,236.57 255.5,236.5C 255.5,235.5 255.5,234.5 255.5,233.5C 250.125,233.828 244.792,233.495 239.5,232.5C 246.69,230.887 253.69,231.387 260.5,234C 263.165,236.604 263.665,239.437 262,242.5C 256.648,246.469 253.315,251.802 252,258.5C 249.31,260.895 247.643,263.895 247,267.5C 246.329,268.252 245.496,268.586 244.5,268.5 Z"/></g>
<g><path style="opacity:1" fill="#0370b8" d="M 143.5,238.5 C 148.833,238.5 154.167,238.5 159.5,238.5C 159.238,239.978 159.571,241.311 160.5,242.5C 161.086,242.291 161.586,241.957 162,241.5C 166.498,243.339 170.998,245.006 175.5,246.5C 175.238,247.978 175.571,249.311 176.5,250.5C 177.689,252.363 179.022,254.03 180.5,255.5C 181.167,255.5 181.5,255.833 181.5,256.5C 181.827,261.544 181.494,266.544 180.5,271.5C 175.531,272.544 170.531,272.544 165.5,271.5C 165.666,267.486 165.499,263.486 165,259.5C 163.275,258.536 161.441,257.869 159.5,257.5C 157.952,256.206 155.952,255.539 153.5,255.5C 151.048,255.539 149.048,256.206 147.5,257.5C 145.782,259.223 144.449,261.223 143.5,263.5C 142.849,264.091 142.182,264.757 141.5,265.5C 140.5,288.824 140.167,312.157 140.5,335.5C 141.5,335.5 142.5,335.5 143.5,335.5C 143.5,336.167 143.5,336.833 143.5,337.5C 143.172,340.004 141.838,341.838 139.5,343C 140.394,345.068 141.06,347.235 141.5,349.5C 138.976,352.143 139.643,353.81 143.5,354.5C 143.5,355.5 143.5,356.5 143.5,357.5C 148.833,357.5 154.167,357.5 159.5,357.5C 159.5,356.5 159.5,355.5 159.5,354.5C 162.167,354.5 164.833,354.5 167.5,354.5C 167.67,355.822 167.337,356.989 166.5,358C 157.187,359.749 147.853,359.916 138.5,358.5C 135.787,353.876 132.62,349.543 129,345.5C 128.722,346.416 128.222,347.082 127.5,347.5C 126.434,345.299 125.767,342.965 125.5,340.5C 125.333,314.165 125.5,287.831 126,261.5C 127.289,258.649 127.789,255.649 127.5,252.5C 131.717,252.785 133.883,250.785 134,246.5C 137.196,243.957 140.363,241.623 143.5,239.5C 143.5,239.167 143.5,238.833 143.5,238.5 Z"/></g>
<g><path style="opacity:1" fill="#3474a0" d="M 175.5,246.5 C 178.45,248.728 180.116,251.728 180.5,255.5C 179.022,254.03 177.689,252.363 176.5,250.5C 175.571,249.311 175.238,247.978 175.5,246.5 Z"/></g>
<g><path style="opacity:1" fill="#2573a8" d="M 143.5,239.5 C 140.363,241.623 137.196,243.957 134,246.5C 133.883,250.785 131.717,252.785 127.5,252.5C 127.893,250.716 128.559,249.05 129.5,247.5C 132.335,244.835 135.335,242.335 138.5,240C 140.134,239.506 141.801,239.34 143.5,239.5 Z"/></g>
<g><path style="opacity:1" fill="#e2f6fb" d="M 167.5,239.5 C 171.483,240.323 175.15,241.989 178.5,244.5C 179.501,247.173 181.001,249.507 183,251.5C 183.808,258.171 184.641,264.837 185.5,271.5C 186.228,273.193 187.228,274.693 188.5,276C 187.892,276.87 187.059,277.37 186,277.5C 179.349,276.6 172.849,275.6 166.5,274.5C 172.026,274.821 177.36,274.488 182.5,273.5C 182.822,267.642 182.489,261.975 181.5,256.5C 181.5,255.833 181.167,255.5 180.5,255.5C 180.116,251.728 178.45,248.728 175.5,246.5C 173.129,243.794 170.463,241.461 167.5,239.5 Z"/></g>
<g><path style="opacity:1" fill="#407aa4" d="M 287.5,255.5 C 286.167,255.5 284.833,255.5 283.5,255.5C 284.97,250.243 286.304,250.243 287.5,255.5 Z"/></g>
<g><path style="opacity:1" fill="#1f6fa9" d="M 237.5,237.5 C 244.167,237.5 250.833,237.5 257.5,237.5C 257.6,240.108 256.933,242.442 255.5,244.5C 252.134,251.232 248.801,257.899 245.5,264.5C 245.303,259.259 246.803,254.593 250,250.5C 250.414,246.649 251.248,242.983 252.5,239.5C 249.529,238.151 244.529,238.151 237.5,239.5C 237.5,238.833 237.5,238.167 237.5,237.5 Z"/></g>
<g><path style="opacity:1" fill="#87a5b1" d="M 70.5,256.5 C 74.6463,255.353 78.9796,255.186 83.5,256C 84.4158,256.278 85.0825,256.778 85.5,257.5C 81.8815,256.756 78.2148,256.423 74.5,256.5C 73.5,256.5 72.5,256.5 71.5,256.5C 71.1667,256.5 70.8333,256.5 70.5,256.5 Z"/></g>
<g><path style="opacity:1" fill="#41819a" d="M 159.5,257.5 C 155.468,256.234 151.468,256.234 147.5,257.5C 149.048,256.206 151.048,255.539 153.5,255.5C 155.952,255.539 157.952,256.206 159.5,257.5 Z"/></g>
<g><path style="opacity:1" fill="#d7f5fa" d="M 159.5,257.5 C 161.252,259.246 162.585,261.246 163.5,263.5C 163.5,266.833 163.5,270.167 163.5,273.5C 162.677,270.023 162.177,266.356 162,262.5C 158.904,259.025 155.07,257.525 150.5,258C 149.034,259.552 148.034,261.386 147.5,263.5C 146.311,264.429 144.978,264.762 143.5,264.5C 143.5,264.167 143.5,263.833 143.5,263.5C 144.449,261.223 145.782,259.223 147.5,257.5C 151.468,256.234 155.468,256.234 159.5,257.5 Z"/></g>
<g><path style="opacity:1" fill="#ebfcfd" d="M 70.5,256.5 C 70.8333,256.5 71.1667,256.5 71.5,256.5C 71.1681,266.855 71.5014,277.188 72.5,287.5C 75.549,289.466 78.8823,289.966 82.5,289C 82.9817,287.992 83.1484,286.825 83,285.5C 84.1545,284.257 85.4878,283.257 87,282.5C 89.1162,275.197 88.9496,268.031 86.5,261C 84.0507,260.225 82.384,261.058 81.5,263.5C 83.756,264.421 84.756,266.088 84.5,268.5C 82.8333,268.5 81.1667,268.5 79.5,268.5C 79.6646,265.482 79.498,262.482 79,259.5C 78.6322,260.91 77.7989,261.91 76.5,262.5C 74.9137,260.827 74.2471,258.827 74.5,256.5C 78.2148,256.423 81.8815,256.756 85.5,257.5C 85.8417,258.338 86.5084,258.672 87.5,258.5C 88.1217,259.627 88.955,260.627 90,261.5C 90.8029,269.882 90.6362,278.215 89.5,286.5C 87.5487,288.622 85.2154,290.122 82.5,291C 78.5138,291.499 74.5138,291.666 70.5,291.5C 70.5,279.833 70.5,268.167 70.5,256.5 Z"/></g>
<g><path style="opacity:1" fill="#056ebc" d="M 69.5,271.5 C 69.5,276.833 69.5,282.167 69.5,287.5C 68.5,287.5 67.5,287.5 66.5,287.5C 66.8214,281.974 66.4881,276.64 65.5,271.5C 64.6733,276.651 64.1733,281.984 64,287.5C 63.5002,276.839 63.3335,266.172 63.5,255.5C 64.8333,255.5 66.1667,255.5 67.5,255.5C 66.8872,261.271 67.5539,266.604 69.5,271.5 Z"/></g>
<g><path style="opacity:1" fill="#e0f9fc" d="M 216.5,237.5 C 220.806,238.066 221.139,238.732 217.5,239.5C 217.333,251.171 217.5,262.838 218,274.5C 220.091,271.155 221.424,267.488 222,263.5C 222.333,263.833 222.667,264.167 223,264.5C 223.72,262.944 224.887,261.944 226.5,261.5C 225.242,263.687 224.242,266.02 223.5,268.5C 223.5,268.833 223.5,269.167 223.5,269.5C 221.326,272.515 219.659,275.849 218.5,279.5C 217.778,279.918 217.278,280.584 217,281.5C 216.601,281.272 216.435,280.938 216.5,280.5C 216.5,266.167 216.5,251.833 216.5,237.5 Z"/></g>
<g><path style="opacity:1" fill="#066dbd" d="M 108.5,255.5 C 108.5,255.833 108.5,256.167 108.5,256.5C 108.666,266.839 108.5,277.172 108,287.5C 107.667,288.167 107.333,288.833 107,289.5C 106.833,283.833 106.667,278.167 106.5,272.5C 106.504,266.458 107.171,260.792 108.5,255.5 Z"/></g>
<g><path style="opacity:1" fill="#fcfcfa" d="M 71.5,256.5 C 72.5,256.5 73.5,256.5 74.5,256.5C 74.2471,258.827 74.9137,260.827 76.5,262.5C 77.7989,261.91 78.6322,260.91 79,259.5C 79.498,262.482 79.6646,265.482 79.5,268.5C 81.1667,268.5 82.8333,268.5 84.5,268.5C 84.756,266.088 83.756,264.421 81.5,263.5C 82.384,261.058 84.0507,260.225 86.5,261C 88.9496,268.031 89.1162,275.197 87,282.5C 85.4878,283.257 84.1545,284.257 83,285.5C 83.1484,286.825 82.9817,287.992 82.5,289C 78.8823,289.966 75.549,289.466 72.5,287.5C 71.5014,277.188 71.1681,266.855 71.5,256.5 Z"/></g>
<g><path style="opacity:1" fill="#1370ad" d="M 95.5,241.5 C 101.9,244.234 106.234,248.901 108.5,255.5C 107.171,260.792 106.504,266.458 106.5,272.5C 106.667,278.167 106.833,283.833 107,289.5C 107.333,288.833 107.667,288.167 108,287.5C 108.5,277.172 108.666,266.839 108.5,256.5C 109.404,257.209 109.737,258.209 109.5,259.5C 109.666,269.172 109.5,278.839 109,288.5C 107.997,291.84 106.497,294.84 104.5,297.5C 105.124,293.995 104.124,291.162 101.5,289C 102.813,277.461 104.146,265.961 105.5,254.5C 104.82,251.64 103.487,249.14 101.5,247C 99.6131,246.22 97.9464,246.387 96.5,247.5C 95.5386,245.735 95.2053,243.735 95.5,241.5 Z"/></g>
<g><path style="opacity:1" fill="#257ab4" d="M 143.5,263.5 C 143.5,263.833 143.5,264.167 143.5,264.5C 143.5,266.167 143.5,267.833 143.5,269.5C 143.5,291.5 143.5,313.5 143.5,335.5C 142.5,335.5 141.5,335.5 140.5,335.5C 140.167,312.157 140.5,288.824 141.5,265.5C 142.182,264.757 142.849,264.091 143.5,263.5 Z"/></g>
<g><path style="opacity:1" fill="#f2fcfb" d="M 143.5,269.5 C 149.005,269.412 154.338,269.745 159.5,270.5C 155.217,271.492 150.884,271.826 146.5,271.5C 147.552,290.582 147.552,309.582 146.5,328.5C 147.848,331.165 148.181,333.831 147.5,336.5C 148.167,337.833 148.833,339.167 149.5,340.5C 152.815,341.553 156.148,341.553 159.5,340.5C 159.5,341.167 159.5,341.833 159.5,342.5C 152.696,345.024 147.363,343.357 143.5,337.5C 143.5,336.833 143.5,336.167 143.5,335.5C 143.5,313.5 143.5,291.5 143.5,269.5 Z"/></g>
<g><path style="opacity:1" fill="#2372a3" d="M 181.5,256.5 C 182.489,261.975 182.822,267.642 182.5,273.5C 176.5,273.5 170.5,273.5 164.5,273.5C 164.813,269.958 164.479,266.625 163.5,263.5C 162.585,261.246 161.252,259.246 159.5,257.5C 161.441,257.869 163.275,258.536 165,259.5C 165.499,263.486 165.666,267.486 165.5,271.5C 170.531,272.544 175.531,272.544 180.5,271.5C 181.494,266.544 181.827,261.544 181.5,256.5 Z"/></g>
<g><path style="opacity:1" fill="#f5f5f5" d="M 447.5,268.5 C 450.224,281.263 452.224,294.263 453.5,307.5C 449.833,307.5 446.167,307.5 442.5,307.5C 443.948,294.483 445.615,281.483 447.5,268.5 Z"/></g>
<g><path style="opacity:1" fill="#8dc6e3" d="M 163.5,263.5 C 164.479,266.625 164.813,269.958 164.5,273.5C 170.5,273.5 176.5,273.5 182.5,273.5C 177.36,274.488 172.026,274.821 166.5,274.5C 165.209,274.737 164.209,274.404 163.5,273.5C 163.5,270.167 163.5,266.833 163.5,263.5 Z"/></g>
<g><path style="opacity:1" fill="#e2eff9" d="M 277.5,265.5 C 277.134,267.905 276.467,270.238 275.5,272.5C 277.1,275.368 278.433,278.368 279.5,281.5C 277.386,280.64 276.22,278.973 276,276.5C 275.586,276.957 275.086,277.291 274.5,277.5C 273.057,272.839 274.057,268.839 277.5,265.5 Z"/></g>
<g><path style="opacity:1" fill="#0570b8" d="M 245.5,264.5 C 245.167,265.833 244.833,267.167 244.5,268.5C 240.437,276.959 236.103,285.293 231.5,293.5C 230.21,294.058 229.377,295.058 229,296.5C 228.503,298.81 228.337,301.143 228.5,303.5C 227.806,300.579 226.973,297.579 226,294.5C 225.683,296.301 225.016,296.634 224,295.5C 223.44,299.442 223.94,303.275 225.5,307C 225.167,308.167 224.833,309.333 224.5,310.5C 223.032,308.468 221.365,308.635 219.5,311C 221.074,312.826 221.907,314.993 222,317.5C 222.333,315.5 222.667,313.5 223,311.5C 223.064,315.903 223.231,320.236 223.5,324.5C 224.167,324.833 224.833,325.167 225.5,325.5C 226.484,322.572 226.817,319.572 226.5,316.5C 227.5,316.5 228.5,316.5 229.5,316.5C 230.953,319.986 231.619,323.653 231.5,327.5C 228.107,327.375 226.774,329.042 227.5,332.5C 227.667,333.833 227.833,335.167 228,336.5C 229.011,335.663 230.178,335.33 231.5,335.5C 231.34,333.801 231.506,332.134 232,330.5C 233.713,328.924 235.213,327.257 236.5,325.5C 238.167,325.5 239.833,325.5 241.5,325.5C 241.684,329.079 241.017,332.413 239.5,335.5C 240.93,335.579 242.264,335.246 243.5,334.5C 245.447,340.927 248.447,346.76 252.5,352C 251.552,352.483 250.552,352.649 249.5,352.5C 249.5,353.5 249.5,354.5 249.5,355.5C 251.5,355.5 253.5,355.5 255.5,355.5C 255.5,355.833 255.5,356.167 255.5,356.5C 249.833,356.5 244.167,356.5 238.5,356.5C 238.5,357.5 238.5,358.5 238.5,359.5C 244.167,359.5 249.833,359.5 255.5,359.5C 250.167,360.167 244.833,360.833 239.5,361.5C 238.833,361.5 238.167,361.5 237.5,361.5C 236.674,358.515 235.341,355.849 233.5,353.5C 233.34,351.847 232.674,350.514 231.5,349.5C 228.149,341.47 224.816,333.47 221.5,325.5C 221.304,321.111 219.971,317.111 217.5,313.5C 214.755,312.025 212.588,312.691 211,315.5C 208.699,319.107 209.866,320.441 214.5,319.5C 214.667,332.504 214.5,345.504 214,358.5C 212.82,359.684 211.32,360.351 209.5,360.5C 205.912,359.547 202.412,359.214 199,359.5C 198.169,319.331 198.335,279.331 199.5,239.5C 198.84,277.182 199.506,314.515 201.5,351.5C 202.167,351.5 202.833,351.5 203.5,351.5C 203.656,355.135 204.822,355.468 207,352.5C 207.333,352.833 207.667,353.167 208,353.5C 208.528,352.184 208.028,351.517 206.5,351.5C 206.5,314.167 206.5,276.833 206.5,239.5C 207.5,239.5 208.5,239.5 209.5,239.5C 211.167,239.5 212.833,239.5 214.5,239.5C 214.779,252.857 214.445,266.19 213.5,279.5C 213.755,283.07 214.755,283.403 216.5,280.5C 216.435,280.938 216.601,281.272 217,281.5C 217.278,280.584 217.778,279.918 218.5,279.5C 222.683,277.598 224.349,274.265 223.5,269.5C 223.5,269.167 223.5,268.833 223.5,268.5C 224.583,268.461 225.583,268.127 226.5,267.5C 227.721,263.39 229.721,259.723 232.5,256.5C 232.291,255.914 231.957,255.414 231.5,255C 234.214,250.079 236.214,244.912 237.5,239.5C 244.529,238.151 249.529,238.151 252.5,239.5C 251.248,242.983 250.414,246.649 250,250.5C 246.803,254.593 245.303,259.259 245.5,264.5 Z"/></g>
<g><path style="opacity:1" fill="#026ec0" d="M 203.5,351.5 C 202.833,351.5 202.167,351.5 201.5,351.5C 202.167,202.167 202.833,202.167 203.5,351.5 Z"/></g>
<g><path style="opacity:1" fill="#2e79a9" d="M 237.5,239.5 C 236.214,244.912 234.214,250.079 231.5,255C 231.957,255.414 232.291,255.914 232.5,256.5C 229.721,259.723 227.721,263.39 226.5,267.5C 225.583,268.127 224.583,268.461 223.5,268.5C 224.242,266.02 225.242,263.687 226.5,261.5C 229.636,253.895 233.302,246.562 237.5,239.5 Z"/></g>
<g><path style="opacity:1" fill="#2f749f" d="M 223.5,269.5 C 224.349,274.265 222.683,277.598 218.5,279.5C 219.659,275.849 221.326,272.515 223.5,269.5 Z"/></g>
<g><path style="opacity:1" fill="#1c73ab" d="M 279.5,263.5 C 279.489,265.547 279.156,267.547 278.5,269.5C 279.462,273.42 280.962,277.086 283,280.5C 283.494,282.134 283.66,283.801 283.5,285.5C 286.205,285.38 286.872,286.38 285.5,288.5C 287.13,291.276 287.797,294.276 287.5,297.5C 284.655,292.328 281.989,286.995 279.5,281.5C 278.433,278.368 277.1,275.368 275.5,272.5C 276.467,270.238 277.134,267.905 277.5,265.5C 278.167,264.833 278.833,264.167 279.5,263.5 Z"/></g>
<g><path style="opacity:1" fill="#d0eff5" d="M 109.5,259.5 C 110.213,269.352 110.88,279.352 111.5,289.5C 109.522,292.926 108.022,296.593 107,300.5C 105.736,302.607 103.903,303.607 101.5,303.5C 102.5,301.5 103.5,299.5 104.5,297.5C 106.497,294.84 107.997,291.84 109,288.5C 109.5,278.839 109.666,269.172 109.5,259.5 Z"/></g>
<g><path style="opacity:1" fill="#337bb0" d="M 70.5,256.5 C 70.5,268.167 70.5,279.833 70.5,291.5C 74.5138,291.666 78.5138,291.499 82.5,291C 85.2154,290.122 87.5487,288.622 89.5,286.5C 90.6362,278.215 90.8029,269.882 90,261.5C 88.955,260.627 88.1217,259.627 87.5,258.5C 88.1667,258.5 88.8333,258.5 89.5,258.5C 91.5,258.167 93.5,257.833 95.5,257.5C 95.3979,260.746 94.3979,263.58 92.5,266C 92.6483,267.256 92.9816,268.423 93.5,269.5C 93.407,277.244 92.5737,284.911 91,292.5C 89.3967,292.871 87.8967,293.205 86.5,293.5C 82.4889,293.644 78.4889,293.977 74.5,294.5C 70.8288,294.454 67.8288,293.121 65.5,290.5C 65.5,284.167 65.5,277.833 65.5,271.5C 66.4881,276.64 66.8214,281.974 66.5,287.5C 67.5,287.5 68.5,287.5 69.5,287.5C 69.5,282.167 69.5,276.833 69.5,271.5C 69.1795,266.305 69.5128,261.305 70.5,256.5 Z"/></g>
<g><path style="opacity:1" fill="#036fbc" d="M 65.5,290.5 C 67.8288,293.121 70.8288,294.454 74.5,294.5C 78.4889,293.977 82.4889,293.644 86.5,293.5C 87.3324,294.329 86.999,295.162 85.5,296C 83.5273,296.495 81.5273,296.662 79.5,296.5C 79.5,297.833 79.5,299.167 79.5,300.5C 83.474,300.987 87.1407,302.32 90.5,304.5C 91.3857,305.325 91.719,306.325 91.5,307.5C 88.4682,307.505 85.4682,307.838 82.5,308.5C 81.5,308.167 80.5,307.833 79.5,307.5C 81.482,306.784 83.1487,305.617 84.5,304C 82.0241,303.576 79.6907,302.743 77.5,301.5C 73.6846,302.622 73.6846,303.288 77.5,303.5C 77.5,305.5 77.5,307.5 77.5,309.5C 76.5,309.5 75.5,309.5 74.5,309.5C 73.8505,307.565 73.5172,305.565 73.5,303.5C 72.5,303.5 71.5,303.5 70.5,303.5C 70.5,304.833 70.5,306.167 70.5,307.5C 68.8333,307.5 67.1667,307.5 65.5,307.5C 65.1156,305.071 64.449,302.737 63.5,300.5C 66.3158,300.456 68.6492,299.456 70.5,297.5C 70.2907,296.914 69.9574,296.414 69.5,296C 67.5273,295.505 65.5273,295.338 63.5,295.5C 63.0773,293.219 63.744,291.552 65.5,290.5 Z"/></g>
<g><path style="opacity:1" fill="#0e72b5" d="M 104.5,297.5 C 103.5,299.5 102.5,301.5 101.5,303.5C 99.1475,304.34 97.1475,305.674 95.5,307.5C 87.4272,310.174 79.0939,311.174 70.5,310.5C 71.5676,309.566 72.901,309.232 74.5,309.5C 75.5,309.5 76.5,309.5 77.5,309.5C 77.5,307.5 77.5,305.5 77.5,303.5C 73.6846,303.288 73.6846,302.622 77.5,301.5C 79.6907,302.743 82.0241,303.576 84.5,304C 83.1487,305.617 81.482,306.784 79.5,307.5C 80.5,307.833 81.5,308.167 82.5,308.5C 85.4682,307.838 88.4682,307.505 91.5,307.5C 91.719,306.325 91.3857,305.325 90.5,304.5C 87.1407,302.32 83.474,300.987 79.5,300.5C 79.5,299.167 79.5,297.833 79.5,296.5C 81.5273,296.662 83.5273,296.495 85.5,296C 86.999,295.162 87.3324,294.329 86.5,293.5C 87.8967,293.205 89.3967,292.871 91,292.5C 92.5737,284.911 93.407,277.244 93.5,269.5C 94.1515,270.091 94.8182,270.757 95.5,271.5C 96.2785,265.823 97.1118,260.156 98,254.5C 99.4936,253.253 100.994,253.253 102.5,254.5C 100.554,265.313 99.8869,276.313 100.5,287.5C 99.5,287.5 98.5,287.5 97.5,287.5C 96.0795,290.261 95.4129,293.261 95.5,296.5C 89.3263,296.568 88.993,298.235 94.5,301.5C 96.4027,298.906 97.7361,296.072 98.5,293C 98.8333,292.833 99.1667,292.667 99.5,292.5C 100.452,294.045 100.785,295.712 100.5,297.5C 101.833,297.5 103.167,297.5 104.5,297.5 Z"/></g>
<g><path style="opacity:1" fill="#0570a3" d="M 206.5,351.5 C 208.028,351.517 208.528,352.184 208,353.5C 207.667,353.167 207.333,352.833 207,352.5C 204.822,355.468 203.656,355.135 203.5,351.5C 204.333,314.336 204.833,277.002 205,239.5C 205.167,277.002 205.667,314.336 206.5,351.5 Z"/></g>
<g><path style="opacity:1" fill="#1271b4" d="M 283.5,255.5 C 284.833,255.5 286.167,255.5 287.5,255.5C 293.361,265.888 298.694,276.554 303.5,287.5C 305.157,291.484 306.824,295.484 308.5,299.5C 307.333,303.168 305.666,306.502 303.5,309.5C 303.284,306.568 303.951,303.902 305.5,301.5C 305.167,300.833 304.833,300.167 304.5,299.5C 303.165,303.161 300.832,305.827 297.5,307.5C 295.619,305.612 293.619,303.779 291.5,302C 292.554,300.612 292.72,299.112 292,297.5C 291.346,298.696 290.846,298.696 290.5,297.5C 291.325,296.614 292.325,296.281 293.5,296.5C 291.566,290.237 292.233,284.404 295.5,279C 295.167,278.5 294.833,278 294.5,277.5C 293.251,279.475 291.751,279.809 290,278.5C 289.503,276.19 289.337,273.857 289.5,271.5C 290.5,271.5 291.5,271.5 292.5,271.5C 291.253,267.877 289.919,264.21 288.5,260.5C 287.599,263.369 286.599,266.202 285.5,269C 286.167,270.667 286.833,272.333 287.5,274C 287.167,274.833 286.833,275.667 286.5,276.5C 284.783,275.332 284.116,273.665 284.5,271.5C 283.5,271.5 282.5,271.5 281.5,271.5C 281.782,268.395 282.782,265.562 284.5,263C 284.167,262.167 283.833,261.333 283.5,260.5C 282.358,261.826 281.024,262.826 279.5,263.5C 280.326,260.515 281.659,257.849 283.5,255.5 Z"/></g>
<g><path style="opacity:1" fill="#026fbf" d="M 104.5,297.5 C 103.167,297.5 101.833,297.5 100.5,297.5C 100.785,295.712 100.452,294.045 99.5,292.5C 99.1667,292.667 98.8333,292.833 98.5,293C 97.7361,296.072 96.4027,298.906 94.5,301.5C 88.993,298.235 89.3263,296.568 95.5,296.5C 95.4129,293.261 96.0795,290.261 97.5,287.5C 98.5,287.5 99.5,287.5 100.5,287.5C 99.8869,276.313 100.554,265.313 102.5,254.5C 100.994,253.253 99.4936,253.253 98,254.5C 97.1118,260.156 96.2785,265.823 95.5,271.5C 94.8182,270.757 94.1515,270.091 93.5,269.5C 92.9816,268.423 92.6483,267.256 92.5,266C 94.3979,263.58 95.3979,260.746 95.5,257.5C 93.5,257.833 91.5,258.167 89.5,258.5C 89.1961,257.85 88.8627,257.183 88.5,256.5C 90.4233,255.692 92.4233,255.192 94.5,255C 93.8333,253.333 93.1667,251.667 92.5,250C 93.0253,249.308 93.6919,248.808 94.5,248.5C 95.944,249.981 96.6106,249.648 96.5,247.5C 97.9464,246.387 99.6131,246.22 101.5,247C 103.487,249.14 104.82,251.64 105.5,254.5C 104.146,265.961 102.813,277.461 101.5,289C 104.124,291.162 105.124,293.995 104.5,297.5 Z"/></g>
<g><path style="opacity:1" fill="#2b75a2" d="M 127.5,252.5 C 127.789,255.649 127.289,258.649 126,261.5C 125.5,287.831 125.333,314.165 125.5,340.5C 124.336,313.336 124.17,286.003 125,258.5C 125.566,256.277 126.4,254.277 127.5,252.5 Z"/></g>
<g><path style="opacity:1" fill="#3276a5" d="M 287.5,301.5 C 287.721,304.279 287.388,306.946 286.5,309.5C 284.141,312.91 281.808,316.243 279.5,319.5C 281.118,312.94 283.784,306.94 287.5,301.5 Z"/></g>
<g><path style="opacity:1" fill="#fbfbfb" d="M 367.5,308.5 C 372.179,308.334 376.845,308.501 381.5,309C 387.899,312.599 390.232,318.099 388.5,325.5C 389.605,340.72 382.605,346.72 367.5,343.5C 367.5,331.833 367.5,320.167 367.5,308.5 Z"/></g>
<g><path style="opacity:1" fill="#036ebd" d="M 228.5,303.5 C 229.687,306.882 231.187,310.215 233,313.5C 233.495,315.473 233.662,317.473 233.5,319.5C 234.5,319.5 235.5,319.5 236.5,319.5C 236.5,321.5 236.5,323.5 236.5,325.5C 235.213,327.257 233.713,328.924 232,330.5C 231.506,332.134 231.34,333.801 231.5,335.5C 230.178,335.33 229.011,335.663 228,336.5C 227.833,335.167 227.667,333.833 227.5,332.5C 226.774,329.042 228.107,327.375 231.5,327.5C 231.619,323.653 230.953,319.986 229.5,316.5C 228.5,316.5 227.5,316.5 226.5,316.5C 226.817,319.572 226.484,322.572 225.5,325.5C 224.833,325.167 224.167,324.833 223.5,324.5C 223.231,320.236 223.064,315.903 223,311.5C 222.667,313.5 222.333,315.5 222,317.5C 221.907,314.993 221.074,312.826 219.5,311C 221.365,308.635 223.032,308.468 224.5,310.5C 224.833,309.333 225.167,308.167 225.5,307C 223.94,303.275 223.44,299.442 224,295.5C 225.016,296.634 225.683,296.301 226,294.5C 226.973,297.579 227.806,300.579 228.5,303.5 Z"/></g>
<g><path style="opacity:1" fill="#0b70b8" d="M 303.5,309.5 C 299.833,318.167 296.167,326.833 292.5,335.5C 292.167,335.5 291.833,335.5 291.5,335.5C 290.141,336.007 289.141,337.007 288.5,338.5C 287.614,337.675 287.281,336.675 287.5,335.5C 286.448,335.649 285.448,335.483 284.5,335C 284.994,329.255 285.994,323.589 287.5,318C 285.19,315.393 284.856,312.559 286.5,309.5C 287.388,306.946 287.721,304.279 287.5,301.5C 287.5,300.167 287.5,298.833 287.5,297.5C 287.797,294.276 287.13,291.276 285.5,288.5C 286.872,286.38 286.205,285.38 283.5,285.5C 283.66,283.801 283.494,282.134 283,280.5C 280.962,277.086 279.462,273.42 278.5,269.5C 279.156,267.547 279.489,265.547 279.5,263.5C 281.024,262.826 282.358,261.826 283.5,260.5C 283.833,261.333 284.167,262.167 284.5,263C 282.782,265.562 281.782,268.395 281.5,271.5C 282.5,271.5 283.5,271.5 284.5,271.5C 284.116,273.665 284.783,275.332 286.5,276.5C 286.833,275.667 287.167,274.833 287.5,274C 286.833,272.333 286.167,270.667 285.5,269C 286.599,266.202 287.599,263.369 288.5,260.5C 289.919,264.21 291.253,267.877 292.5,271.5C 291.5,271.5 290.5,271.5 289.5,271.5C 289.337,273.857 289.503,276.19 290,278.5C 291.751,279.809 293.251,279.475 294.5,277.5C 294.833,278 295.167,278.5 295.5,279C 292.233,284.404 291.566,290.237 293.5,296.5C 292.325,296.281 291.325,296.614 290.5,297.5C 290.846,298.696 291.346,298.696 292,297.5C 292.72,299.112 292.554,300.612 291.5,302C 293.619,303.779 295.619,305.612 297.5,307.5C 300.832,305.827 303.165,303.161 304.5,299.5C 304.833,300.167 305.167,300.833 305.5,301.5C 303.951,303.902 303.284,306.568 303.5,309.5 Z"/></g>
<g><path style="opacity:1" fill="#eaf8f9" d="M 303.5,287.5 C 306.74,289.271 309.073,291.938 310.5,295.5C 309.677,301.658 308.844,307.991 308,314.5C 307.097,315.701 305.931,316.535 304.5,317C 305.784,317.684 306.951,317.517 308,316.5C 308.374,317.416 308.874,318.25 309.5,319C 306.518,319.498 303.518,319.665 300.5,319.5C 298.824,324.535 296.824,329.535 294.5,334.5C 294.043,335.298 293.376,335.631 292.5,335.5C 296.167,326.833 299.833,318.167 303.5,309.5C 305.666,306.502 307.333,303.168 308.5,299.5C 306.824,295.484 305.157,291.484 303.5,287.5 Z"/></g>
<g><path style="opacity:1" fill="#d6d6d6" d="M 511.5,309.5 C 518.313,308.509 525.313,308.175 532.5,308.5C 532.5,326.5 532.5,344.5 532.5,362.5C 531.503,345.008 531.17,327.341 531.5,309.5C 524.833,309.5 518.167,309.5 511.5,309.5 Z"/></g>
<g><path style="opacity:1" fill="#0e6dba" d="M 69.5,319.5 C 69.5,330.167 69.5,340.833 69.5,351.5C 68.6805,354.305 68.1805,357.305 68,360.5C 66.2429,359.881 65.0762,358.714 64.5,357C 66.0503,349.942 66.717,342.775 66.5,335.5C 66.1667,330.167 65.8333,324.833 65.5,319.5C 64.8333,330.326 64.1666,340.992 63.5,351.5C 63.3335,339.829 63.5001,328.162 64,316.5C 65.3333,315.833 66.3333,314.833 67,313.5C 67.0023,316.051 67.8356,318.051 69.5,319.5 Z"/></g>
<g><path style="opacity:1" fill="#70a8cb" d="M 70.5,310.5 C 70.5,327.833 70.5,345.167 70.5,362.5C 63.9779,362.823 57.6446,362.49 51.5,361.5C 56.1667,361.5 60.8333,361.5 65.5,361.5C 66.8333,361.5 68.1667,361.5 69.5,361.5C 69.5,358.167 69.5,354.833 69.5,351.5C 69.5,340.833 69.5,330.167 69.5,319.5C 69.19,316.287 69.5233,313.287 70.5,310.5 Z"/></g>
<g><path style="opacity:1" fill="#e5fdfd" d="M 95.5,307.5 C 94.5525,308.978 93.2191,309.978 91.5,310.5C 84.9988,311.148 78.4988,311.815 72,312.5C 71.5001,326.829 71.3334,341.163 71.5,355.5C 71.8016,358.059 71.4682,360.393 70.5,362.5C 70.5,345.167 70.5,327.833 70.5,310.5C 79.0939,311.174 87.4272,310.174 95.5,307.5 Z"/></g>
<g><path style="opacity:1" fill="#fdfcf1" d="M 91.5,310.5 C 92.8333,310.5 94.1667,310.5 95.5,310.5C 95.5,311.5 95.5,312.5 95.5,313.5C 91.1539,313.334 86.8206,313.501 82.5,314C 80.9238,314.44 79.5904,315.273 78.5,316.5C 77.5713,315.311 77.238,313.978 77.5,312.5C 76.1667,312.5 74.8333,312.5 73.5,312.5C 73.6666,327.17 73.4999,341.837 73,356.5C 72.6174,355.944 72.1174,355.611 71.5,355.5C 71.3334,341.163 71.5001,326.829 72,312.5C 78.4988,311.815 84.9988,311.148 91.5,310.5 Z"/></g>
<g><path style="opacity:1" fill="#1571b3" d="M 286.5,309.5 C 284.856,312.559 285.19,315.393 287.5,318C 285.994,323.589 284.994,329.255 284.5,335C 285.448,335.483 286.448,335.649 287.5,335.5C 287.281,336.675 287.614,337.675 288.5,338.5C 289.141,337.007 290.141,336.007 291.5,335.5C 290.059,339.714 288.059,343.714 285.5,347.5C 284.479,346.099 283.479,344.765 282.5,343.5C 280.159,338.153 277.825,332.819 275.5,327.5C 275.9,324.259 277.233,321.593 279.5,319.5C 281.808,316.243 284.141,312.91 286.5,309.5 Z"/></g>
<g><path style="opacity:1" fill="#2274a8" d="M 231.5,293.5 C 230.174,296.001 229.674,298.668 230,301.5C 233.498,308.495 236.998,315.495 240.5,322.5C 241.11,323.391 241.443,324.391 241.5,325.5C 239.833,325.5 238.167,325.5 236.5,325.5C 236.5,323.5 236.5,321.5 236.5,319.5C 235.5,319.5 234.5,319.5 233.5,319.5C 233.662,317.473 233.495,315.473 233,313.5C 231.187,310.215 229.687,306.882 228.5,303.5C 228.337,301.143 228.503,298.81 229,296.5C 229.377,295.058 230.21,294.058 231.5,293.5 Z"/></g>
<g><path style="opacity:1" fill="#76accd" d="M 182.5,338.5 C 182.5,334.5 182.5,330.5 182.5,326.5C 176.5,326.5 170.5,326.5 164.5,326.5C 164.81,329.713 164.477,332.713 163.5,335.5C 163.5,332.167 163.5,328.833 163.5,325.5C 170.167,325.5 176.833,325.5 183.5,325.5C 183.818,330.032 183.485,334.366 182.5,338.5 Z"/></g>
<g><path style="opacity:1" fill="#b9b9b9" d="M 585.5,317.5 C 584.504,332.324 584.171,347.324 584.5,362.5C 577.978,362.823 571.645,362.49 565.5,361.5C 571.5,361.5 577.5,361.5 583.5,361.5C 583.167,346.485 583.501,331.485 584.5,316.5C 585.107,316.624 585.44,316.957 585.5,317.5 Z"/></g>
<g><path style="opacity:1" fill="#0470b7" d="M 181.5,340.5 C 181.5,340.833 181.5,341.167 181.5,341.5C 178.384,344.473 176.384,348.14 175.5,352.5C 174.127,352.657 172.793,352.49 171.5,352C 172.435,349.619 172.768,347.119 172.5,344.5C 171.178,344.33 170.011,344.663 169,345.5C 168.505,347.473 168.338,349.473 168.5,351.5C 166.5,351.5 164.5,351.5 162.5,351.5C 162.753,349.173 162.086,347.173 160.5,345.5C 161.34,344.265 162.34,343.265 163.5,342.5C 165.461,337.743 166.461,332.743 166.5,327.5C 171.179,327.334 175.845,327.501 180.5,328C 181.464,332.066 181.797,336.233 181.5,340.5 Z"/></g>
<g><path style="opacity:1" fill="#2370a3" d="M 182.5,338.5 C 182.672,339.492 182.338,340.158 181.5,340.5C 181.797,336.233 181.464,332.066 180.5,328C 175.845,327.501 171.179,327.334 166.5,327.5C 166.461,332.743 165.461,337.743 163.5,342.5C 162.167,342.5 160.833,342.5 159.5,342.5C 159.5,341.833 159.5,341.167 159.5,340.5C 161.935,339.73 163.269,338.063 163.5,335.5C 164.477,332.713 164.81,329.713 164.5,326.5C 170.5,326.5 176.5,326.5 182.5,326.5C 182.5,330.5 182.5,334.5 182.5,338.5 Z"/></g>
<g><path style="opacity:1" fill="#e0f7fc" d="M 240.5,322.5 C 241.496,322.414 242.329,322.748 243,323.5C 243.653,326.807 245.319,329.473 248,331.5C 250.317,338.959 252.817,346.292 255.5,353.5C 250.854,344.208 246.187,334.875 241.5,325.5C 241.443,324.391 241.11,323.391 240.5,322.5 Z"/></g>
<g><path style="opacity:1" fill="#609cc3" d="M 217.5,317.5 C 216.833,332.167 216.167,346.833 215.5,361.5C 215.333,346.163 215.5,330.83 216,315.5C 216.717,316.044 217.217,316.711 217.5,317.5 Z"/></g>
<g><path style="opacity:1" fill="#dffbfe" d="M 217.5,317.5 C 218.5,320.167 219.5,322.833 220.5,325.5C 219.5,325.5 218.5,325.5 217.5,325.5C 217.667,337.838 217.5,350.171 217,362.5C 215.414,364.537 213.247,365.537 210.5,365.5C 207.103,364.791 203.77,364.791 200.5,365.5C 198.484,365.484 197.484,364.484 197.5,362.5C 203.69,362.823 209.69,362.49 215.5,361.5C 216.167,346.833 216.833,332.167 217.5,317.5 Z"/></g>
<g><path style="opacity:1" fill="#1771af" d="M 143.5,337.5 C 147.363,343.357 152.696,345.024 159.5,342.5C 160.833,342.5 162.167,342.5 163.5,342.5C 162.34,343.265 161.34,344.265 160.5,345.5C 162.086,347.173 162.753,349.173 162.5,351.5C 164.5,351.5 166.5,351.5 168.5,351.5C 168.338,349.473 168.505,347.473 169,345.5C 170.011,344.663 171.178,344.33 172.5,344.5C 172.768,347.119 172.435,349.619 171.5,352C 172.793,352.49 174.127,352.657 175.5,352.5C 175.5,352.833 175.5,353.167 175.5,353.5C 173.14,355.853 170.473,357.853 167.5,359.5C 159.702,362.533 151.702,363.2 143.5,361.5C 141.928,360.313 140.261,359.313 138.5,358.5C 147.853,359.916 157.187,359.749 166.5,358C 167.337,356.989 167.67,355.822 167.5,354.5C 164.833,354.5 162.167,354.5 159.5,354.5C 159.5,355.5 159.5,356.5 159.5,357.5C 154.167,357.5 148.833,357.5 143.5,357.5C 143.5,356.5 143.5,355.5 143.5,354.5C 139.643,353.81 138.976,352.143 141.5,349.5C 141.06,347.235 140.394,345.068 139.5,343C 141.838,341.838 143.172,340.004 143.5,337.5 Z"/></g>
<g><path style="opacity:1" fill="#2f729f" d="M 181.5,341.5 C 180.54,346.086 178.54,350.086 175.5,353.5C 175.5,353.167 175.5,352.833 175.5,352.5C 176.384,348.14 178.384,344.473 181.5,341.5 Z"/></g>
<g><path style="opacity:1" fill="#1f71a9" d="M 138.5,358.5 C 133.833,355.833 130.167,352.167 127.5,347.5C 128.222,347.082 128.722,346.416 129,345.5C 132.62,349.543 135.787,353.876 138.5,358.5 Z"/></g>
<g><path style="opacity:1" fill="#e0f4fb" d="M 220.5,325.5 C 220.833,325.5 221.167,325.5 221.5,325.5C 224.816,333.47 228.149,341.47 231.5,349.5C 229.718,350.72 227.718,351.386 225.5,351.5C 226.946,348.662 227.446,345.662 227,342.5C 225.868,340.661 225.035,338.661 224.5,336.5C 223.675,335.614 222.675,335.281 221.5,335.5C 221.384,332.14 221.051,328.807 220.5,325.5 Z"/></g>
<g><path style="opacity:1" fill="#cce9f4" d="M 291.5,335.5 C 291.833,335.5 292.167,335.5 292.5,335.5C 292.543,338.91 292.043,342.243 291,345.5C 289.989,346.337 288.822,346.67 287.5,346.5C 287.5,347.5 287.5,348.5 287.5,349.5C 283.554,349.512 281.887,347.512 282.5,343.5C 283.479,344.765 284.479,346.099 285.5,347.5C 288.059,343.714 290.059,339.714 291.5,335.5 Z"/></g>
<g><path style="opacity:1" fill="#2572a8" d="M 241.5,325.5 C 246.187,334.875 250.854,344.208 255.5,353.5C 255.5,353.833 255.5,354.167 255.5,354.5C 255.5,354.833 255.5,355.167 255.5,355.5C 253.5,355.5 251.5,355.5 249.5,355.5C 249.5,354.5 249.5,353.5 249.5,352.5C 250.552,352.649 251.552,352.483 252.5,352C 248.447,346.76 245.447,340.927 243.5,334.5C 242.264,335.246 240.93,335.579 239.5,335.5C 241.017,332.413 241.684,329.079 241.5,325.5 Z"/></g>
<g><path style="opacity:1" fill="#0070bf" d="M 143.5,343.5 C 148.61,345.18 153.943,345.847 159.5,345.5C 159.5,346.833 159.5,348.167 159.5,349.5C 152.878,350.479 152.878,351.479 159.5,352.5C 154.167,353.833 148.833,353.833 143.5,352.5C 148.704,350.935 148.704,349.601 143.5,348.5C 143.5,346.833 143.5,345.167 143.5,343.5 Z"/></g>
<g><path style="opacity:1" fill="#0771b1" d="M 69.5,351.5 C 69.5,354.833 69.5,358.167 69.5,361.5C 68.1667,361.5 66.8333,361.5 65.5,361.5C 64.5039,360.335 63.1705,359.668 61.5,359.5C 58.8684,360.44 56.2017,360.607 53.5,360C 52.7476,359.329 52.4142,358.496 52.5,357.5C 56.083,358.083 59.7497,358.083 63.5,357.5C 63.5,355.5 63.5,353.5 63.5,351.5C 64.1666,340.992 64.8333,330.326 65.5,319.5C 65.8333,324.833 66.1667,330.167 66.5,335.5C 66.717,342.775 66.0503,349.942 64.5,357C 65.0762,358.714 66.2429,359.881 68,360.5C 68.1805,357.305 68.6805,354.305 69.5,351.5 Z"/></g>
<g><path style="opacity:1" fill="#d3f1fb" d="M 167.5,359.5 C 166.025,361.41 164.025,362.576 161.5,363C 158.5,363.167 155.5,363.333 152.5,363.5C 149.087,363.483 146.087,362.816 143.5,361.5C 151.702,363.2 159.702,362.533 167.5,359.5 Z"/></g>
<g><path style="opacity:1" fill="#e1f6fc" d="M 233.5,353.5 C 235.341,355.849 236.674,358.515 237.5,361.5C 244.313,362.491 251.313,362.825 258.5,362.5C 258.737,361.209 258.404,360.209 257.5,359.5C 256.833,358.5 256.167,357.5 255.5,356.5C 255.5,356.167 255.5,355.833 255.5,355.5C 255.5,355.167 255.5,354.833 255.5,354.5C 257.117,355.038 258.784,355.371 260.5,355.5C 260.664,358.187 260.497,360.854 260,363.5C 258.324,364.061 256.991,365.061 256,366.5C 255.517,365.552 255.351,364.552 255.5,363.5C 249.107,363.464 242.773,363.631 236.5,364C 234.498,360.887 233.498,357.387 233.5,353.5 Z"/></g>
<g><path style="opacity:1" fill="#5895b6" d="M 257.5,359.5 C 258.404,360.209 258.737,361.209 258.5,362.5C 251.313,362.825 244.313,362.491 237.5,361.5C 238.167,361.5 238.833,361.5 239.5,361.5C 245.926,362.12 251.926,361.453 257.5,359.5 Z"/></g>
<g><path style="opacity:1" fill="#1a6fa1" d="M 255.5,356.5 C 256.167,357.5 256.833,358.5 257.5,359.5C 251.926,361.453 245.926,362.12 239.5,361.5C 244.833,360.833 250.167,360.167 255.5,359.5C 255.5,358.5 255.5,357.5 255.5,356.5 Z"/></g>
<g><path style="opacity:1" fill="#046cc4" d="M 255.5,356.5 C 255.5,357.5 255.5,358.5 255.5,359.5C 249.833,359.5 244.167,359.5 238.5,359.5C 238.5,358.5 238.5,357.5 238.5,356.5C 244.167,356.5 249.833,356.5 255.5,356.5 Z"/></g>
<g><path style="opacity:1" fill="#cfc3ba" d="M 175.5,401.5 C 223.505,401.167 271.505,401.5 319.5,402.5C 295.5,402.833 271.5,403.167 247.5,403.5C 223.157,403.5 199.157,402.833 175.5,401.5 Z"/></g>
<g><path style="opacity:1" fill="#bdc7d3" d="M 175.5,404.5 C 223.505,404.167 271.505,404.5 319.5,405.5C 295.5,405.833 271.5,406.167 247.5,406.5C 223.157,406.5 199.157,405.833 175.5,404.5 Z"/></g>
<g><path style="opacity:1" fill="#cfc2ba" d="M 319.5,409.5 C 271.5,409.5 223.5,409.5 175.5,409.5C 199.157,408.167 223.157,407.5 247.5,407.5C 271.843,407.5 295.843,408.167 319.5,409.5 Z"/></g>
<g><path style="opacity:1" fill="#bac8d0" d="M 495.5,411.5 C 495.167,411.5 494.833,411.5 494.5,411.5C 385.335,410.501 276.001,410.167 166.5,410.5C 169.287,409.523 172.287,409.19 175.5,409.5C 223.5,409.5 271.5,409.5 319.5,409.5C 374.501,409.667 429.501,409.5 484.5,409C 485.766,408.691 486.933,408.191 488,407.5C 490.953,408.324 493.453,409.657 495.5,411.5 Z"/></g>
<g><path style="opacity:1" fill="#8db4ce" d="M 166.5,410.5 C 276.001,410.167 385.335,410.501 494.5,411.5C 439.5,411.5 384.5,411.5 329.5,411.5C 274.163,411.167 218.829,411.5 163.5,412.5C 163.624,413.107 163.957,413.44 164.5,413.5C 165.5,416.167 166.5,418.833 167.5,421.5C 166.504,421.586 165.671,421.252 165,420.5C 164.297,418.22 163.131,416.22 161.5,414.5C 162.246,413.264 162.579,411.93 162.5,410.5C 163.833,410.5 165.167,410.5 166.5,410.5 Z"/></g>
<g><path style="opacity:1" fill="#fefefe" d="M -0.5,411.5 C 40.5,411.5 81.5,411.5 122.5,411.5C 129.032,427.894 137.199,443.561 147,458.5C 161.864,479.748 178.697,499.248 197.5,517C 236.609,550.365 279.276,577.865 325.5,599.5C 216.833,599.5 108.167,599.5 -0.5,599.5C -0.5,536.833 -0.5,474.167 -0.5,411.5 Z"/></g>
<g><path style="opacity:1" fill="#134260" d="M 329.5,412.5 C 329.5,412.167 329.5,411.833 329.5,411.5C 384.5,411.5 439.5,411.5 494.5,411.5C 493.637,413.421 492.971,415.421 492.5,417.5C 488.414,424.007 484.08,430.34 479.5,436.5C 479.5,434.833 479.5,433.167 479.5,431.5C 480.5,431.5 481.5,431.5 482.5,431.5C 481.823,427.691 483.157,424.858 486.5,423C 487.479,420.567 488.145,418.067 488.5,415.5C 492.456,414.947 492.456,414.114 488.5,413C 435.501,412.5 382.501,412.333 329.5,412.5 Z"/></g>
<g><path style="opacity:1" fill="#fefefe" d="M 669.5,411.5 C 669.5,474.167 669.5,536.833 669.5,599.5C 556.833,599.5 444.167,599.5 331.5,599.5C 377.324,577.857 419.657,550.69 458.5,518C 486.112,493.188 508.779,464.688 526.5,432.5C 529.921,426.482 532.588,420.148 534.5,413.5C 579.282,411.513 624.282,410.847 669.5,411.5 Z"/></g>
<g><path style="opacity:1" fill="#a3a4a4" d="M 494.5,411.5 C 494.833,411.5 495.167,411.5 495.5,411.5C 508.876,410.852 521.876,411.519 534.5,413.5C 532.588,420.148 529.921,426.482 526.5,432.5C 508.779,464.688 486.112,493.188 458.5,518C 419.657,550.69 377.324,577.857 331.5,599.5C 330.833,599.5 330.167,599.5 329.5,599.5C 329.5,583.5 329.5,567.5 329.5,551.5C 345.8,544.85 361.467,536.85 376.5,527.5C 385.144,523.364 392.81,518.03 399.5,511.5C 400.167,511.5 400.833,511.5 401.5,511.5C 409.185,506.141 416.851,500.808 424.5,495.5C 428.281,495.704 430.614,494.037 431.5,490.5C 432.552,490.649 433.552,490.483 434.5,490C 436.065,486.581 438.732,484.581 442.5,484C 443.38,482.644 443.714,481.144 443.5,479.5C 444.833,479.5 446.167,479.5 447.5,479.5C 447.5,478.167 447.5,476.833 447.5,475.5C 448.552,475.649 449.552,475.483 450.5,475C 452.577,471.629 455.577,469.796 459.5,469.5C 458.887,466.031 460.221,464.031 463.5,463.5C 463.5,461.833 463.5,460.167 463.5,458.5C 463.5,458.167 463.5,457.833 463.5,457.5C 470.107,458.059 473.273,455.059 473,448.5C 474.667,446.157 476.667,444.157 479,442.5C 479.49,441.207 479.657,439.873 479.5,438.5C 480.117,438.611 480.617,438.944 481,439.5C 482.481,436.89 483.648,434.223 484.5,431.5C 485.5,431.5 486.5,431.5 487.5,431.5C 489.685,427.108 491.352,422.441 492.5,417.5C 492.971,415.421 493.637,413.421 494.5,411.5 Z"/></g>
<g><path style="opacity:1" fill="#016fb7" d="M 324.5,413.5 C 274.829,413.167 225.162,413.5 175.5,414.5C 224.495,415.5 273.495,415.833 322.5,415.5C 323.165,458.182 323.165,500.849 322.5,543.5C 320.473,543.338 318.473,543.505 316.5,544C 317.056,544.383 317.389,544.883 317.5,545.5C 316.167,545.5 314.833,545.5 313.5,545.5C 309.412,543.692 305.412,541.692 301.5,539.5C 294.405,535.073 287.071,531.073 279.5,527.5C 276.55,525.885 273.884,523.885 271.5,521.5C 271.5,520.5 271.5,519.5 271.5,518.5C 268.644,517.172 265.644,516.172 262.5,515.5C 260.184,514.194 257.85,512.861 255.5,511.5C 255.5,511.167 255.5,510.833 255.5,510.5C 254.611,508.264 253.278,506.264 251.5,504.5C 247.924,501.952 243.924,500.285 239.5,499.5C 239.67,498.178 239.337,497.011 238.5,496C 236.146,495.153 233.812,494.32 231.5,493.5C 229.14,491.147 226.473,489.147 223.5,487.5C 216.031,479.505 208.198,471.838 200,464.5C 194.927,458.936 190.094,453.269 185.5,447.5C 185.067,444.834 184.567,442.168 184,439.5C 182.933,438.809 181.766,438.309 180.5,438C 178.913,435.594 177.247,433.428 175.5,431.5C 172.853,428.236 170.186,424.903 167.5,421.5C 166.5,418.833 165.5,416.167 164.5,413.5C 217.833,412.167 271.167,412.167 324.5,413.5 Z"/></g>
<g><path style="opacity:1" fill="#0071bd" d="M 324.5,413.5 C 325.167,413.5 325.5,413.833 325.5,414.5C 325.5,458.167 325.5,501.833 325.5,545.5C 322.833,545.5 320.167,545.5 317.5,545.5C 317.389,544.883 317.056,544.383 316.5,544C 318.473,543.505 320.473,543.338 322.5,543.5C 323.165,500.849 323.165,458.182 322.5,415.5C 273.495,415.833 224.495,415.5 175.5,414.5C 225.162,413.5 274.829,413.167 324.5,413.5 Z"/></g>
<g><path style="opacity:1" fill="#156da6" d="M 329.5,411.5 C 329.5,411.833 329.5,412.167 329.5,412.5C 329.5,456.167 329.5,499.833 329.5,543.5C 328.167,500.5 326.833,457.5 325.5,414.5C 325.5,413.833 325.167,413.5 324.5,413.5C 271.167,412.167 217.833,412.167 164.5,413.5C 163.957,413.44 163.624,413.107 163.5,412.5C 218.829,411.5 274.163,411.167 329.5,411.5 Z"/></g>
<g><path style="opacity:1" fill="#034b77" d="M 388.5,516.5 C 388.047,517.458 387.381,518.292 386.5,519C 384.444,519.311 382.444,519.811 380.5,520.5C 378.99,522.509 377.323,524.342 375.5,526C 376.056,526.383 376.389,526.883 376.5,527.5C 361.467,536.85 345.8,544.85 329.5,551.5C 329.5,550.833 329.5,550.167 329.5,549.5C 332.022,547.828 334.688,546.328 337.5,545C 335.323,543.798 332.989,543.298 330.5,543.5C 330.5,500.833 330.5,458.167 330.5,415.5C 332.167,415.5 333.833,415.5 335.5,415.5C 334.828,452.853 334.828,490.186 335.5,527.5C 341.509,527.334 347.509,527.501 353.5,528C 356.576,528.911 358.909,530.744 360.5,533.5C 362.922,532.096 363.589,530.263 362.5,528C 364.134,527.506 365.801,527.34 367.5,527.5C 367.18,524.102 367.513,520.768 368.5,517.5C 370.954,524.033 372.12,523.699 372,516.5C 370.701,516.966 369.201,516.966 367.5,516.5C 367.5,514.833 367.5,513.167 367.5,511.5C 371.846,511.334 376.179,511.501 380.5,512C 380.167,512.333 379.833,512.667 379.5,513C 382.199,513.966 384.033,515.8 385,518.5C 385.816,517.177 386.983,516.511 388.5,516.5 Z"/></g>
<g><path style="opacity:1" fill="#024a7a" d="M 329.5,412.5 C 382.501,412.333 435.501,412.5 488.5,413C 492.456,414.114 492.456,414.947 488.5,415.5C 488.145,418.067 487.479,420.567 486.5,423C 483.157,424.858 481.823,427.691 482.5,431.5C 481.5,431.5 480.5,431.5 479.5,431.5C 479.5,433.167 479.5,434.833 479.5,436.5C 479.5,437.167 479.5,437.833 479.5,438.5C 479.167,438.5 478.833,438.5 478.5,438.5C 478.315,436.804 477.481,435.471 476,434.5C 472.725,440.731 468.725,446.397 464,451.5C 463.51,450.207 463.343,448.873 463.5,447.5C 458.167,447.5 452.833,447.5 447.5,447.5C 447.5,452.833 447.5,458.167 447.5,463.5C 442.167,463.5 436.833,463.5 431.5,463.5C 431.334,467.846 431.501,472.179 432,476.5C 433.163,474.715 433.83,472.715 434,470.5C 435.439,472.275 436.439,474.275 437,476.5C 437.5,476 438,475.5 438.5,475C 436.961,471.086 438.294,469.419 442.5,470C 441.247,472.686 440.247,475.853 439.5,479.5C 438.167,480.5 436.833,481.5 435.5,482.5C 434.494,482.062 434.494,481.396 435.5,480.5C 430.5,479.167 425.5,479.167 420.5,480.5C 421.506,481.396 421.506,482.062 420.5,482.5C 419.614,481.675 419.281,480.675 419.5,479.5C 416.5,479.167 415.167,480.5 415.5,483.5C 417.103,483.312 418.437,483.812 419.5,485C 415.95,487.546 414.617,491.046 415.5,495.5C 413.516,495.383 411.85,496.05 410.5,497.5C 409.304,497.154 409.304,496.654 410.5,496C 406.848,495.501 403.182,495.335 399.5,495.5C 399.5,496.5 399.5,497.5 399.5,498.5C 402.58,497.304 405.413,497.304 408,498.5C 408.743,500.441 408.576,502.274 407.5,504C 404.753,504.112 402.253,503.946 400,503.5C 399.688,506.309 400.188,508.976 401.5,511.5C 400.833,511.5 400.167,511.5 399.5,511.5C 395.716,512.892 392.049,514.559 388.5,516.5C 386.983,516.511 385.816,517.177 385,518.5C 384.033,515.8 382.199,513.966 379.5,513C 379.833,512.667 380.167,512.333 380.5,512C 376.179,511.501 371.846,511.334 367.5,511.5C 367.5,513.167 367.5,514.833 367.5,516.5C 369.201,516.966 370.701,516.966 372,516.5C 372.12,523.699 370.954,524.033 368.5,517.5C 367.513,520.768 367.18,524.102 367.5,527.5C 365.801,527.34 364.134,527.506 362.5,528C 363.589,530.263 362.922,532.096 360.5,533.5C 358.909,530.744 356.576,528.911 353.5,528C 347.509,527.501 341.509,527.334 335.5,527.5C 334.828,490.186 334.828,452.853 335.5,415.5C 333.833,415.5 332.167,415.5 330.5,415.5C 330.5,458.167 330.5,500.833 330.5,543.5C 332.989,543.298 335.323,543.798 337.5,545C 334.688,546.328 332.022,547.828 329.5,549.5C 329.5,548.833 329.5,548.167 329.5,547.5C 329.5,546.167 329.5,544.833 329.5,543.5C 329.5,499.833 329.5,456.167 329.5,412.5 Z"/></g>
<g><path style="opacity:1" fill="#87a0af" d="M 492.5,417.5 C 491.352,422.441 489.685,427.108 487.5,431.5C 486.5,431.5 485.5,431.5 484.5,431.5C 483.648,434.223 482.481,436.89 481,439.5C 480.617,438.944 480.117,438.611 479.5,438.5C 479.5,437.833 479.5,437.167 479.5,436.5C 484.08,430.34 488.414,424.007 492.5,417.5 Z"/></g>
<g><path style="opacity:1" fill="#2473a9" d="M 175.5,431.5 C 177.247,433.428 178.913,435.594 180.5,438C 181.766,438.309 182.933,438.809 184,439.5C 184.567,442.168 185.067,444.834 185.5,447.5C 185.167,447.5 184.833,447.5 184.5,447.5C 181.5,442.167 178.5,436.833 175.5,431.5 Z"/></g>
<g><path style="opacity:1" fill="#91a1aa" d="M 478.5,438.5 C 478.833,438.5 479.167,438.5 479.5,438.5C 479.657,439.873 479.49,441.207 479,442.5C 476.667,444.157 474.667,446.157 473,448.5C 473.273,455.059 470.107,458.059 463.5,457.5C 468.881,451.454 473.881,445.121 478.5,438.5 Z"/></g>
<g><path style="opacity:1" fill="#aac5d9" d="M 184.5,447.5 C 184.833,447.5 185.167,447.5 185.5,447.5C 190.094,453.269 194.927,458.936 200,464.5C 208.198,471.838 216.031,479.505 223.5,487.5C 218.8,487.32 215.8,484.987 214.5,480.5C 209.852,476.359 205.019,472.359 200,468.5C 199.598,467.128 199.098,465.795 198.5,464.5C 195.807,462.959 193.141,461.626 190.5,460.5C 189.271,455.715 187.271,451.381 184.5,447.5 Z"/></g>
<g><path style="opacity:1" fill="#8ea2af" d="M 463.5,458.5 C 463.5,460.167 463.5,461.833 463.5,463.5C 460.221,464.031 458.887,466.031 459.5,469.5C 455.577,469.796 452.577,471.629 450.5,475C 449.552,475.483 448.552,475.649 447.5,475.5C 452.439,469.558 457.773,463.891 463.5,458.5 Z"/></g>
<g><path style="opacity:1" fill="#084b77" d="M 478.5,438.5 C 473.881,445.121 468.881,451.454 463.5,457.5C 463.5,457.833 463.5,458.167 463.5,458.5C 457.773,463.891 452.439,469.558 447.5,475.5C 439.808,482.196 432.141,488.862 424.5,495.5C 416.851,500.808 409.185,506.141 401.5,511.5C 400.188,508.976 399.688,506.309 400,503.5C 402.253,503.946 404.753,504.112 407.5,504C 408.576,502.274 408.743,500.441 408,498.5C 405.413,497.304 402.58,497.304 399.5,498.5C 399.5,497.5 399.5,496.5 399.5,495.5C 403.182,495.335 406.848,495.501 410.5,496C 409.304,496.654 409.304,497.154 410.5,497.5C 411.85,496.05 413.516,495.383 415.5,495.5C 414.617,491.046 415.95,487.546 419.5,485C 418.437,483.812 417.103,483.312 415.5,483.5C 415.167,480.5 416.5,479.167 419.5,479.5C 419.281,480.675 419.614,481.675 420.5,482.5C 421.506,482.062 421.506,481.396 420.5,480.5C 425.5,479.167 430.5,479.167 435.5,480.5C 434.494,481.396 434.494,482.062 435.5,482.5C 436.833,481.5 438.167,480.5 439.5,479.5C 440.247,475.853 441.247,472.686 442.5,470C 438.294,469.419 436.961,471.086 438.5,475C 438,475.5 437.5,476 437,476.5C 436.439,474.275 435.439,472.275 434,470.5C 433.83,472.715 433.163,474.715 432,476.5C 431.501,472.179 431.334,467.846 431.5,463.5C 436.833,463.5 442.167,463.5 447.5,463.5C 447.5,458.167 447.5,452.833 447.5,447.5C 452.833,447.5 458.167,447.5 463.5,447.5C 463.343,448.873 463.51,450.207 464,451.5C 468.725,446.397 472.725,440.731 476,434.5C 477.481,435.471 478.315,436.804 478.5,438.5 Z"/></g>
<g><path style="opacity:1" fill="#8ca3ae" d="M 447.5,475.5 C 447.5,476.833 447.5,478.167 447.5,479.5C 446.167,479.5 444.833,479.5 443.5,479.5C 443.714,481.144 443.38,482.644 442.5,484C 438.732,484.581 436.065,486.581 434.5,490C 433.552,490.483 432.552,490.649 431.5,490.5C 430.614,494.037 428.281,495.704 424.5,495.5C 432.141,488.862 439.808,482.196 447.5,475.5 Z"/></g>
<g><path style="opacity:1" fill="#2f76a6" d="M 231.5,493.5 C 233.812,494.32 236.146,495.153 238.5,496C 239.337,497.011 239.67,498.178 239.5,499.5C 236.527,497.853 233.86,495.853 231.5,493.5 Z"/></g>
<g><path style="opacity:1" fill="#a5c3db" d="M 239.5,500.5 C 244.851,503.86 250.184,507.193 255.5,510.5C 255.5,510.833 255.5,511.167 255.5,511.5C 254.127,511.657 252.793,511.49 251.5,511C 248.514,507.569 244.848,505.069 240.5,503.5C 239.614,502.675 239.281,501.675 239.5,500.5 Z"/></g>
<g><path style="opacity:1" fill="#2173a9" d="M 239.5,500.5 C 239.5,500.167 239.5,499.833 239.5,499.5C 243.924,500.285 247.924,501.952 251.5,504.5C 253.278,506.264 254.611,508.264 255.5,510.5C 250.184,507.193 244.851,503.86 239.5,500.5 Z"/></g>
<g><path style="opacity:1" fill="#036fb4" d="M 325.5,414.5 C 326.833,457.5 328.167,500.5 329.5,543.5C 329.5,544.833 329.5,546.167 329.5,547.5C 328.85,547.804 328.183,548.137 327.5,548.5C 323.878,548.048 320.545,547.048 317.5,545.5C 320.167,545.5 322.833,545.5 325.5,545.5C 325.5,501.833 325.5,458.167 325.5,414.5 Z"/></g>
<g><path style="opacity:1" fill="#2b71a0" d="M 262.5,515.5 C 265.644,516.172 268.644,517.172 271.5,518.5C 271.5,519.5 271.5,520.5 271.5,521.5C 267.975,520.241 264.975,518.241 262.5,515.5 Z"/></g>
<g><path style="opacity:1" fill="#174b6b" d="M 399.5,511.5 C 392.81,518.03 385.144,523.364 376.5,527.5C 376.389,526.883 376.056,526.383 375.5,526C 377.323,524.342 378.99,522.509 380.5,520.5C 382.444,519.811 384.444,519.311 386.5,519C 387.381,518.292 388.047,517.458 388.5,516.5C 392.049,514.559 395.716,512.892 399.5,511.5 Z"/></g>
<g><path style="opacity:1" fill="#b3c6d4" d="M 255.5,511.5 C 257.85,512.861 260.184,514.194 262.5,515.5C 264.975,518.241 267.975,520.241 271.5,521.5C 273.884,523.885 276.55,525.885 279.5,527.5C 276.162,526.147 272.829,525.48 269.5,525.5C 264.294,521.259 259.627,516.592 255.5,511.5 Z"/></g>
<g><path style="opacity:1" fill="#bdc5ce" d="M 279.5,527.5 C 287.071,531.073 294.405,535.073 301.5,539.5C 298.05,538.09 294.384,537.424 290.5,537.5C 290.5,538.5 290.5,539.5 290.5,540.5C 287.15,540.335 283.817,540.502 280.5,541C 277.829,542.903 274.829,543.736 271.5,543.5C 271.5,542.5 271.5,541.5 271.5,540.5C 272.552,540.649 273.552,540.483 274.5,540C 277.016,534.108 281.016,532.941 286.5,536.5C 287.429,535.311 287.762,533.978 287.5,532.5C 282.825,533.661 280.159,531.994 279.5,527.5 Z"/></g>
<g><path style="opacity:1" fill="#2e75a4" d="M 313.5,545.5 C 314.833,545.5 316.167,545.5 317.5,545.5C 320.545,547.048 323.878,548.048 327.5,548.5C 328.183,548.137 328.85,547.804 329.5,547.5C 329.5,548.167 329.5,548.833 329.5,549.5C 329.5,550.167 329.5,550.833 329.5,551.5C 323.504,551.164 318.17,549.164 313.5,545.5 Z"/></g>
</svg>
