<?xml version="1.0" encoding="UTF-8"?>
<!DOCTYPE svg PUBLIC "-//W3C//DTD SVG 1.1//EN" "http://www.w3.org/Graphics/SVG/1.1/DTD/svg11.dtd">
<svg xmlns="http://www.w3.org/2000/svg" version="1.1" width="530px" height="610px" style="shape-rendering:geometricPrecision; text-rendering:geometricPrecision; image-rendering:optimizeQuality; fill-rule:evenodd; clip-rule:evenodd" xmlns:xlink="http://www.w3.org/1999/xlink">
<g><path style="opacity:0.981" fill="#020202" d="M 264.5,-0.5 C 264.833,-0.5 265.167,-0.5 265.5,-0.5C 276.671,45.8493 288.004,92.1826 299.5,138.5C 306.032,167.628 313.032,196.628 320.5,225.5C 330.301,264.372 339.634,303.372 348.5,342.5C 348.328,343.492 348.662,344.158 349.5,344.5C 356.617,375.192 363.951,405.859 371.5,436.5C 344.175,437.5 316.841,437.833 289.5,437.5C 272.833,437.5 256.167,437.5 239.5,437.5C 212.492,437.833 185.492,437.5 158.5,436.5C 166.98,403.581 174.98,370.581 182.5,337.5C 191.498,300.172 200.498,262.839 209.5,225.5C 217.128,196.706 224.128,167.706 230.5,138.5C 241.987,92.2197 253.32,45.8864 264.5,-0.5 Z"/></g>
<g><path style="opacity:1" fill="#faf9f7" d="M 264.5,73.5 C 266.678,77.4813 268.178,81.8147 269,86.5C 296.151,197.772 322.985,309.105 349.5,420.5C 293.167,420.5 236.833,420.5 180.5,420.5C 208.027,304.723 236.027,189.057 264.5,73.5 Z"/></g>
<g><path style="opacity:0.997" fill="#52879f" d="M 230.5,138.5 C 224.128,167.706 217.128,196.706 209.5,225.5C 178.832,225.333 148.165,225.5 117.5,226C 139.319,263.148 160.986,300.314 182.5,337.5C 174.98,370.581 166.98,403.581 158.5,436.5C 185.492,437.5 212.492,437.833 239.5,437.5C 243.765,444.365 247.765,451.365 251.5,458.5C 218.5,459.833 185.5,459.833 152.5,458.5C 103.678,374.194 54.845,289.861 6,205.5C 3.22592,200.633 1.05926,195.633 -0.5,190.5C -0.5,184.833 -0.5,179.167 -0.5,173.5C 4.9861,154.184 17.6528,142.684 37.5,139C 101.832,138.5 166.166,138.333 230.5,138.5 Z"/></g>
<g><path style="opacity:0.996" fill="#52889f" d="M 299.5,138.5 C 363.501,138.333 427.501,138.5 491.5,139C 511.342,142.678 524.008,154.178 529.5,173.5C 529.5,179.167 529.5,184.833 529.5,190.5C 527.606,196.301 525.106,201.968 522,207.5C 512.833,223.167 503.667,238.833 494.5,254.5C 461.172,255.667 427.838,255.833 394.5,255C 400.167,245.333 405.833,235.667 411.5,226C 381.168,225.5 350.835,225.333 320.5,225.5C 313.032,196.628 306.032,167.628 299.5,138.5 Z"/></g>
<g><path style="opacity:1" fill="#f0c532" d="M 276.5,197.5 C 275.732,198.263 275.232,199.263 275,200.5C 273.184,198.559 271.184,197.892 269,198.5C 266.432,196.364 264.098,196.364 262,198.5C 261.768,197.263 261.268,196.263 260.5,195.5C 261.911,190.982 262.577,186.316 262.5,181.5C 262.235,174.909 261.068,168.576 259,162.5C 265.899,173.631 271.732,185.298 276.5,197.5 Z"/></g>
<g><path style="opacity:1" fill="#f5db36" d="M 260.5,195.5 C 261.268,196.263 261.768,197.263 262,198.5C 264.098,196.364 266.432,196.364 269,198.5C 271.184,197.892 273.184,198.559 275,200.5C 275.232,199.263 275.732,198.263 276.5,197.5C 278.957,201.87 280.624,206.536 281.5,211.5C 280.732,212.263 280.232,213.263 280,214.5C 272.191,213.087 264.691,211.087 257.5,208.5C 258.343,204.127 259.343,199.793 260.5,195.5 Z"/></g>
<g><path style="opacity:1" fill="#f9e938" d="M 257.5,208.5 C 264.691,211.087 272.191,213.087 280,214.5C 280.232,213.263 280.732,212.263 281.5,211.5C 283.832,216.126 285.165,221.126 285.5,226.5C 284.732,225.737 284.232,224.737 284,223.5C 283.667,224.167 283.333,224.833 283,225.5C 273.804,221.937 264.304,219.271 254.5,217.5C 254.928,214.215 255.928,211.215 257.5,208.5 Z"/></g>
<g><path style="opacity:1" fill="#fdf93b" d="M 254.5,217.5 C 264.304,219.271 273.804,221.937 283,225.5C 283.333,224.833 283.667,224.167 284,223.5C 284.232,224.737 284.732,225.737 285.5,226.5C 287.31,237.647 285.643,248.313 280.5,258.5C 275.612,256.153 270.445,254.153 265,252.5C 263.107,251.673 260.941,251.673 258.5,252.5C 253.364,249.886 248.03,247.886 242.5,246.5C 246.264,236.651 250.264,226.985 254.5,217.5 Z"/></g>
<g><path style="opacity:1" fill="#e05368" d="M 291.5,235.5 C 291.026,242.984 289.693,250.317 287.5,257.5C 289.909,247.304 289.909,237.138 287.5,227C 287.611,225.278 288.111,225.112 289,226.5C 289.849,229.521 290.683,232.521 291.5,235.5 Z"/></g>
<g><path style="opacity:1" fill="#db132d" d="M 291.5,235.5 C 293.283,239.634 294.283,243.967 294.5,248.5C 295.232,257.815 295.566,267.148 295.5,276.5C 295.552,278.903 295.219,281.236 294.5,283.5C 293.076,285.515 292.41,287.848 292.5,290.5C 291.833,291.833 291.167,293.167 290.5,294.5C 286.798,294.539 282.798,294.372 278.5,294C 277.333,293.5 276.5,292.667 276,291.5C 275.617,292.056 275.117,292.389 274.5,292.5C 279.683,281.137 284.016,269.47 287.5,257.5C 289.693,250.317 291.026,242.984 291.5,235.5 Z"/></g>
<g><path style="opacity:1" fill="#f8e536" d="M 242.5,246.5 C 248.03,247.886 253.364,249.886 258.5,252.5C 260.941,251.673 263.107,251.673 265,252.5C 270.445,254.153 275.612,256.153 280.5,258.5C 279.397,262.497 277.731,266.164 275.5,269.5C 275.772,265.143 273.938,263.477 270,264.5C 266.556,263.073 263.056,261.74 259.5,260.5C 256.893,261.034 254.393,260.367 252,258.5C 251.667,258.833 251.333,259.167 251,259.5C 247.517,258.141 244.184,256.474 241,254.5C 240.329,255.252 239.496,255.586 238.5,255.5C 239.561,252.378 240.895,249.378 242.5,246.5 Z"/></g>
<g><path style="opacity:1" fill="#f5d933" d="M 275.5,269.5 C 274.674,272.485 273.341,275.151 271.5,277.5C 271.5,276.5 271.5,275.5 271.5,274.5C 268.832,274.334 266.498,273.334 264.5,271.5C 263.833,271.833 263.167,272.167 262.5,272.5C 260.709,271.076 258.875,269.742 257,268.5C 255.984,269.634 255.317,269.301 255,267.5C 254.107,268.081 253.107,268.415 252,268.5C 249.645,267.487 247.311,266.487 245,265.5C 244.667,265.833 244.333,266.167 244,266.5C 241.069,265.284 238.236,263.95 235.5,262.5C 236.264,259.982 237.264,257.649 238.5,255.5C 239.496,255.586 240.329,255.252 241,254.5C 244.184,256.474 247.517,258.141 251,259.5C 251.333,259.167 251.667,258.833 252,258.5C 254.393,260.367 256.893,261.034 259.5,260.5C 263.056,261.74 266.556,263.073 270,264.5C 273.938,263.477 275.772,265.143 275.5,269.5 Z"/></g>
<g><path style="opacity:1" fill="#e46a7f" d="M 294.5,248.5 C 296.022,253.748 296.689,259.248 296.5,265C 296.499,269.015 296.165,272.849 295.5,276.5C 295.566,267.148 295.232,257.815 294.5,248.5 Z"/></g>
<g><path style="opacity:1" fill="#e48427" d="M 309.5,304.5 C 309.666,298.491 309.499,292.491 309,286.5C 308.667,291.167 308.333,295.833 308,300.5C 305.223,301.385 302.056,301.385 298.5,300.5C 298.869,298.007 298.203,297.34 296.5,298.5C 300.084,282.307 301.25,265.974 300,249.5C 309.226,266.857 312.392,285.19 309.5,304.5 Z"/></g>
<g><path style="opacity:1" fill="#f2cd31" d="M 235.5,262.5 C 238.236,263.95 241.069,265.284 244,266.5C 244.333,266.167 244.667,265.833 245,265.5C 247.311,266.487 249.645,267.487 252,268.5C 253.107,268.415 254.107,268.081 255,267.5C 255.317,269.301 255.984,269.634 257,268.5C 258.875,269.742 260.709,271.076 262.5,272.5C 263.167,272.167 263.833,271.833 264.5,271.5C 266.498,273.334 268.832,274.334 271.5,274.5C 271.5,275.5 271.5,276.5 271.5,277.5C 270.674,280.485 269.341,283.151 267.5,285.5C 267.5,284.167 267.5,282.833 267.5,281.5C 255.455,278.959 243.955,275.625 233,271.5C 232.583,272.756 231.75,273.423 230.5,273.5C 231.93,269.646 233.597,265.979 235.5,262.5 Z"/></g>
<g><path style="opacity:1" fill="#edb92c" d="M 267.5,285.5 C 265.072,290.693 262.405,295.693 259.5,300.5C 259.649,299.448 259.483,298.448 259,297.5C 258.667,297.833 258.333,298.167 258,298.5C 250.669,295.75 243.336,292.75 236,289.5C 233.203,289.413 230.37,289.413 227.5,289.5C 226.808,288.975 226.308,288.308 226,287.5C 225.583,288.756 224.75,289.423 223.5,289.5C 225.286,283.928 227.619,278.595 230.5,273.5C 231.75,273.423 232.583,272.756 233,271.5C 243.955,275.625 255.455,278.959 267.5,281.5C 267.5,282.833 267.5,284.167 267.5,285.5 Z"/></g>
<g><path style="opacity:1" fill="#eda7b0" d="M 294.5,283.5 C 294.59,286.152 293.924,288.485 292.5,290.5C 292.41,287.848 293.076,285.515 294.5,283.5 Z"/></g>
<g><path style="opacity:1" fill="#eaa827" d="M 259.5,300.5 C 258.674,303.485 257.341,306.151 255.5,308.5C 255.5,307.167 255.5,305.833 255.5,304.5C 251.087,304.147 246.754,303.314 242.5,302C 236.518,300.205 230.685,298.039 225,295.5C 223.436,295.912 221.936,296.245 220.5,296.5C 220.935,293.843 221.935,291.509 223.5,289.5C 224.75,289.423 225.583,288.756 226,287.5C 226.308,288.308 226.808,288.975 227.5,289.5C 230.37,289.413 233.203,289.413 236,289.5C 243.336,292.75 250.669,295.75 258,298.5C 258.333,298.167 258.667,297.833 259,297.5C 259.483,298.448 259.649,299.448 259.5,300.5 Z"/></g>
<g><path style="opacity:1" fill="#e79a24" d="M 255.5,308.5 C 255.065,311.157 254.065,313.491 252.5,315.5C 252.719,314.325 252.386,313.325 251.5,312.5C 251.167,313.167 250.833,313.833 250.5,314.5C 249.086,313.376 247.586,312.376 246,311.5C 245.667,311.833 245.333,312.167 245,312.5C 241.69,311.474 238.523,310.141 235.5,308.5C 234.833,308.833 234.167,309.167 233.5,309.5C 231.249,307.313 228.749,306.647 226,307.5C 225.667,306.833 225.333,306.167 225,305.5C 222.239,306.449 219.406,306.449 216.5,305.5C 217.463,302.256 218.796,299.256 220.5,296.5C 221.936,296.245 223.436,295.912 225,295.5C 230.685,298.039 236.518,300.205 242.5,302C 246.754,303.314 251.087,304.147 255.5,304.5C 255.5,305.833 255.5,307.167 255.5,308.5 Z"/></g>
<g><path style="opacity:1" fill="#dc341d" d="M 290.5,294.5 C 289.464,300.285 287.464,305.618 284.5,310.5C 282.26,309.027 279.76,308.027 277,307.5C 273.98,308.081 270.98,308.415 268,308.5C 267.536,307.906 267.369,307.239 267.5,306.5C 269.326,301.516 271.659,296.849 274.5,292.5C 275.117,292.389 275.617,292.056 276,291.5C 276.5,292.667 277.333,293.5 278.5,294C 282.798,294.372 286.798,294.539 290.5,294.5 Z"/></g>
<g><path style="opacity:1" fill="#e58c21" d="M 252.5,315.5 C 251.342,318.989 250.009,322.322 248.5,325.5C 239.403,323.549 229.737,321.215 219.5,318.5C 216.795,317.432 215.295,315.432 215,312.5C 214.617,313.056 214.117,313.389 213.5,313.5C 214.108,310.673 215.108,308.007 216.5,305.5C 219.406,306.449 222.239,306.449 225,305.5C 225.333,306.167 225.667,306.833 226,307.5C 228.749,306.647 231.249,307.313 233.5,309.5C 234.167,309.167 234.833,308.833 235.5,308.5C 238.523,310.141 241.69,311.474 245,312.5C 245.333,312.167 245.667,311.833 246,311.5C 247.586,312.376 249.086,313.376 250.5,314.5C 250.833,313.833 251.167,313.167 251.5,312.5C 252.386,313.325 252.719,314.325 252.5,315.5 Z"/></g>
<g><path style="opacity:1" fill="#e06517" d="M 309.5,304.5 C 309.57,308.425 308.903,312.091 307.5,315.5C 307.225,313.158 306.392,313.158 305,315.5C 301.162,314.147 297.495,313.147 294,312.5C 293.28,314.056 292.113,315.056 290.5,315.5C 292.899,309.969 294.899,304.302 296.5,298.5C 298.203,297.34 298.869,298.007 298.5,300.5C 302.056,301.385 305.223,301.385 308,300.5C 308.333,295.833 308.667,291.167 309,286.5C 309.499,292.491 309.666,298.491 309.5,304.5 Z"/></g>
<g><path style="opacity:1" fill="#e3801f" d="M 248.5,325.5 C 248.737,326.791 248.404,327.791 247.5,328.5C 247.631,327.761 247.464,327.094 247,326.5C 246.804,328.286 245.971,329.619 244.5,330.5C 234.657,327.219 224.657,324.552 214.5,322.5C 214.649,321.448 214.483,320.448 214,319.5C 213.506,321.134 213.34,322.801 213.5,324.5C 212.143,325.59 211.143,326.924 210.5,328.5C 211.117,323.415 212.117,318.415 213.5,313.5C 214.117,313.389 214.617,313.056 215,312.5C 215.295,315.432 216.795,317.432 219.5,318.5C 229.737,321.215 239.403,323.549 248.5,325.5 Z"/></g>
<g><path style="opacity:1" fill="#de5118" d="M 267.5,306.5 C 267.369,307.239 267.536,307.906 268,308.5C 270.98,308.415 273.98,308.081 277,307.5C 279.76,308.027 282.26,309.027 284.5,310.5C 282.341,316.151 279.674,321.484 276.5,326.5C 271.114,325.995 265.781,325.161 260.5,324C 262.428,322.319 262.761,320.486 261.5,318.5C 262.992,314.182 264.992,310.182 267.5,306.5 Z"/></g>
<g><path style="opacity:1" fill="#dc410f" d="M 307.5,315.5 C 307.258,319.479 306.258,323.146 304.5,326.5C 304.565,326.062 304.399,325.728 304,325.5C 303.581,326.672 302.915,327.672 302,328.5C 297.447,327.561 292.614,327.061 287.5,327C 286.286,329.049 284.62,330.549 282.5,331.5C 285.153,326.193 287.82,320.86 290.5,315.5C 292.113,315.056 293.28,314.056 294,312.5C 297.495,313.147 301.162,314.147 305,315.5C 306.392,313.158 307.225,313.158 307.5,315.5 Z"/></g>
<g><path style="opacity:1" fill="#e2751b" d="M 247.5,328.5 C 247.101,332.116 246.101,335.45 244.5,338.5C 243.838,336.168 242.505,335.501 240.5,336.5C 236.961,334.822 233.461,334.156 230,334.5C 227.193,332.23 224.193,331.23 221,331.5C 218.765,329.798 216.265,328.798 213.5,328.5C 213.5,327.167 213.5,325.833 213.5,324.5C 213.34,322.801 213.506,321.134 214,319.5C 214.483,320.448 214.649,321.448 214.5,322.5C 224.657,324.552 234.657,327.219 244.5,330.5C 245.971,329.619 246.804,328.286 247,326.5C 247.464,327.094 247.631,327.761 247.5,328.5 Z"/></g>
<g><path style="opacity:1" fill="#e16c1e" d="M 213.5,324.5 C 213.5,325.833 213.5,327.167 213.5,328.5C 216.265,328.798 218.765,329.798 221,331.5C 224.193,331.23 227.193,332.23 230,334.5C 233.461,334.156 236.961,334.822 240.5,336.5C 242.505,335.501 243.838,336.168 244.5,338.5C 244.768,340.099 244.434,341.432 243.5,342.5C 243.649,341.448 243.483,340.448 243,339.5C 242.902,341.619 242.069,343.286 240.5,344.5C 231.728,342.196 223.061,339.696 214.5,337C 213.309,336.302 212.309,335.469 211.5,334.5C 210.364,335.681 210.031,339.014 210.5,344.5C 209.243,339.297 209.243,333.964 210.5,328.5C 211.143,326.924 212.143,325.59 213.5,324.5 Z"/></g>
<g><path style="opacity:1" fill="#e1741c" d="M 261.5,318.5 C 262.761,320.486 262.428,322.319 260.5,324C 265.781,325.161 271.114,325.995 276.5,326.5C 270.88,336.742 265.546,347.076 260.5,357.5C 256.802,357.448 253.135,357.114 249.5,356.5C 249.007,354.194 248.674,351.861 248.5,349.5C 251.478,338.55 255.812,328.217 261.5,318.5 Z"/></g>
<g><path style="opacity:1" fill="#e0601c" d="M 211.5,334.5 C 212.309,335.469 213.309,336.302 214.5,337C 223.061,339.696 231.728,342.196 240.5,344.5C 242.069,343.286 242.902,341.619 243,339.5C 243.483,340.448 243.649,341.448 243.5,342.5C 243.5,348.833 243.5,355.167 243.5,361.5C 243.167,361.5 242.833,361.5 242.5,361.5C 242.666,356.156 242.499,350.823 242,345.5C 241.47,352.374 238.803,353.374 234,348.5C 231.391,348.224 228.724,348.224 226,348.5C 224.829,346.384 223.329,345.718 221.5,346.5C 217.747,345.788 214.58,344.121 212,341.5C 211.503,339.19 211.337,336.857 211.5,334.5 Z"/></g>
<g><path style="opacity:1" fill="#ce1709" d="M 304.5,326.5 C 302.457,334.591 299.29,342.258 295,349.5C 283.231,365.084 273.398,381.751 265.5,399.5C 263.051,374.727 268.718,352.06 282.5,331.5C 284.62,330.549 286.286,329.049 287.5,327C 292.614,327.061 297.447,327.561 302,328.5C 302.915,327.672 303.581,326.672 304,325.5C 304.399,325.728 304.565,326.062 304.5,326.5 Z"/></g>
<g><path style="opacity:0.016" fill="#d5e2e7" d="M 348.5,342.5 C 379.931,343.16 411.264,343.826 442.5,344.5C 411.5,344.5 380.5,344.5 349.5,344.5C 348.662,344.158 348.328,343.492 348.5,342.5 Z"/></g>
<g><path style="opacity:1" fill="#52879f" d="M 349.5,344.5 C 380.5,344.5 411.5,344.5 442.5,344.5C 420.806,382.517 399.139,420.517 377.5,458.5C 344.24,459.493 310.906,459.826 277.5,459.5C 277.5,459.167 277.5,458.833 277.5,458.5C 281.247,451.337 285.247,444.337 289.5,437.5C 316.841,437.833 344.175,437.5 371.5,436.5C 363.951,405.859 356.617,375.192 349.5,344.5 Z"/></g>
<g><path style="opacity:1" fill="#dd470f" d="M 211.5,334.5 C 211.337,336.857 211.503,339.19 212,341.5C 214.58,344.121 217.747,345.788 221.5,346.5C 223.329,345.718 224.829,346.384 226,348.5C 228.724,348.224 231.391,348.224 234,348.5C 238.803,353.374 241.47,352.374 242,345.5C 242.499,350.823 242.666,356.156 242.5,361.5C 241.698,362.952 241.198,364.618 241,366.5C 235.585,364.8 229.918,362.8 224,360.5C 223.228,360.645 222.561,360.978 222,361.5C 219.577,360.288 217.244,358.954 215,357.5C 214.536,358.094 214.369,358.761 214.5,359.5C 212.716,354.701 211.382,349.701 210.5,344.5C 210.031,339.014 210.364,335.681 211.5,334.5 Z"/></g>
<g><path style="opacity:1" fill="#be6420" d="M 248.5,349.5 C 248.674,351.861 249.007,354.194 249.5,356.5C 253.135,357.114 256.802,357.448 260.5,357.5C 259.417,362.588 258.084,367.588 256.5,372.5C 254.012,371.399 252.012,372.066 250.5,374.5C 247.487,366.251 246.821,357.918 248.5,349.5 Z"/></g>
<g><path style="opacity:1" fill="#d7300c" d="M 242.5,361.5 C 242.833,361.5 243.167,361.5 243.5,361.5C 244.473,372.75 247.473,383.417 252.5,393.5C 250.252,391.021 247.919,388.521 245.5,386C 241.002,384.959 236.669,383.459 232.5,381.5C 230.712,382.283 229.712,383.616 229.5,385.5C 222.45,378.073 217.45,369.407 214.5,359.5C 214.369,358.761 214.536,358.094 215,357.5C 217.244,358.954 219.577,360.288 222,361.5C 222.561,360.978 223.228,360.645 224,360.5C 229.918,362.8 235.585,364.8 241,366.5C 241.198,364.618 241.698,362.952 242.5,361.5 Z"/></g>
<g><path style="opacity:1" fill="#9a4d15" d="M 256.5,372.5 C 256.544,378.212 256.711,383.879 257,389.5C 254.247,384.67 252.081,379.67 250.5,374.5C 252.012,372.066 254.012,371.399 256.5,372.5 Z"/></g>
<g><path style="opacity:1" fill="#c81709" d="M 252.5,393.5 C 255.077,397.928 257.91,402.261 261,406.5C 261.749,407.635 261.583,408.635 260.5,409.5C 248.432,403.768 238.098,395.768 229.5,385.5C 229.712,383.616 230.712,382.283 232.5,381.5C 236.669,383.459 241.002,384.959 245.5,386C 247.919,388.521 250.252,391.021 252.5,393.5 Z"/></g>
<g><path style="opacity:0.973" fill="#c32628" d="M 152.5,458.5 C 185.5,459.833 218.5,459.833 251.5,458.5C 260.167,458.5 268.833,458.5 277.5,458.5C 277.5,458.833 277.5,459.167 277.5,459.5C 310.664,460.664 343.997,460.831 377.5,460C 378.416,459.722 379.082,459.222 379.5,458.5C 415.839,458.167 452.173,458.5 488.5,459.5C 479.441,480.618 470.108,501.618 460.5,522.5C 420.172,523.5 379.839,523.833 339.5,523.5C 289.5,523.5 239.5,523.5 189.5,523.5C 148.161,523.833 106.828,523.5 65.5,522.5C 55.8921,501.618 46.5587,480.618 37.5,459.5C 75.8275,458.5 114.161,458.167 152.5,458.5 Z"/></g>
<g><path style="opacity:1" fill="#cc1a1d" d="M 377.5,458.5 C 378.167,458.5 378.833,458.5 379.5,458.5C 379.082,459.222 378.416,459.722 377.5,460C 343.997,460.831 310.664,460.664 277.5,459.5C 310.906,459.826 344.24,459.493 377.5,458.5 Z"/></g>
<g><path style="opacity:1" fill="#fdf9f7" d="M 101.5,470.5 C 101.5,470.833 101.5,471.167 101.5,471.5C 100.673,476.985 100.173,482.652 100,488.5C 98.786,490.049 97.286,491.215 95.5,492C 97.286,492.785 98.786,493.951 100,495.5C 100.173,501.348 100.673,507.015 101.5,512.5C 101.5,512.833 101.5,513.167 101.5,513.5C 98.4355,514.818 95.2688,514.818 92,513.5C 91.6667,508.167 91.3333,502.833 91,497.5C 90.3109,496.643 89.4776,495.977 88.5,495.5C 87.5037,501.798 87.1703,508.132 87.5,514.5C 84.1667,514.5 80.8333,514.5 77.5,514.5C 77.5,499.5 77.5,484.5 77.5,469.5C 80.8333,469.5 84.1667,469.5 87.5,469.5C 87.1703,475.868 87.5037,482.202 88.5,488.5C 89.4776,488.023 90.3109,487.357 91,486.5C 91.3333,481.167 91.6667,475.833 92,470.5C 95.2688,469.182 98.4355,469.182 101.5,470.5 Z"/></g>
<g><path style="opacity:1" fill="#fdf8f7" d="M 104.5,469.5 C 107.833,469.5 111.167,469.5 114.5,469.5C 114.5,474.5 114.5,479.5 114.5,484.5C 118.694,484.177 122.527,485.177 126,487.5C 127.969,495.808 127.969,504.141 126,512.5C 125.25,513.126 124.416,513.626 123.5,514C 117.175,514.5 110.842,514.666 104.5,514.5C 104.5,499.5 104.5,484.5 104.5,469.5 Z"/></g>
<g><path style="opacity:1" fill="#faeeec" d="M 130.5,469.5 C 134.167,469.5 137.833,469.5 141.5,469.5C 141.5,484.5 141.5,499.5 141.5,514.5C 137.833,514.5 134.167,514.5 130.5,514.5C 130.5,499.5 130.5,484.5 130.5,469.5 Z"/></g>
<g><path style="opacity:1" fill="#b90408" d="M 166.5,492.5 C 166.5,486.5 166.5,480.5 166.5,474.5C 167.302,473.048 167.802,471.382 168,469.5C 168.667,484.5 168.667,499.5 168,514.5C 167.829,506.989 167.329,499.655 166.5,492.5 Z"/></g>
<g><path style="opacity:1" fill="#fdfaf9" d="M 169.5,469.5 C 175.167,469.5 180.833,469.5 186.5,469.5C 186.5,472.5 186.5,475.5 186.5,478.5C 184.167,478.5 181.833,478.5 179.5,478.5C 179.5,490.5 179.5,502.5 179.5,514.5C 176.167,514.5 172.833,514.5 169.5,514.5C 169.5,499.5 169.5,484.5 169.5,469.5 Z"/></g>
<g><path style="opacity:1" fill="#fdfaf9" d="M 189.5,469.5 C 192.833,469.5 196.167,469.5 199.5,469.5C 199.5,474.5 199.5,479.5 199.5,484.5C 204.242,484.136 208.408,485.47 212,488.5C 212.667,495.833 212.667,503.167 212,510.5C 211.5,512.333 210.333,513.5 208.5,514C 202.175,514.5 195.842,514.666 189.5,514.5C 189.5,499.5 189.5,484.5 189.5,469.5 Z"/></g>
<g><path style="opacity:1" fill="#b90208" d="M 214.5,469.5 C 215.661,484.328 215.828,499.328 215,514.5C 214.127,509.538 213.627,504.538 213.5,499.5C 214.257,489.513 214.59,479.513 214.5,469.5 Z"/></g>
<g><path style="opacity:1" fill="#fdf8f7" d="M 216.5,469.5 C 219.833,469.5 223.167,469.5 226.5,469.5C 226.5,484.5 226.5,499.5 226.5,514.5C 223.167,514.5 219.833,514.5 216.5,514.5C 216.5,499.5 216.5,484.5 216.5,469.5 Z"/></g>
<g><path style="opacity:1" fill="#fcf6f5" d="M 229.5,497.5 C 232.5,497.5 235.5,497.5 238.5,497.5C 238.187,501.042 238.521,504.375 239.5,507.5C 240.189,508.774 241.023,508.774 242,507.5C 242.667,503.5 242.667,499.5 242,495.5C 240.556,493.845 238.722,493.178 236.5,493.5C 236.5,491.167 236.5,488.833 236.5,486.5C 238.467,486.739 240.301,486.406 242,485.5C 242.667,482.5 242.667,479.5 242,476.5C 241.586,476.043 241.086,475.709 240.5,475.5C 239.52,478.086 239.187,480.753 239.5,483.5C 236.167,483.5 232.833,483.5 229.5,483.5C 228.24,469.614 234.24,465.114 247.5,470C 249.049,471.214 250.215,472.714 251,474.5C 251.667,478.167 251.667,481.833 251,485.5C 250.535,486.931 249.701,488.097 248.5,489C 251.857,491.693 253.191,495.193 252.5,499.5C 253.284,511.887 247.617,517.053 235.5,515C 233.714,514.215 232.214,513.049 231,511.5C 229.621,506.964 229.121,502.297 229.5,497.5 Z"/></g>
<g><path style="opacity:1" fill="#fdf9f7" d="M 325.5,469.5 C 325.5,472.167 325.5,474.833 325.5,477.5C 327.167,477.5 328.833,477.5 330.5,477.5C 338.139,479.252 341.139,484.085 339.5,492C 341.053,499.41 338.387,504.243 331.5,506.5C 329.5,506.5 327.5,506.5 325.5,506.5C 325.5,509.167 325.5,511.833 325.5,514.5C 322.167,514.5 318.833,514.5 315.5,514.5C 315.5,512.167 315.5,509.833 315.5,507.5C 304.661,507.649 300.328,502.316 302.5,491.5C 301.346,481.656 305.679,476.989 315.5,477.5C 315.5,474.833 315.5,472.167 315.5,469.5C 318.833,469.5 322.167,469.5 325.5,469.5 Z"/></g>
<g><path style="opacity:1" fill="#fdf9f8" d="M 385.5,469.5 C 391.167,469.5 396.833,469.5 402.5,469.5C 402.5,472.5 402.5,475.5 402.5,478.5C 400.167,478.5 397.833,478.5 395.5,478.5C 395.5,490.5 395.5,502.5 395.5,514.5C 392.167,514.5 388.833,514.5 385.5,514.5C 385.5,499.5 385.5,484.5 385.5,469.5 Z"/></g>
<g><path style="opacity:1" fill="#fbf3f2" d="M 434.5,468.5 C 446.825,466.34 452.658,471.34 452,483.5C 451.654,485.848 450.487,487.681 448.5,489C 449.667,490.167 450.833,491.333 452,492.5C 453.098,499.385 452.431,506.051 450,512.5C 434.367,518.908 427.534,513.575 429.5,496.5C 432.833,496.5 436.167,496.5 439.5,496.5C 439.5,500.5 439.5,504.5 439.5,508.5C 440.5,508.5 441.5,508.5 442.5,508.5C 442.666,503.821 442.499,499.155 442,494.5C 440.301,493.594 438.467,493.261 436.5,493.5C 436.5,491.167 436.5,488.833 436.5,486.5C 438.467,486.739 440.301,486.406 442,485.5C 442.498,482.183 442.665,478.85 442.5,475.5C 441.5,475.5 440.5,475.5 439.5,475.5C 439.5,478.167 439.5,480.833 439.5,483.5C 436.167,483.5 432.833,483.5 429.5,483.5C 428.375,477.468 430.041,472.468 434.5,468.5 Z"/></g>
<g><path style="opacity:1" fill="#b90206" d="M 101.5,513.5 C 101.5,513.167 101.5,512.833 101.5,512.5C 102.833,498.833 102.833,485.167 101.5,471.5C 101.5,471.167 101.5,470.833 101.5,470.5C 102.117,470.389 102.617,470.056 103,469.5C 103.667,484.5 103.667,499.5 103,514.5C 102.617,513.944 102.117,513.611 101.5,513.5 Z"/></g>
<g><path style="opacity:1" fill="#fcf7f6" d="M 166.5,474.5 C 166.5,480.5 166.5,486.5 166.5,492.5C 163.169,495.61 159.169,496.944 154.5,496.5C 154.5,502.5 154.5,508.5 154.5,514.5C 151.167,514.5 147.833,514.5 144.5,514.5C 144.5,499.5 144.5,484.5 144.5,469.5C 149.844,469.334 155.177,469.501 160.5,470C 162.968,470.979 164.968,472.479 166.5,474.5 Z"/></g>
<g><path style="opacity:1" fill="#fbeeed" d="M 255.5,469.5 C 259.167,469.5 262.833,469.5 266.5,469.5C 267.167,490.833 267.833,490.833 268.5,469.5C 272.167,469.5 275.833,469.5 279.5,469.5C 279.5,484.5 279.5,499.5 279.5,514.5C 275.833,514.5 272.167,514.5 268.5,514.5C 267.833,489.167 267.167,489.167 266.5,514.5C 262.833,514.5 259.167,514.5 255.5,514.5C 255.5,499.5 255.5,484.5 255.5,469.5 Z"/></g>
<g><path style="opacity:1" fill="#fdfbf9" d="M 293.5,478.5 C 292.523,481.287 292.19,484.287 292.5,487.5C 294.833,487.5 297.167,487.5 299.5,487.5C 299.5,490.167 299.5,492.833 299.5,495.5C 297.5,495.5 295.5,495.5 293.5,495.5C 293.5,498.833 293.5,502.167 293.5,505.5C 295.833,505.5 298.167,505.5 300.5,505.5C 300.5,508.5 300.5,511.5 300.5,514.5C 294.833,514.5 289.167,514.5 283.5,514.5C 283.5,499.5 283.5,484.5 283.5,469.5C 288.833,469.5 294.167,469.5 299.5,469.5C 299.5,472.5 299.5,475.5 299.5,478.5C 297.5,478.5 295.5,478.5 293.5,478.5 Z"/></g>
<g><path style="opacity:1" fill="#fdfbfa" d="M 340.5,469.5 C 347.833,469.5 355.167,469.5 362.5,469.5C 362.5,472.5 362.5,475.5 362.5,478.5C 360.5,478.5 358.5,478.5 356.5,478.5C 356.5,490.5 356.5,502.5 356.5,514.5C 353.167,514.5 349.833,514.5 346.5,514.5C 346.5,502.5 346.5,490.5 346.5,478.5C 344.5,478.5 342.5,478.5 340.5,478.5C 340.5,475.5 340.5,472.5 340.5,469.5 Z"/></g>
<g><path style="opacity:1" fill="#fcf5f3" d="M 375.5,478.5 C 374.523,481.287 374.19,484.287 374.5,487.5C 376.833,487.5 379.167,487.5 381.5,487.5C 381.5,490.167 381.5,492.833 381.5,495.5C 379.167,495.5 376.833,495.5 374.5,495.5C 374.187,499.042 374.521,502.375 375.5,505.5C 377.833,505.5 380.167,505.5 382.5,505.5C 382.5,508.5 382.5,511.5 382.5,514.5C 376.5,514.5 370.5,514.5 364.5,514.5C 364.5,499.5 364.5,484.5 364.5,469.5C 370.167,469.5 375.833,469.5 381.5,469.5C 381.5,472.5 381.5,475.5 381.5,478.5C 379.5,478.5 377.5,478.5 375.5,478.5 Z"/></g>
<g><path style="opacity:1" fill="#fdf8f7" d="M 407.5,469.5 C 412.833,469.5 418.167,469.5 423.5,469.5C 424.509,484.259 426.176,498.926 428.5,513.5C 425.232,514.487 421.898,514.82 418.5,514.5C 418.5,511.833 418.5,509.167 418.5,506.5C 416.833,506.5 415.167,506.5 413.5,506.5C 413.5,509.167 413.5,511.833 413.5,514.5C 410.167,514.5 406.833,514.5 403.5,514.5C 405.074,499.524 406.407,484.524 407.5,469.5 Z"/></g>
<g><path style="opacity:1" fill="#d76f71" d="M 325.5,469.5 C 326.468,471.607 326.802,473.941 326.5,476.5C 328.099,476.232 329.432,476.566 330.5,477.5C 328.833,477.5 327.167,477.5 325.5,477.5C 325.5,474.833 325.5,472.167 325.5,469.5 Z"/></g>
<g><path style="opacity:1" fill="#c12e25" d="M 154.5,477.5 C 155.5,477.5 156.5,477.5 157.5,477.5C 157.5,481.167 157.5,484.833 157.5,488.5C 156.5,488.5 155.5,488.5 154.5,488.5C 154.5,484.833 154.5,481.167 154.5,477.5 Z"/></g>
<g><path style="opacity:1" fill="#df8f90" d="M 293.5,478.5 C 293.5,481.167 293.5,483.833 293.5,486.5C 295.735,486.205 297.735,486.539 299.5,487.5C 297.167,487.5 294.833,487.5 292.5,487.5C 292.19,484.287 292.523,481.287 293.5,478.5 Z"/></g>
<g><path style="opacity:1" fill="#db7e80" d="M 375.5,478.5 C 375.5,481.167 375.5,483.833 375.5,486.5C 377.735,486.205 379.735,486.539 381.5,487.5C 379.167,487.5 376.833,487.5 374.5,487.5C 374.19,484.287 374.523,481.287 375.5,478.5 Z"/></g>
<g><path style="opacity:1" fill="#bc1416" d="M 313.5,484.5 C 314.812,486.743 315.478,489.41 315.5,492.5C 315.333,495.167 315.167,497.833 315,500.5C 314.333,499.833 313.667,499.167 313,498.5C 312.227,493.748 312.393,489.081 313.5,484.5 Z"/></g>
<g><path style="opacity:1" fill="#d77274" d="M 327.5,484.5 C 326.167,489.5 326.167,494.5 327.5,499.5C 327.44,500.043 327.107,500.376 326.5,500.5C 325.167,494.833 325.167,489.167 326.5,483.5C 327.107,483.624 327.44,483.957 327.5,484.5 Z"/></g>
<g><path style="opacity:1" fill="#c63535" d="M 101.5,471.5 C 102.833,485.167 102.833,498.833 101.5,512.5C 100.673,507.015 100.173,501.348 100,495.5C 98.786,493.951 97.286,492.785 95.5,492C 97.286,491.215 98.786,490.049 100,488.5C 100.173,482.652 100.673,476.985 101.5,471.5 Z"/></g>
<g><path style="opacity:1" fill="#bd1c1a" d="M 327.5,484.5 C 328.117,484.611 328.617,484.944 329,485.5C 329.667,489.833 329.667,494.167 329,498.5C 328.617,499.056 328.117,499.389 327.5,499.5C 326.167,494.5 326.167,489.5 327.5,484.5 Z"/></g>
<g><path style="opacity:1" fill="#d76e6e" d="M 416.5,486.5 C 415.833,488.167 415.167,489.833 414.5,491.5C 414.211,488.351 414.711,485.351 416,482.5C 416.49,483.793 416.657,485.127 416.5,486.5 Z"/></g>
<g><path style="opacity:1" fill="#bb1612" d="M 416.5,486.5 C 416.395,490.548 416.728,494.548 417.5,498.5C 416.5,498.5 415.5,498.5 414.5,498.5C 414.5,496.167 414.5,493.833 414.5,491.5C 415.167,489.833 415.833,488.167 416.5,486.5 Z"/></g>
<g><path style="opacity:1" fill="#bf201d" d="M 114.5,492.5 C 115.5,492.5 116.5,492.5 117.5,492.5C 117.666,496.846 117.499,501.179 117,505.5C 116.586,505.957 116.086,506.291 115.5,506.5C 114.507,501.88 114.173,497.214 114.5,492.5 Z"/></g>
<g><path style="opacity:1" fill="#be191c" d="M 199.5,492.5 C 200.5,492.5 201.5,492.5 202.5,492.5C 202.5,497.167 202.5,501.833 202.5,506.5C 201.5,506.5 200.5,506.5 199.5,506.5C 199.5,501.833 199.5,497.167 199.5,492.5 Z"/></g>
<g><path style="opacity:1" fill="#d87375" d="M 381.5,495.5 C 379.735,496.461 377.735,496.795 375.5,496.5C 375.5,499.5 375.5,502.5 375.5,505.5C 375.5,502.5 375.5,499.5 375.5,496.5C 377.735,496.795 379.735,496.461 381.5,495.5 Z"/></g>
<g><path style="opacity:1" fill="#e8aeae" d="M 229.5,497.5 C 232.625,496.521 235.958,496.187 239.5,496.5C 239.5,500.167 239.5,503.833 239.5,507.5C 238.521,504.375 238.187,501.042 238.5,497.5C 235.5,497.5 232.5,497.5 229.5,497.5 Z"/></g>
<g><path style="opacity:1" fill="#dc8182" d="M 331.5,506.5 C 330.081,507.451 328.415,507.784 326.5,507.5C 326.802,510.059 326.468,512.393 325.5,514.5C 325.5,511.833 325.5,509.167 325.5,506.5C 327.5,506.5 329.5,506.5 331.5,506.5 Z"/></g>
<g><path style="opacity:0.999" fill="#51889f" d="M 189.5,523.5 C 239.5,523.5 289.5,523.5 339.5,523.5C 325.678,547.139 311.845,570.806 298,594.5C 291.475,601.672 283.642,606.672 274.5,609.5C 267.833,609.5 261.167,609.5 254.5,609.5C 245.871,606.763 238.371,602.096 232,595.5C 217.57,571.637 203.403,547.637 189.5,523.5 Z"/></g>
</svg>
