<?xml version="1.0" encoding="UTF-8"?>
<!DOCTYPE svg PUBLIC "-//W3C//DTD SVG 1.1//EN" "http://www.w3.org/Graphics/SVG/1.1/DTD/svg11.dtd">
<svg xmlns="http://www.w3.org/2000/svg" version="1.1" width="481px" height="481px" style="shape-rendering:geometricPrecision; text-rendering:geometricPrecision; image-rendering:optimizeQuality; fill-rule:evenodd; clip-rule:evenodd" xmlns:xlink="http://www.w3.org/1999/xlink">
<g><path style="opacity:1" fill="#28a9e1" d="M -0.5,-0.5 C 159.833,-0.5 320.167,-0.5 480.5,-0.5C 480.5,159.833 480.5,320.167 480.5,480.5C 320.167,480.5 159.833,480.5 -0.5,480.5C -0.5,320.167 -0.5,159.833 -0.5,-0.5 Z"/></g>
<g><path style="opacity:1" fill="#53afd4" d="M 202.5,145.5 C 203.793,144.842 205.293,144.508 207,144.5C 210.073,144.481 212.907,145.147 215.5,146.5C 215.5,147.5 215.5,148.5 215.5,149.5C 214.833,149.167 214.167,148.833 213.5,148.5C 210.461,145.807 206.794,144.807 202.5,145.5 Z"/></g>
<g><path style="opacity:1" fill="#47add7" d="M 281.5,147.5 C 277.511,145.496 273.511,145.163 269.5,146.5C 266.569,148.091 263.902,150.091 261.5,152.5C 261.5,150.833 261.5,149.167 261.5,147.5C 264.48,147.759 266.313,146.426 267,143.5C 271.824,144.042 276.657,144.375 281.5,144.5C 281.5,145.5 281.5,146.5 281.5,147.5 Z"/></g>
<g><path style="opacity:1" fill="#fbfdfd" d="M 202.5,145.5 C 206.794,144.807 210.461,145.807 213.5,148.5C 213.685,150.196 214.519,151.529 216,152.5C 216.5,168.163 216.667,183.83 216.5,199.5C 219.888,200.031 221.888,198.697 222.5,195.5C 222.833,194.833 223.167,194.167 223.5,193.5C 226.959,190.585 229.959,187.252 232.5,183.5C 241.139,174.527 249.806,165.527 258.5,156.5C 262.771,153.899 266.437,150.566 269.5,146.5C 273.511,145.163 277.511,145.496 281.5,147.5C 283.887,149.258 285.554,151.591 286.5,154.5C 286.599,157.237 286.265,159.904 285.5,162.5C 275.872,174.13 265.872,185.464 255.5,196.5C 246.827,205.173 238.494,214.173 230.5,223.5C 223.945,230.107 217.278,236.607 210.5,243C 202.955,244.78 197.621,242.28 194.5,235.5C 194.167,208.159 194.5,180.825 195.5,153.5C 197.013,151.645 198.346,149.645 199.5,147.5C 199.973,146.094 200.973,145.427 202.5,145.5 Z"/></g>
<g><path style="opacity:1" fill="#d7f7fd" d="M 269.5,146.5 C 266.437,150.566 262.771,153.899 258.5,156.5C 259.5,155.167 260.5,153.833 261.5,152.5C 263.902,150.091 266.569,148.091 269.5,146.5 Z"/></g>
<g><path style="opacity:1" fill="#d5f4fd" d="M 213.5,148.5 C 214.167,148.833 214.833,149.167 215.5,149.5C 216.801,150.882 217.634,152.548 218,154.5C 218.333,169.167 218.667,183.833 219,198.5C 220.039,197.29 221.206,196.29 222.5,195.5C 221.888,198.697 219.888,200.031 216.5,199.5C 216.667,183.83 216.5,168.163 216,152.5C 214.519,151.529 213.685,150.196 213.5,148.5 Z"/></g>
<g><path style="opacity:1" fill="#7bbad1" d="M 286.5,154.5 C 287.152,155.449 287.486,156.615 287.5,158C 287.693,160.008 287.026,161.508 285.5,162.5C 286.265,159.904 286.599,157.237 286.5,154.5 Z"/></g>
<g><path style="opacity:1" fill="#defbfe" d="M 199.5,147.5 C 198.346,149.645 197.013,151.645 195.5,153.5C 194.5,180.825 194.167,208.159 194.5,235.5C 193.336,208.003 193.17,180.336 194,152.5C 195.076,149.921 196.909,148.254 199.5,147.5 Z"/></g>
<g><path style="opacity:1" fill="#42acd8" d="M 232.5,183.5 C 229.959,187.252 226.959,190.585 223.5,193.5C 224.535,191.795 224.535,190.128 223.5,188.5C 224.262,188.089 225.262,187.923 226.5,188C 226.167,187.667 225.833,187.333 225.5,187C 228.16,185.343 228.16,183.676 225.5,182C 225.833,181.5 226.167,181 226.5,180.5C 228.071,182.415 230.071,183.415 232.5,183.5 Z"/></g>
<g><path style="opacity:1" fill="#f8fdfc" d="M 254.5,208.5 C 258.605,208.234 262.605,208.734 266.5,210C 271.322,213.911 276.322,217.578 281.5,221C 286.153,224.788 287.653,229.622 286,235.5C 282.517,242.224 277.017,244.724 269.5,243C 262.362,238.352 255.695,233.185 249.5,227.5C 245.645,219.68 247.312,213.347 254.5,208.5 Z"/></g>
<g><path style="opacity:1" fill="#39aadd" d="M 255.5,196.5 C 253.572,198.781 252.572,201.447 252.5,204.5C 250.319,204.284 248.653,205.117 247.5,207C 249.92,207.29 252.254,207.79 254.5,208.5C 247.312,213.347 245.645,219.68 249.5,227.5C 245.839,227.65 244.839,226.15 246.5,223C 244.782,222.654 243.115,222.154 241.5,221.5C 241.83,224.102 241.33,226.769 240,229.5C 238.989,228.663 237.822,228.33 236.5,228.5C 236.5,227.5 236.5,226.5 236.5,225.5C 234.315,225.296 232.315,224.63 230.5,223.5C 238.494,214.173 246.827,205.173 255.5,196.5 Z"/></g>
<g><path style="opacity:1" fill="#37abde" d="M 357.5,287.5 C 357.167,287.5 356.833,287.5 356.5,287.5C 356.489,285.983 355.823,284.816 354.5,284C 351.331,283.022 348.497,283.522 346,285.5C 345.333,300.5 345.333,315.5 346,330.5C 347.864,333.207 350.364,334.041 353.5,333C 355.37,330.96 357.37,329.127 359.5,327.5C 354.997,336.698 348.83,337.698 341,330.5C 340.098,330.743 339.265,331.077 338.5,331.5C 340.195,327.947 339.528,324.947 336.5,322.5C 329.254,321.536 321.92,321.203 314.5,321.5C 314.5,319.167 314.5,316.833 314.5,314.5C 320.621,314.91 326.621,314.41 332.5,313C 335.14,309.72 335.14,306.553 332.5,303.5C 332.389,302.883 332.056,302.383 331.5,302C 326.177,301.501 320.844,301.334 315.5,301.5C 315.5,299.5 315.5,297.5 315.5,295.5C 322.354,295.824 329.021,295.491 335.5,294.5C 340.626,290.692 340.626,286.859 335.5,283C 325.833,282.333 316.167,282.333 306.5,283C 305.627,284.045 304.627,284.878 303.5,285.5C 303.137,283.089 304.137,281.589 306.5,281C 303.762,280.017 301.095,278.851 298.5,277.5C 300.79,277.428 303.123,277.095 305.5,276.5C 307.187,276.76 308.687,277.427 310,278.5C 310.483,277.552 310.649,276.552 310.5,275.5C 307.821,275.327 305.487,274.327 303.5,272.5C 304.167,272.167 304.833,271.833 305.5,271.5C 309.172,273.152 312.839,273.985 316.5,274C 315.896,276.468 314.562,278.468 312.5,280C 322.332,280.81 331.832,280.31 341,278.5C 341.5,278.667 342,278.833 342.5,279C 340.595,279.826 340.261,280.993 341.5,282.5C 343.817,280.353 345.15,277.686 345.5,274.5C 340.494,274.434 340.494,273.434 345.5,271.5C 347.535,278.063 349.368,278.063 351,271.5C 351.9,272.77 353.066,273.77 354.5,274.5C 352.599,275.545 350.933,276.878 349.5,278.5C 349.808,279.308 350.308,279.975 351,280.5C 352.183,279.269 353.349,279.269 354.5,280.5C 356.334,282.498 357.334,284.832 357.5,287.5 Z"/></g>
<g><path style="opacity:1" fill="#bbebf9" d="M 90.5,283.5 C 90.5,283.167 90.5,282.833 90.5,282.5C 93.6305,281.908 95.9639,282.908 97.5,285.5C 95.2543,284.545 92.921,283.878 90.5,283.5 Z"/></g>
<g><path style="opacity:1" fill="#f5fcfc" d="M 90.5,283.5 C 92.921,283.878 95.2543,284.545 97.5,285.5C 98.3382,285.842 98.6716,286.508 98.5,287.5C 98.169,295.528 98.5023,303.528 99.5,311.5C 100.107,311.376 100.44,311.043 100.5,310.5C 106.509,304.49 112.175,298.157 117.5,291.5C 120.297,289.205 122.964,286.705 125.5,284C 133,282.167 135.833,285 134,292.5C 130.296,296.036 126.796,299.702 123.5,303.5C 116.464,310.534 109.797,317.867 103.5,325.5C 100.5,328.167 97.5,330.833 94.5,333.5C 91.0388,333.854 88.5388,332.521 87,329.5C 86.3333,315.5 86.3333,301.5 87,287.5C 87.66,285.676 88.8267,284.343 90.5,283.5 Z"/></g>
<g><path style="opacity:1" fill="#f3fbfb" d="M 252.5,283.5 C 255.674,287.958 255.008,291.625 250.5,294.5C 243.5,294.5 236.5,294.5 229.5,294.5C 229.5,297.167 229.5,299.833 229.5,302.5C 235.559,302.254 241.559,302.587 247.5,303.5C 250.048,306.793 250.048,310.127 247.5,313.5C 241.559,314.413 235.559,314.746 229.5,314.5C 229.5,316.833 229.5,319.167 229.5,321.5C 236.508,321.334 243.508,321.5 250.5,322C 251.244,323.039 252.244,323.539 253.5,323.5C 255.015,326.737 254.681,329.737 252.5,332.5C 251.833,332.5 251.167,332.5 250.5,332.5C 240.115,332.786 229.782,332.452 219.5,331.5C 219.217,330.711 218.717,330.044 218,329.5C 217.833,322.5 217.667,315.5 217.5,308.5C 217.365,300.734 217.865,293.067 219,285.5C 219.833,284.667 220.667,283.833 221.5,283C 231.88,282.215 242.213,282.381 252.5,283.5 Z"/></g>
<g><path style="opacity:1" fill="#f3fbfc" d="M 335.5,294.5 C 328.5,294.5 321.5,294.5 314.5,294.5C 314.5,297.167 314.5,299.833 314.5,302.5C 320.559,302.254 326.559,302.587 332.5,303.5C 335.14,306.553 335.14,309.72 332.5,313C 326.621,314.41 320.621,314.91 314.5,314.5C 314.5,316.833 314.5,319.167 314.5,321.5C 321.92,321.203 329.254,321.536 336.5,322.5C 339.528,324.947 340.195,327.947 338.5,331.5C 337.29,331.932 336.29,332.599 335.5,333.5C 325.828,333.666 316.161,333.5 306.5,333C 305.473,332.487 304.473,331.987 303.5,331.5C 302.532,316.548 302.199,301.548 302.5,286.5C 303.167,286.5 303.5,286.167 303.5,285.5C 304.627,284.878 305.627,284.045 306.5,283C 316.167,282.333 325.833,282.333 335.5,283C 340.626,286.859 340.626,290.692 335.5,294.5 Z"/></g>
<g><path style="opacity:1" fill="#f5fcfc" d="M 172.5,283.5 C 174.876,284.512 175.876,286.345 175.5,289C 175.876,291.655 174.876,293.488 172.5,294.5C 165.5,294.5 158.5,294.5 151.5,294.5C 151.5,297.167 151.5,299.833 151.5,302.5C 156.833,302.5 162.167,302.5 167.5,302.5C 169.587,303.585 170.92,305.251 171.5,307.5C 171.256,310.263 169.923,312.429 167.5,314C 162.177,314.499 156.844,314.666 151.5,314.5C 151.5,316.833 151.5,319.167 151.5,321.5C 157.176,321.666 162.843,321.499 168.5,321C 169.056,320.617 169.389,320.117 169.5,319.5C 169.833,319.5 170.167,319.5 170.5,319.5C 176.509,313.49 182.175,307.157 187.5,300.5C 193.33,295.503 198.663,290.003 203.5,284C 204.094,283.536 204.761,283.369 205.5,283.5C 208.652,282.959 211.152,283.959 213,286.5C 213.667,301.167 213.667,315.833 213,330.5C 212.283,331.044 211.783,331.711 211.5,332.5C 209.236,333.219 206.903,333.552 204.5,333.5C 203.878,332.373 203.045,331.373 202,330.5C 201.667,321.833 201.333,313.167 201,304.5C 200.283,305.044 199.783,305.711 199.5,306.5C 191.16,314.84 183.16,323.507 175.5,332.5C 164.885,333.454 154.218,333.787 143.5,333.5C 142.312,332.636 141.145,331.636 140,330.5C 139.183,315.455 139.35,300.455 140.5,285.5C 141.025,284.808 141.692,284.308 142.5,284C 152.494,283.5 162.494,283.334 172.5,283.5 Z"/></g>
<g><path style="opacity:1" fill="#f7fcfb" d="M 294.5,284.5 C 294.461,285.756 294.961,286.756 296,287.5C 296.5,301.496 296.667,315.496 296.5,329.5C 296.5,330.167 296.5,330.833 296.5,331.5C 293.256,333.994 290.09,333.994 287,331.5C 285.646,327.637 285.146,323.637 285.5,319.5C 279.845,317.742 273.845,316.409 267.5,315.5C 265.938,315.267 264.605,314.6 263.5,313.5C 263.5,312.833 263.5,312.167 263.5,311.5C 260.414,302.706 259.747,293.706 261.5,284.5C 265.073,282.8 268.239,283.467 271,286.5C 271.333,292.5 271.667,298.5 272,304.5C 272.5,305 273,305.5 273.5,306C 277.486,306.499 281.486,306.666 285.5,306.5C 284.94,298.599 285.607,290.932 287.5,283.5C 288.817,283.179 290.151,282.846 291.5,282.5C 293.038,282.453 294.038,283.12 294.5,284.5 Z"/></g>
<g><path style="opacity:1" fill="#f8fdfc" d="M 356.5,287.5 C 356.169,295.528 356.502,303.528 357.5,311.5C 358.107,311.376 358.44,311.043 358.5,310.5C 366.967,301.864 375.3,293.031 383.5,284C 390.49,281.995 393.324,284.495 392,291.5C 386.624,297.372 381.457,303.372 376.5,309.5C 372.766,312.231 369.766,315.564 367.5,319.5C 364.5,321.833 361.833,324.5 359.5,327.5C 357.37,329.127 355.37,330.96 353.5,333C 350.364,334.041 347.864,333.207 346,330.5C 345.333,315.5 345.333,300.5 346,285.5C 348.497,283.522 351.331,283.022 354.5,284C 355.823,284.816 356.489,285.983 356.5,287.5 Z"/></g>
<g><path style="opacity:1" fill="#e4fcfe" d="M 261.5,284.5 C 259.747,293.706 260.414,302.706 263.5,311.5C 261.864,310.251 260.697,308.584 260,306.5C 259.333,299.5 259.333,292.5 260,285.5C 260.383,284.944 260.883,284.611 261.5,284.5 Z"/></g>
<g><path style="opacity:1" fill="#dafeff" d="M 294.5,284.5 C 295.458,284.953 296.292,285.619 297,286.5C 297.827,301.006 297.661,315.339 296.5,329.5C 296.667,315.496 296.5,301.496 296,287.5C 294.961,286.756 294.461,285.756 294.5,284.5 Z"/></g>
<g><path style="opacity:1" fill="#49a5cf" d="M 296.5,331.5 C 296.5,330.833 296.5,330.167 296.5,329.5C 297.661,315.339 297.827,301.006 297,286.5C 296.292,285.619 295.458,284.953 294.5,284.5C 294.038,283.12 293.038,282.453 291.5,282.5C 290.151,282.846 288.817,283.179 287.5,283.5C 288.312,282.007 289.645,281.34 291.5,281.5C 293.818,281.997 296.152,282.33 298.5,282.5C 298.667,298.503 298.5,314.503 298,330.5C 297.617,331.056 297.117,331.389 296.5,331.5 Z"/></g>
<g><path style="opacity:1" fill="#39aadc" d="M 287.5,283.5 C 285.607,290.932 284.94,298.599 285.5,306.5C 281.486,306.666 277.486,306.499 273.5,306C 273,305.5 272.5,305 272,304.5C 271.667,298.5 271.333,292.5 271,286.5C 268.239,283.467 265.073,282.8 261.5,284.5C 260.883,284.611 260.383,284.944 260,285.5C 259.333,292.5 259.333,299.5 260,306.5C 260.697,308.584 261.864,310.251 263.5,311.5C 263.5,312.167 263.5,312.833 263.5,313.5C 260.998,313.063 258.498,312.73 256,312.5C 256.143,310.115 256.643,307.781 257.5,305.5C 254.234,305.433 252.734,307.099 253,310.5C 252.503,308.19 252.337,305.857 252.5,303.5C 248.578,302.883 248.578,302.216 252.5,301.5C 254.044,301.79 255.377,302.456 256.5,303.5C 257.647,301.235 257.814,298.902 257,296.5C 256.692,297.308 256.192,297.975 255.5,298.5C 254.305,296.703 252.638,295.703 250.5,295.5C 250.5,295.167 250.5,294.833 250.5,294.5C 255.008,291.625 255.674,287.958 252.5,283.5C 257.5,282.9 262.5,282.233 267.5,281.5C 269.628,282.054 271.128,283.387 272,285.5C 272.196,283.714 273.029,282.381 274.5,281.5C 275.231,283.401 275.231,285.401 274.5,287.5C 275.5,287.5 276.5,287.5 277.5,287.5C 277.461,284.19 278.794,281.524 281.5,279.5C 283.071,277.585 285.071,276.585 287.5,276.5C 287.5,277.833 287.5,279.167 287.5,280.5C 285.516,280.383 283.85,281.05 282.5,282.5C 278.578,289.655 277.244,297.321 278.5,305.5C 280.5,305.5 282.5,305.5 284.5,305.5C 284.334,298.825 284.5,292.158 285,285.5C 285.417,284.244 286.25,283.577 287.5,283.5 Z"/></g>
<g><path style="opacity:1" fill="#29a8e2" d="M 336.5,322.5 C 336.334,315.825 336.5,309.158 337,302.5C 338.356,301.62 339.856,301.286 341.5,301.5C 340.174,298.999 339.674,296.332 340,293.5C 341.156,292.007 341.99,292.174 342.5,294C 343.037,295.792 343.37,297.625 343.5,299.5C 342.668,306.141 342.335,312.808 342.5,319.5C 341.5,319.5 340.5,319.5 339.5,319.5C 339.5,320.5 339.5,321.5 339.5,322.5C 338.5,322.5 337.5,322.5 336.5,322.5 Z"/></g>
<g><path style="opacity:1" fill="#44addd" d="M 172.5,283.5 C 162.494,283.334 152.494,283.5 142.5,284C 141.692,284.308 141.025,284.808 140.5,285.5C 139.35,300.455 139.183,315.455 140,330.5C 141.145,331.636 142.312,332.636 143.5,333.5C 141.799,333.966 140.299,333.966 139,333.5C 138.161,334.624 136.994,335.291 135.5,335.5C 131.976,335.099 128.642,334.433 125.5,333.5C 128.513,333.893 131.18,333.226 133.5,331.5C 134.179,333.814 135.512,334.147 137.5,332.5C 138.666,320.514 138.833,308.514 138,296.5C 137.667,298.167 137.333,299.833 137,301.5C 135.667,300.167 134.333,298.833 133,297.5C 133.498,299.527 133.331,301.527 132.5,303.5C 131.281,302.737 130.281,301.737 129.5,300.5C 128.44,302.748 126.44,303.748 123.5,303.5C 126.796,299.702 130.296,296.036 134,292.5C 135.833,285 133,282.167 125.5,284C 122.964,286.705 120.297,289.205 117.5,291.5C 116.782,289.863 116.616,288.197 117,286.5C 117.605,288.481 118.605,288.815 120,287.5C 120.856,285.132 121.69,282.798 122.5,280.5C 126.883,282.8 131.05,282.133 135,278.5C 135.667,279.167 136.333,279.833 137,280.5C 139.925,277.941 142.925,277.941 146,280.5C 149.404,280.728 152.904,280.395 156.5,279.5C 162.092,280.442 167.425,281.775 172.5,283.5 Z"/></g>
<g><path style="opacity:1" fill="#3fa6d0" d="M 302.5,286.5 C 302.199,301.548 302.532,316.548 303.5,331.5C 302.069,331.119 301.236,330.119 301,328.5C 300.333,314.833 300.333,301.167 301,287.5C 301.383,286.944 301.883,286.611 302.5,286.5 Z"/></g>
<g><path style="opacity:1" fill="#a2d8ef" d="M 356.5,287.5 C 356.833,287.5 357.167,287.5 357.5,287.5C 357.175,295.352 357.508,303.018 358.5,310.5C 358.44,311.043 358.107,311.376 357.5,311.5C 356.502,303.528 356.169,295.528 356.5,287.5 Z"/></g>
<g><path style="opacity:1" fill="#51add2" d="M 205.5,283.5 C 208.267,282.068 210.934,282.401 213.5,284.5C 214.666,300.156 214.833,315.823 214,331.5C 213.329,332.252 212.496,332.586 211.5,332.5C 211.783,331.711 212.283,331.044 213,330.5C 213.667,315.833 213.667,301.167 213,286.5C 211.152,283.959 208.652,282.959 205.5,283.5 Z"/></g>
<g><path style="opacity:1" fill="#71bbd7" d="M 172.5,294.5 C 166.021,295.491 159.354,295.824 152.5,295.5C 152.5,297.5 152.5,299.5 152.5,301.5C 157.695,301.179 162.695,301.513 167.5,302.5C 162.167,302.5 156.833,302.5 151.5,302.5C 151.5,299.833 151.5,297.167 151.5,294.5C 158.5,294.5 165.5,294.5 172.5,294.5 Z"/></g>
<g><path style="opacity:1" fill="#74bddb" d="M 250.5,294.5 C 250.5,294.833 250.5,295.167 250.5,295.5C 243.833,295.5 237.167,295.5 230.5,295.5C 230.5,297.5 230.5,299.5 230.5,301.5C 235.844,301.334 241.177,301.501 246.5,302C 247.056,302.383 247.389,302.883 247.5,303.5C 241.559,302.587 235.559,302.254 229.5,302.5C 229.5,299.833 229.5,297.167 229.5,294.5C 236.5,294.5 243.5,294.5 250.5,294.5 Z"/></g>
<g><path style="opacity:1" fill="#72bbd8" d="M 335.5,294.5 C 329.021,295.491 322.354,295.824 315.5,295.5C 315.5,297.5 315.5,299.5 315.5,301.5C 320.844,301.334 326.177,301.501 331.5,302C 332.056,302.383 332.389,302.883 332.5,303.5C 326.559,302.587 320.559,302.254 314.5,302.5C 314.5,299.833 314.5,297.167 314.5,294.5C 321.5,294.5 328.5,294.5 335.5,294.5 Z"/></g>
<g><path style="opacity:1" fill="#3ea5d0" d="M 90.5,282.5 C 90.5,282.833 90.5,283.167 90.5,283.5C 88.8267,284.343 87.66,285.676 87,287.5C 86.3333,301.5 86.3333,315.5 87,329.5C 88.5388,332.521 91.0388,333.854 94.5,333.5C 92.0521,334.473 89.3854,334.806 86.5,334.5C 85.5415,317.201 85.2082,299.868 85.5,282.5C 87.1667,282.5 88.8333,282.5 90.5,282.5 Z"/></g>
<g><path style="opacity:1" fill="#8dc9e1" d="M 98.5,287.5 C 99.1667,295.167 99.8333,302.833 100.5,310.5C 100.44,311.043 100.107,311.376 99.5,311.5C 98.5023,303.528 98.169,295.528 98.5,287.5 Z"/></g>
<g><path style="opacity:1" fill="#67bade" d="M 204.5,333.5 C 203.167,333.5 201.833,333.5 200.5,333.5C 200.5,331.833 200.5,330.167 200.5,328.5C 200.825,320.981 200.492,313.648 199.5,306.5C 199.783,305.711 200.283,305.044 201,304.5C 201.333,313.167 201.667,321.833 202,330.5C 203.045,331.373 203.878,332.373 204.5,333.5 Z"/></g>
<g><path style="opacity:1" fill="#3ea9d8" d="M 187.5,300.5 C 182.175,307.157 176.509,313.49 170.5,319.5C 170.778,317.654 170.111,316.32 168.5,315.5C 163.228,316.032 157.895,316.032 152.5,315.5C 152.5,317.167 152.5,318.833 152.5,320.5C 157.511,320.666 162.511,320.499 167.5,320C 166.304,319.346 166.304,318.846 167.5,318.5C 168.183,318.863 168.85,319.196 169.5,319.5C 169.389,320.117 169.056,320.617 168.5,321C 162.843,321.499 157.176,321.666 151.5,321.5C 151.5,319.167 151.5,316.833 151.5,314.5C 156.844,314.666 162.177,314.499 167.5,314C 169.923,312.429 171.256,310.263 171.5,307.5C 172.041,309.75 172.374,312.084 172.5,314.5C 173.5,313 174.5,311.5 175.5,310C 174.453,308.422 174.453,306.922 175.5,305.5C 177.958,304.081 180.625,303.081 183.5,302.5C 183.291,301.914 182.957,301.414 182.5,301C 184.134,300.506 185.801,300.34 187.5,300.5 Z"/></g>
<g><path style="opacity:1" fill="#4daeda" d="M 376.5,309.5 C 376.33,310.822 376.663,311.989 377.5,313C 376.328,313.419 375.328,314.085 374.5,315C 377.992,314.93 380.992,315.763 383.5,317.5C 376.067,315.097 373.234,317.764 375,325.5C 376.045,326.373 376.878,327.373 377.5,328.5C 375.876,328.64 374.71,327.973 374,326.5C 373.502,323.183 373.335,319.85 373.5,316.5C 372.5,316.5 371.5,316.5 370.5,316.5C 370.5,317.5 370.5,318.5 370.5,319.5C 369.5,319.5 368.5,319.5 367.5,319.5C 369.766,315.564 372.766,312.231 376.5,309.5 Z"/></g>
<g><path style="opacity:1" fill="#32aadf" d="M 133.5,331.5 C 134.729,328.865 134.729,326.199 133.5,323.5C 130.301,321.136 126.968,318.97 123.5,317C 121.613,316.22 119.946,316.387 118.5,317.5C 114.873,320.174 114.54,323.341 117.5,327C 119.078,328.094 120.745,328.928 122.5,329.5C 122.833,330.167 123.167,330.833 123.5,331.5C 121.629,331.859 120.129,332.859 119,334.5C 118.517,333.552 118.351,332.552 118.5,331.5C 116.94,331.519 115.44,331.852 114,332.5C 112.519,330.852 110.685,329.852 108.5,329.5C 106.944,330.547 105.277,331.214 103.5,331.5C 103.383,329.516 104.05,327.85 105.5,326.5C 105.043,325.702 104.376,325.369 103.5,325.5C 109.797,317.867 116.464,310.534 123.5,303.5C 126.44,303.748 128.44,302.748 129.5,300.5C 130.281,301.737 131.281,302.737 132.5,303.5C 133.331,301.527 133.498,299.527 133,297.5C 134.333,298.833 135.667,300.167 137,301.5C 137.333,299.833 137.667,298.167 138,296.5C 138.833,308.514 138.666,320.514 137.5,332.5C 135.512,334.147 134.179,333.814 133.5,331.5 Z"/></g>
<g><path style="opacity:1" fill="#c4e9f1" d="M 267.5,315.5 C 273.845,316.409 279.845,317.742 285.5,319.5C 281.486,319.666 277.486,319.499 273.5,319C 270.975,318.576 268.975,317.41 267.5,315.5 Z"/></g>
<g><path style="opacity:1" fill="#28a8e4" d="M 170.5,319.5 C 170.167,319.5 169.833,319.5 169.5,319.5C 168.85,319.196 168.183,318.863 167.5,318.5C 166.304,318.846 166.304,319.346 167.5,320C 162.511,320.499 157.511,320.666 152.5,320.5C 152.5,318.833 152.5,317.167 152.5,315.5C 157.895,316.032 163.228,316.032 168.5,315.5C 170.111,316.32 170.778,317.654 170.5,319.5 Z"/></g>
<g><path style="opacity:1" fill="#f7fdfb" d="M 133.5,331.5 C 131.18,333.226 128.513,333.893 125.5,333.5C 125.167,332.5 124.5,331.833 123.5,331.5C 123.167,330.833 122.833,330.167 122.5,329.5C 121.492,327.661 119.992,326.328 118,325.5C 117.398,322.779 117.565,320.113 118.5,317.5C 119.946,316.387 121.613,316.22 123.5,317C 126.968,318.97 130.301,321.136 133.5,323.5C 134.729,326.199 134.729,328.865 133.5,331.5 Z"/></g>
<g><path style="opacity:1" fill="#d5f4fb" d="M 118.5,317.5 C 117.565,320.113 117.398,322.779 118,325.5C 119.992,326.328 121.492,327.661 122.5,329.5C 120.745,328.928 119.078,328.094 117.5,327C 114.54,323.341 114.873,320.174 118.5,317.5 Z"/></g>
<g><path style="opacity:1" fill="#49a6cc" d="M 247.5,313.5 C 247.389,314.117 247.056,314.617 246.5,315C 241.177,315.499 235.844,315.666 230.5,315.5C 230.5,317.167 230.5,318.833 230.5,320.5C 237.508,320.334 244.508,320.5 251.5,321C 252.381,321.708 253.047,322.542 253.5,323.5C 252.244,323.539 251.244,323.039 250.5,322C 243.508,321.5 236.508,321.334 229.5,321.5C 229.5,319.167 229.5,316.833 229.5,314.5C 235.559,314.746 241.559,314.413 247.5,313.5 Z"/></g>
<g><path style="opacity:1" fill="#f5fcfc" d="M 383.5,317.5 C 386.171,319.934 389.004,322.267 392,324.5C 393.16,331.175 390.327,334.175 383.5,333.5C 382.155,331.164 380.155,329.497 377.5,328.5C 376.878,327.373 376.045,326.373 375,325.5C 373.234,317.764 376.067,315.097 383.5,317.5 Z"/></g>
<g><path style="opacity:1" fill="#2fa9de" d="M 199.5,306.5 C 200.492,313.648 200.825,320.981 200.5,328.5C 199.5,328.5 198.5,328.5 197.5,328.5C 197.5,326.167 197.5,323.833 197.5,321.5C 196.178,321.67 195.011,321.337 194,320.5C 193.546,325.83 195.046,330.497 198.5,334.5C 197.675,335.386 196.675,335.719 195.5,335.5C 194.489,332.468 193.322,329.468 192,326.5C 191.667,327.5 191.333,328.5 191,329.5C 189.951,327.893 188.451,327.227 186.5,327.5C 185.861,329.76 184.694,331.76 183,333.5C 182.221,332.272 181.221,331.272 180,330.5C 178.594,331.414 177.094,332.08 175.5,332.5C 183.16,323.507 191.16,314.84 199.5,306.5 Z"/></g>
<g><path style="opacity:1" fill="#e2fbfe" d="M 219.5,331.5 C 229.782,332.452 240.115,332.786 250.5,332.5C 240.681,333.494 230.681,333.827 220.5,333.5C 220.167,332.833 219.833,332.167 219.5,331.5 Z"/></g>
<g><path style="opacity:1" fill="#5caed3" d="M 175.5,332.5 C 175.389,333.117 175.056,333.617 174.5,334C 163.992,334.825 153.658,334.659 143.5,333.5C 154.218,333.787 164.885,333.454 175.5,332.5 Z"/></g>
<g><path style="opacity:1" fill="#5cafd4" d="M 250.5,332.5 C 251.167,332.5 251.833,332.5 252.5,332.5C 252.389,333.117 252.056,333.617 251.5,334C 240.992,334.825 230.658,334.659 220.5,333.5C 230.681,333.827 240.681,333.494 250.5,332.5 Z"/></g>
<g><path style="opacity:1" fill="#5aaed3" d="M 303.5,331.5 C 304.473,331.987 305.473,332.487 306.5,333C 316.161,333.5 325.828,333.666 335.5,333.5C 325.013,334.494 314.346,334.828 303.5,334.5C 303.5,333.5 303.5,332.5 303.5,331.5 Z"/></g>
<g><path style="opacity:1" fill="#51b0d8" d="M 383.5,317.5 C 386.973,318.766 390.14,320.766 393,323.5C 393.667,327.5 393.667,331.5 393,335.5C 389.73,334.868 386.563,334.201 383.5,333.5C 390.327,334.175 393.16,331.175 392,324.5C 389.004,322.267 386.171,319.934 383.5,317.5 Z"/></g>
</svg>
