<?xml version="1.0" encoding="UTF-8"?>
<!DOCTYPE svg PUBLIC "-//W3C//DTD SVG 1.1//EN" "http://www.w3.org/Graphics/SVG/1.1/DTD/svg11.dtd">
<svg xmlns="http://www.w3.org/2000/svg" version="1.1" width="800px" height="600px" style="shape-rendering:geometricPrecision; text-rendering:geometricPrecision; image-rendering:optimizeQuality; fill-rule:evenodd; clip-rule:evenodd" xmlns:xlink="http://www.w3.org/1999/xlink">
<g><path style="opacity:1" fill="#fdfdfd" d="M -0.5,-0.5 C 266.167,-0.5 532.833,-0.5 799.5,-0.5C 799.5,199.5 799.5,399.5 799.5,599.5C 532.833,599.5 266.167,599.5 -0.5,599.5C -0.5,399.5 -0.5,199.5 -0.5,-0.5 Z"/></g>
<g><path style="opacity:1" fill="#f7f9fa" d="M 263.5,18.5 C 284.47,19.1666 305.47,19.8333 326.5,20.5C 361.128,19.2686 395.628,19.2686 430,20.5C 431.667,19.8333 433.333,19.1667 435,18.5C 455.667,19.1667 476.333,19.8333 497,20.5C 575.844,19.5753 654.51,19.2419 733,19.5C 765.015,24.1824 780.182,42.6824 778.5,75C 779.167,83 779.833,91 780.5,99C 779.833,101 779.167,103 778.5,105C 778.992,110.13 779.659,115.463 780.5,121C 780.047,127.226 780.047,133.56 780.5,140C 778.523,151.193 778.523,162.526 780.5,174C 780.141,178.504 779.475,183.17 778.5,188C 779.167,190 779.833,192 780.5,194C 780.162,201.276 779.496,208.943 778.5,217C 779.167,219.667 779.833,222.333 780.5,225C 779.186,236.609 779.186,248.276 780.5,260C 779.833,266.333 779.167,272.667 778.5,279C 779.167,279.333 779.833,279.667 780.5,280C 780.003,293.17 780.003,306.503 780.5,320C 779.833,322.333 779.167,324.667 778.5,327C 779.167,333 779.833,339 780.5,345C 780.141,349.504 779.475,354.17 778.5,359C 779.167,361 779.833,363 780.5,365C 779.387,389.99 779.387,414.99 780.5,440C 778.293,443.779 778.293,447.445 780.5,451C 780.205,464.186 780.205,477.519 780.5,491C 779.833,502.333 779.167,513.667 778.5,525C 779.595,533.629 778.428,542.129 775,550.5C 769.805,564.462 759.972,573.296 745.5,577C 737.009,578.573 728.509,579.74 720,580.5C 505.618,579.931 291.951,579.931 79,580.5C 72.9053,580.018 66.9053,579.018 61,577.5C 40.7401,575.964 27.7401,564.964 22,544.5C 20.8215,536.62 19.6548,528.786 18.5,521C 19.5223,492.576 19.5223,463.91 18.5,435C 19.1667,420.333 19.8333,405.667 20.5,391C 19.1667,377.667 19.1667,364.333 20.5,351C 19.8333,349.333 19.1667,347.667 18.5,346C 19.5745,309.414 19.5745,273.081 18.5,237C 19.1883,231.532 19.855,226.032 20.5,220.5C 19.6068,207.116 19.6068,193.616 20.5,180C 19.8333,177 19.1667,174 18.5,171C 19.5518,141.746 19.5518,112.746 18.5,84C 19.3351,76.6474 20.3351,69.3141 21.5,62C 23.3837,41.4668 34.0504,28.1335 53.5,22C 57.5,21.3333 61.5,20.6667 65.5,20C 120.122,19.5155 174.288,19.6822 228,20.5C 239.931,19.8428 251.765,19.1761 263.5,18.5 Z"/></g>
<g><path style="opacity:1" fill="#f3f5f7" d="M 64.5,24.5 C 286.974,25.5527 509.14,25.5527 731,24.5C 735.391,25.7004 739.891,26.5338 744.5,27C 759.204,31.0468 768.204,40.7135 771.5,56C 773.045,58.0851 773.378,60.2518 772.5,62.5C 774.257,65.2335 774.591,68.0668 773.5,71C 775.388,80.8965 775.388,90.8965 773.5,101C 774.264,118.745 774.264,136.745 773.5,155C 774.308,155.308 774.975,155.808 775.5,156.5C 774.853,162.698 774.186,168.864 773.5,175C 773.996,196.518 774.662,218.185 775.5,240C 773.299,245.105 773.299,250.105 775.5,255C 774.833,260.667 774.167,266.333 773.5,272C 774.301,289.685 774.301,307.685 773.5,326C 774.167,326.333 774.833,326.667 775.5,327C 774.833,333.333 774.167,339.667 773.5,346C 773.993,367.243 774.659,388.576 775.5,410C 773.546,415.484 773.546,420.818 775.5,426C 774.833,431.333 774.167,436.667 773.5,442C 774.26,459.691 774.26,477.691 773.5,496C 774.167,496.667 774.833,497.333 775.5,498C 774.43,511.638 773.597,525.471 773,539.5C 772.219,544.376 770.885,549.043 769,553.5C 765.745,557.224 762.578,561.057 759.5,565C 753.988,568.506 748.155,571.339 742,573.5C 741.586,573.043 741.086,572.709 740.5,572.5C 734.209,573.799 727.876,574.799 721.5,575.5C 686.321,574.682 651.155,574.682 616,575.5C 613.333,574.833 610.667,574.167 608,573.5C 603.333,574.167 598.667,574.833 594,575.5C 544.747,574.284 495.08,574.284 445,575.5C 442.667,574.833 440.333,574.167 438,573.5C 433,574.167 428,574.833 423,575.5C 389.272,574.591 355.272,574.591 321,575.5C 314.667,574.833 308.333,574.167 302,573.5C 292.667,574.167 283.333,574.833 274,575.5C 271.667,574.833 269.333,574.167 267,573.5C 262.199,574.192 257.365,574.858 252.5,575.5C 203.384,574.292 153.884,574.292 104,575.5C 101.333,574.833 98.6667,574.167 96,573.5C 90.1281,574.327 84.4614,574.994 79,575.5C 70.7606,574.878 62.2606,573.711 53.5,572C 36.902,565.388 27.902,553.388 26.5,536C 25.7069,534.915 25.0402,533.748 24.5,532.5C 24.6468,376.738 24.6468,220.905 24.5,65C 24.9963,63.0036 25.9963,61.3369 27.5,60C 27.5385,58.7553 27.2052,57.4219 26.5,56C 32.7845,36.616 45.2845,26.7827 64,26.5C 64.4643,25.9056 64.631,25.2389 64.5,24.5 Z"/></g>
<g><path style="opacity:1" fill="#fefefe" d="M 57.5,32.5 C 285.5,32.3333 513.5,32.5 741.5,33C 755.709,35.2093 763.876,43.376 766,57.5C 766.667,218.833 766.667,380.167 766,541.5C 763.931,555.235 756.097,563.402 742.5,566C 514.167,566.667 285.833,566.667 57.5,566C 43.3333,563.833 35.1667,555.667 33,541.5C 32.3333,380.167 32.3333,218.833 33,57.5C 35.3308,43.3366 43.4975,35.0033 57.5,32.5 Z"/></g>
<g><path style="opacity:1" fill="#31c84f" d="M 217.5,252.5 C 219.655,252.372 221.655,252.872 223.5,254C 235.665,260.915 247.665,268.082 259.5,275.5C 260.666,291.49 260.833,307.49 260,323.5C 246.814,331.426 233.48,339.093 220,346.5C 215.445,344.807 211.278,342.474 207.5,339.5C 213.37,335.8 219.37,332.3 225.5,329C 226.126,328.25 226.626,327.416 227,326.5C 227.667,308.5 227.667,290.5 227,272.5C 220.93,267.546 214.43,263.213 207.5,259.5C 210.9,257.144 214.233,254.811 217.5,252.5 Z"/></g>
<g><path style="opacity:1" fill="#c6d0da" d="M 258.5,252.5 C 259.873,252.343 261.207,252.51 262.5,253C 275.597,260.436 288.43,268.27 301,276.5C 301.817,292.211 301.651,307.878 300.5,323.5C 287.456,331.688 274.122,339.355 260.5,346.5C 256.21,344.687 252.21,342.354 248.5,339.5C 254.922,335.874 261.089,331.874 267,327.5C 267.667,308.833 267.667,290.167 267,271.5C 260.968,267.303 254.801,263.303 248.5,259.5C 251.9,257.144 255.233,254.811 258.5,252.5 Z"/></g>
<g><path style="opacity:1" fill="#4e15a2" d="M 177.5,252.5 C 178.873,252.343 180.207,252.51 181.5,253C 194.417,260.708 207.25,268.541 220,276.5C 220.667,291.833 220.667,307.167 220,322.5C 206.71,330.894 193.21,338.894 179.5,346.5C 165.46,339.397 151.96,331.397 139,322.5C 138.333,307.167 138.333,291.833 139,276.5C 151.74,268.241 164.574,260.241 177.5,252.5 Z"/></g>
<g><path style="opacity:1" fill="#4e15a2" d="M 399.5,332.5 C 399.833,317.485 399.499,302.485 398.5,287.5C 397.702,287.957 397.369,288.624 397.5,289.5C 390.91,303.428 384.41,317.428 378,331.5C 373.333,332.833 368.667,332.833 364,331.5C 357.452,317.742 350.952,304.076 344.5,290.5C 344.539,289.244 344.039,288.244 343,287.5C 342.5,302.496 342.333,317.496 342.5,332.5C 337.833,332.5 333.167,332.5 328.5,332.5C 328.333,310.831 328.5,289.164 329,267.5C 335.084,266.358 341.251,266.191 347.5,267C 348,267.5 348.5,268 349,268.5C 356.349,283.864 363.683,299.198 371,314.5C 378.623,298.923 385.956,283.256 393,267.5C 399.084,266.358 405.251,266.191 411.5,267C 412,267.5 412.5,268 413,268.5C 413.5,289.831 413.667,311.164 413.5,332.5C 408.833,332.5 404.167,332.5 399.5,332.5 Z"/></g>
<g><path style="opacity:1" fill="#4f17a2" d="M 429.5,266.5 C 449.836,266.333 470.169,266.5 490.5,267C 488.771,271.124 486.771,275.124 484.5,279C 470.504,279.5 456.504,279.667 442.5,279.5C 442.5,283.833 442.5,288.167 442.5,292.5C 455.167,292.5 467.833,292.5 480.5,292.5C 480.5,297.167 480.5,301.833 480.5,306.5C 467.833,306.5 455.167,306.5 442.5,306.5C 442.5,310.833 442.5,315.167 442.5,319.5C 458.5,319.5 474.5,319.5 490.5,319.5C 490.5,323.833 490.5,328.167 490.5,332.5C 470.164,332.667 449.831,332.5 429.5,332C 429,331.5 428.5,331 428,330.5C 427.333,309.833 427.333,289.167 428,268.5C 428.717,267.956 429.217,267.289 429.5,266.5 Z"/></g>
<g><path style="opacity:1" fill="#4e15a2" d="M 516.5,318.5 C 528.655,319.495 540.989,319.829 553.5,319.5C 553.5,315.167 553.5,310.833 553.5,306.5C 545.281,306.154 537.281,305.154 529.5,303.5C 530.421,299.701 532.088,296.368 534.5,293.5C 545.5,293.5 556.5,293.5 567.5,293.5C 567.5,305.5 567.5,317.5 567.5,329.5C 567.047,330.458 566.381,331.292 565.5,332C 544.833,332.667 524.167,332.667 503.5,332C 503,331.5 502.5,331 502,330.5C 501.333,309.833 501.333,289.167 502,268.5C 502.5,268 503,267.5 503.5,267C 524.833,266.333 546.167,266.333 567.5,267C 565.408,271.015 563.741,275.181 562.5,279.5C 547.167,279.5 531.833,279.5 516.5,279.5C 516.5,292.5 516.5,305.5 516.5,318.5 Z"/></g>
<g><path style="opacity:1" fill="#4f17a2" d="M 658.5,331.5 C 654.366,332.485 650.032,332.818 645.5,332.5C 643.052,328.441 640.719,324.275 638.5,320C 624.5,319.333 610.5,319.333 596.5,320C 594.539,323.421 592.706,326.921 591,330.5C 590.292,331.381 589.458,332.047 588.5,332.5C 584.298,332.817 580.298,332.483 576.5,331.5C 585.731,310.705 595.231,290.038 605,269.5C 605.833,268.667 606.667,267.833 607.5,267C 614.167,266.333 620.833,266.333 627.5,267C 628.333,267.833 629.167,268.667 630,269.5C 639.785,290.069 649.285,310.735 658.5,331.5 Z"/></g>
<g><path style="opacity:1" fill="#faf8fc" d="M 631.5,304.5 C 622.348,305.494 613.015,305.827 603.5,305.5C 606.88,297.071 610.546,288.737 614.5,280.5C 616.5,279.167 618.5,279.167 620.5,280.5C 624.178,288.522 627.845,296.522 631.5,304.5 Z"/></g>
<g><path style="opacity:1" fill="#a284ce" d="M 399.5,332.5 C 398.833,318.167 398.167,303.833 397.5,289.5C 397.369,288.624 397.702,287.957 398.5,287.5C 399.499,302.485 399.833,317.485 399.5,332.5 Z"/></g>
<g><path style="opacity:1" fill="#c8b5e2" d="M 344.5,290.5 C 343.833,304.5 343.167,318.5 342.5,332.5C 342.333,317.496 342.5,302.496 343,287.5C 344.039,288.244 344.539,289.244 344.5,290.5 Z"/></g>
<g><path style="opacity:1" fill="#9b7bca" d="M 534.5,293.5 C 545.654,292.505 556.988,292.172 568.5,292.5C 568.829,305.011 568.495,317.345 567.5,329.5C 567.5,317.5 567.5,305.5 567.5,293.5C 556.5,293.5 545.5,293.5 534.5,293.5 Z"/></g>
<g><path style="opacity:1" fill="#8861c0" d="M 529.5,303.5 C 537.281,305.154 545.281,306.154 553.5,306.5C 553.167,306.5 552.833,306.5 552.5,306.5C 544.5,306.5 536.5,306.5 528.5,306.5C 528.263,305.209 528.596,304.209 529.5,303.5 Z"/></g>
<g><path style="opacity:1" fill="#bea9dc" d="M 631.5,304.5 C 632.043,304.56 632.376,304.893 632.5,305.5C 622.675,306.823 613.008,306.823 603.5,305.5C 613.015,305.827 622.348,305.494 631.5,304.5 Z"/></g>
<g><path style="opacity:1" fill="#e3daf0" d="M 552.5,306.5 C 552.833,306.5 553.167,306.5 553.5,306.5C 553.5,310.833 553.5,315.167 553.5,319.5C 540.989,319.829 528.655,319.495 516.5,318.5C 528.5,318.5 540.5,318.5 552.5,318.5C 552.5,314.5 552.5,310.5 552.5,306.5 Z"/></g>
<g><path style="opacity:1" fill="#c1adde" d="M 576.5,331.5 C 580.298,332.483 584.298,332.817 588.5,332.5C 584.317,333.811 579.984,333.811 575.5,332.5C 575.624,331.893 575.957,331.56 576.5,331.5 Z"/></g>
<g><path style="opacity:1" fill="#c2aede" d="M 658.5,331.5 C 659.043,331.56 659.376,331.893 659.5,332.5C 654.682,333.812 650.015,333.812 645.5,332.5C 650.032,332.818 654.366,332.485 658.5,331.5 Z"/></g>
</svg>
