<?xml version="1.0" encoding="UTF-8"?>
<!DOCTYPE svg PUBLIC "-//W3C//DTD SVG 1.1//EN" "http://www.w3.org/Graphics/SVG/1.1/DTD/svg11.dtd">
<svg xmlns="http://www.w3.org/2000/svg" version="1.1" width="750px" height="565px" style="shape-rendering:geometricPrecision; text-rendering:geometricPrecision; image-rendering:optimizeQuality; fill-rule:evenodd; clip-rule:evenodd" xmlns:xlink="http://www.w3.org/1999/xlink">
<g><path style="opacity:1" fill="#fefefe" d="M -0.5,-0.5 C 249.5,-0.5 499.5,-0.5 749.5,-0.5C 749.5,187.833 749.5,376.167 749.5,564.5C 499.5,564.5 249.5,564.5 -0.5,564.5C -0.5,376.167 -0.5,187.833 -0.5,-0.5 Z"/></g>
<g><path style="opacity:1" fill="#85c5e2" d="M 415.5,182.5 C 422.982,181.508 430.648,181.175 438.5,181.5C 438.784,183.415 438.451,185.081 437.5,186.5C 437.5,185.167 437.5,183.833 437.5,182.5C 430.167,182.5 422.833,182.5 415.5,182.5 Z"/></g>
<g><path style="opacity:1" fill="#76bedf" d="M 530.5,182.5 C 522.167,182.5 513.833,182.5 505.5,182.5C 505.5,183.833 505.5,185.167 505.5,186.5C 504.549,185.081 504.216,183.415 504.5,181.5C 513.349,181.174 522.016,181.507 530.5,182.5 Z"/></g>
<g><path style="opacity:1" fill="#e43b24" d="M 203.5,181.5 C 217.37,177.852 226.87,182.519 232,195.5C 232.667,252.167 232.667,308.833 232,365.5C 229.656,374.175 223.99,378.842 215,379.5C 202.435,376.64 190.601,371.807 179.5,365C 154.698,350.212 132.198,332.379 112,311.5C 102.879,301.757 97.3789,290.257 95.5,277C 96.2212,266.169 99.7212,256.336 106,247.5C 132.023,215.907 164.523,193.907 203.5,181.5 Z"/></g>
<g><path style="opacity:1" fill="#098dd2" d="M 48.5,182.5 C 87.839,182.167 127.172,182.5 166.5,183.5C 154.002,193.826 141.336,203.993 128.5,214C 108.952,230.204 93.1185,249.371 81,271.5C 73.8511,289.047 75.5178,305.714 86,321.5C 91.7926,328.961 97.9593,336.128 104.5,343C 117.295,353.46 129.795,364.293 142,375.5C 142.617,376.449 142.451,377.282 141.5,378C 111.167,378.667 80.8333,378.667 50.5,378C 42.5126,375.221 37.3459,369.721 35,361.5C 34.3333,306.167 34.3333,250.833 35,195.5C 38.101,189.563 42.601,185.23 48.5,182.5 Z"/></g>
<g><path style="opacity:1" fill="#38a0d4" d="M 246.5,208.5 C 246.44,209.043 246.107,209.376 245.5,209.5C 244.502,200.525 244.168,191.525 244.5,182.5C 243.5,182.5 242.5,182.5 241.5,182.5C 241.5,202.5 241.5,222.5 241.5,242.5C 242.5,242.5 243.5,242.5 244.5,242.5C 244.173,233.318 244.507,224.318 245.5,215.5C 245.5,224.833 245.5,234.167 245.5,243.5C 243.833,243.5 242.167,243.5 240.5,243.5C 240.5,222.833 240.5,202.167 240.5,181.5C 242.167,181.5 243.833,181.5 245.5,181.5C 245.173,190.682 245.507,199.682 246.5,208.5 Z"/></g>
<g><path style="opacity:1" fill="#1c8dd0" d="M 245.5,215.5 C 244.507,224.318 244.173,233.318 244.5,242.5C 243.5,242.5 242.5,242.5 241.5,242.5C 241.5,222.5 241.5,202.5 241.5,182.5C 242.5,182.5 243.5,182.5 244.5,182.5C 244.168,191.525 244.502,200.525 245.5,209.5C 246.107,209.376 246.44,209.043 246.5,208.5C 255.635,199.533 264.969,190.7 274.5,182C 276.5,181.333 278.5,181.333 280.5,182C 269.682,191.651 259.349,201.818 249.5,212.5C 259.959,222.458 270.292,232.625 280.5,243C 278.5,243.667 276.5,243.667 274.5,243C 265.267,233.264 255.6,224.097 245.5,215.5 Z"/></g>
<g><path style="opacity:1" fill="#028acf" d="M 291.5,182.5 C 291.5,201.167 291.5,219.833 291.5,238.5C 300.342,239.167 309.342,239.833 318.5,240.5C 319.376,241.251 320.376,241.751 321.5,242C 310.172,242.5 298.838,242.667 287.5,242.5C 287.5,222.5 287.5,202.5 287.5,182.5C 288.833,182.5 290.167,182.5 291.5,182.5 Z"/></g>
<g><path style="opacity:1" fill="#6eb9de" d="M 337.5,181.5 C 339.5,181.5 341.5,181.5 343.5,181.5C 343.5,202.167 343.5,222.833 343.5,243.5C 341.5,243.5 339.5,243.5 337.5,243.5C 337.5,222.833 337.5,202.167 337.5,181.5 Z"/></g>
<g><path style="opacity:1" fill="#028acf" d="M 338.5,182.5 C 339.833,182.5 341.167,182.5 342.5,182.5C 342.5,202.5 342.5,222.5 342.5,242.5C 341.167,242.5 339.833,242.5 338.5,242.5C 338.5,222.5 338.5,202.5 338.5,182.5 Z"/></g>
<g><path style="opacity:1" fill="#bddfee" d="M 388.5,182.5 C 377.167,182.5 365.833,182.5 354.5,182.5C 354.5,202.833 354.5,223.167 354.5,243.5C 353.503,223.007 353.169,202.34 353.5,181.5C 365.345,181.172 377.012,181.505 388.5,182.5 Z"/></g>
<g><path style="opacity:1" fill="#2691d2" d="M 388.5,182.5 C 393.68,183.512 397.18,186.512 399,191.5C 400.174,199.109 399.507,206.442 397,213.5C 395.127,215.709 392.96,217.542 390.5,219C 382.173,219.5 373.84,219.666 365.5,219.5C 365.5,217.833 365.5,216.167 365.5,214.5C 373.889,214.803 382.222,214.47 390.5,213.5C 392.297,211.869 393.464,209.869 394,207.5C 394.667,202.167 394.667,196.833 394,191.5C 392.363,189.19 390.196,187.69 387.5,187C 378.173,186.5 368.839,186.334 359.5,186.5C 359.5,205.5 359.5,224.5 359.5,243.5C 357.833,243.5 356.167,243.5 354.5,243.5C 354.5,223.167 354.5,202.833 354.5,182.5C 365.833,182.5 377.167,182.5 388.5,182.5 Z"/></g>
<g><path style="opacity:1" fill="#0f8bd0" d="M 415.5,182.5 C 422.833,182.5 430.167,182.5 437.5,182.5C 437.5,183.833 437.5,185.167 437.5,186.5C 429.826,186.334 422.159,186.5 414.5,187C 411.288,189.019 409.622,191.853 409.5,195.5C 408.504,210.991 408.17,226.658 408.5,242.5C 407.5,242.5 406.5,242.5 405.5,242.5C 405.5,225.167 405.5,207.833 405.5,190.5C 406.854,185.476 410.188,182.809 415.5,182.5 Z"/></g>
<g><path style="opacity:1" fill="#008ad0" d="M 498.5,241.5 C 498.5,241.833 498.5,242.167 498.5,242.5C 497.167,242.5 495.833,242.5 494.5,242.5C 494.5,222.5 494.5,202.5 494.5,182.5C 495.5,182.5 496.5,182.5 497.5,182.5C 497.17,202.34 497.503,222.007 498.5,241.5 Z"/></g>
<g><path style="opacity:1" fill="#2195d1" d="M 498.5,241.5 C 497.503,222.007 497.17,202.34 497.5,182.5C 496.5,182.5 495.5,182.5 494.5,182.5C 494.5,202.5 494.5,222.5 494.5,242.5C 495.833,242.5 497.167,242.5 498.5,242.5C 497.081,243.451 495.415,243.784 493.5,243.5C 493.5,222.833 493.5,202.167 493.5,181.5C 495.167,181.5 496.833,181.5 498.5,181.5C 498.5,201.5 498.5,221.5 498.5,241.5 Z"/></g>
<g><path style="opacity:1" fill="#178dd0" d="M 530.5,182.5 C 535.456,182.619 538.956,184.952 541,189.5C 541.667,194.833 541.667,200.167 541,205.5C 540.31,208.196 538.81,210.363 536.5,212C 538.378,213.543 539.878,215.376 541,217.5C 541.861,223.585 541.527,229.585 540,235.5C 538.01,239.49 534.843,241.99 530.5,243C 521.84,243.5 513.173,243.666 504.5,243.5C 504.5,241.833 504.5,240.167 504.5,238.5C 513.173,238.666 521.84,238.5 530.5,238C 532.081,237.293 533.581,236.46 535,235.5C 540.422,217.084 533.589,210.084 514.5,214.5C 514.5,213.167 514.5,211.833 514.5,210.5C 519.695,210.821 524.695,210.487 529.5,209.5C 532.195,209.067 534.362,207.734 536,205.5C 536.806,199.916 536.639,194.416 535.5,189C 534.328,188.581 533.328,187.915 532.5,187C 523.506,186.5 514.506,186.334 505.5,186.5C 505.5,185.167 505.5,183.833 505.5,182.5C 513.833,182.5 522.167,182.5 530.5,182.5 Z"/></g>
<g><path style="opacity:1" fill="#6abadf" d="M 446.5,182.5 C 445.167,182.5 443.833,182.5 442.5,182.5C 442.5,202.833 442.5,223.167 442.5,243.5C 441.503,223.007 441.169,202.34 441.5,181.5C 443.415,181.216 445.081,181.549 446.5,182.5 Z"/></g>
<g><path style="opacity:1" fill="#379ed3" d="M 405.5,190.5 C 405.5,207.833 405.5,225.167 405.5,242.5C 406.5,242.5 407.5,242.5 408.5,242.5C 408.17,226.658 408.504,210.991 409.5,195.5C 409.5,211.5 409.5,227.5 409.5,243.5C 407.833,243.5 406.167,243.5 404.5,243.5C 404.17,225.659 404.503,207.992 405.5,190.5 Z"/></g>
<g><path style="opacity:1" fill="#1e8fd0" d="M 330.5,234.5 C 329.673,229.349 329.173,224.016 329,218.5C 328.667,222.833 328.333,227.167 328,231.5C 327.825,226.981 327.325,222.647 326.5,218.5C 325.857,215.012 323.857,212.512 320.5,211C 312.841,210.5 305.174,210.334 297.5,210.5C 297.5,208.833 297.5,207.167 297.5,205.5C 305.507,205.334 313.507,205.5 321.5,206C 326,207.833 329.167,211 331,215.5C 331.79,221.915 331.624,228.248 330.5,234.5 Z"/></g>
<g><path style="opacity:1" fill="#1e90d1" d="M 446.5,182.5 C 446.5,201.167 446.5,219.833 446.5,238.5C 456.172,238.666 465.839,238.5 475.5,238C 477.939,237.226 479.773,235.726 481,233.5C 481.667,227.5 481.667,221.5 481,215.5C 479.773,213.274 477.939,211.774 475.5,211C 468.174,210.5 460.841,210.334 453.5,210.5C 453.5,208.833 453.5,207.167 453.5,205.5C 461.174,205.334 468.841,205.5 476.5,206C 480.612,207.779 483.778,210.612 486,214.5C 486.667,221.167 486.667,227.833 486,234.5C 484.5,238.667 481.667,241.5 477.5,243C 465.838,243.5 454.171,243.667 442.5,243.5C 442.5,223.167 442.5,202.833 442.5,182.5C 443.833,182.5 445.167,182.5 446.5,182.5 Z"/></g>
<g><path style="opacity:1" fill="#70bade" d="M 529.5,209.5 C 524.695,210.487 519.695,210.821 514.5,210.5C 514.5,211.833 514.5,213.167 514.5,214.5C 513.549,213.081 513.216,211.415 513.5,209.5C 518.833,209.5 524.167,209.5 529.5,209.5 Z"/></g>
<g><path style="opacity:1" fill="#2f98d3" d="M 291.5,182.5 C 290.167,182.5 288.833,182.5 287.5,182.5C 287.5,202.5 287.5,222.5 287.5,242.5C 298.838,242.667 310.172,242.5 321.5,242C 320.376,241.751 319.376,241.251 318.5,240.5C 309.342,239.833 300.342,239.167 291.5,238.5C 301.938,238.951 312.271,238.451 322.5,237C 323.667,235.833 324.833,234.667 326,233.5C 326.499,228.511 326.666,223.511 326.5,218.5C 327.325,222.647 327.825,226.981 328,231.5C 328.333,227.167 328.667,222.833 329,218.5C 329.173,224.016 329.673,229.349 330.5,234.5C 328.715,238.12 326.048,240.953 322.5,243C 310.505,243.5 298.505,243.667 286.5,243.5C 286.5,222.833 286.5,202.167 286.5,181.5C 288.415,181.216 290.081,181.549 291.5,182.5 Z"/></g>
<g><path style="opacity:1" fill="#128ed1" d="M 421.5,347.5 C 417.971,349.423 413.971,350.089 409.5,349.5C 402.31,326.933 394.31,304.599 385.5,282.5C 377.199,304.76 369.199,327.094 361.5,349.5C 346.511,350.666 331.511,350.833 316.5,350C 307.333,348.167 301.833,342.667 300,333.5C 299.333,314.833 299.333,296.167 300,277.5C 303.301,269.684 309.134,265.684 317.5,265.5C 330.167,265.5 342.833,265.5 355.5,265.5C 355.5,269.167 355.5,272.833 355.5,276.5C 342.656,276.171 329.989,276.505 317.5,277.5C 314.909,278.254 313.076,279.921 312,282.5C 311.029,299.591 311.362,316.591 313,333.5C 314.167,334.667 315.333,335.833 316.5,337C 328.829,337.5 341.162,337.667 353.5,337.5C 360.893,315.487 368.393,293.487 376,271.5C 378.72,263.583 383.887,261.416 391.5,265C 402.782,292.01 412.782,319.51 421.5,347.5 Z"/></g>
<g><path style="opacity:1" fill="#5eb3db" d="M 536.5,265.5 C 541.015,264.188 545.682,264.188 550.5,265.5C 550.376,266.107 550.043,266.44 549.5,266.5C 545.366,265.515 541.032,265.182 536.5,265.5 Z"/></g>
<g><path style="opacity:1" fill="#128ed1" d="M 571.5,263.5 C 580.506,263.334 589.506,263.5 598.5,264C 606.301,265.135 611.801,269.301 615,276.5C 616.599,294.789 616.932,313.122 616,331.5C 614.384,342.782 607.884,348.949 596.5,350C 587.438,350.881 578.438,350.548 569.5,349C 562.268,346.101 557.435,340.934 555,333.5C 554.333,315.167 554.333,296.833 555,278.5C 557.558,270.103 563.058,265.103 571.5,263.5 Z"/></g>
<g><path style="opacity:1" fill="#0e8dd1" d="M 715.5,270.5 C 715.5,296.833 715.5,323.167 715.5,349.5C 711.833,349.5 708.167,349.5 704.5,349.5C 704.667,325.498 704.5,301.498 704,277.5C 702.961,278.244 702.461,279.244 702.5,280.5C 696.167,300.335 690.333,320.335 685,340.5C 682.426,349.868 676.592,353.035 667.5,350C 665.622,348.457 664.122,346.624 663,344.5C 656.539,322.782 649.872,301.116 643,279.5C 642.5,302.831 642.333,326.164 642.5,349.5C 638.5,349.5 634.5,349.5 630.5,349.5C 630.5,323.833 630.5,298.167 630.5,272.5C 633.079,264.894 638.412,262.06 646.5,264C 648.96,265.458 651.127,267.291 653,269.5C 659.978,291.413 666.645,313.413 673,335.5C 679.72,313.065 686.72,290.732 694,268.5C 699.365,262.734 705.532,261.901 712.5,266C 714.141,267.129 715.141,268.629 715.5,270.5 Z"/></g>
<g><path style="opacity:1" fill="#148ed1" d="M 437.5,264.5 C 451.833,264.5 466.167,264.5 480.5,264.5C 480.5,268.5 480.5,272.5 480.5,276.5C 467.163,276.333 453.829,276.5 440.5,277C 439.333,278.167 438.167,279.333 437,280.5C 436.333,297.833 436.333,315.167 437,332.5C 438.109,334.815 439.943,336.315 442.5,337C 454.829,337.5 467.162,337.667 479.5,337.5C 479.5,341.5 479.5,345.5 479.5,349.5C 465.829,349.667 452.163,349.5 438.5,349C 432.191,347.362 427.691,343.529 425,337.5C 423.408,317.538 423.075,297.538 424,277.5C 426.442,270.888 430.942,266.555 437.5,264.5 Z"/></g>
<g><path style="opacity:1" fill="#008bd1" d="M 271.5,277.5 C 270.502,301.328 270.169,325.328 270.5,349.5C 266.833,349.5 263.167,349.5 259.5,349.5C 259.831,325.328 259.498,301.328 258.5,277.5C 252.69,276.51 246.69,276.177 240.5,276.5C 240.5,272.833 240.5,269.167 240.5,265.5C 256.833,265.5 273.167,265.5 289.5,265.5C 289.5,269.167 289.5,272.833 289.5,276.5C 283.31,276.177 277.31,276.51 271.5,277.5 Z"/></g>
<g><path style="opacity:1" fill="#59b0da" d="M 489.5,264.5 C 493.833,264.5 498.167,264.5 502.5,264.5C 502.5,293.167 502.5,321.833 502.5,350.5C 498.167,350.5 493.833,350.5 489.5,350.5C 489.5,321.833 489.5,293.167 489.5,264.5 Z"/></g>
<g><path style="opacity:1" fill="#008bd1" d="M 490.5,265.5 C 494.167,265.5 497.833,265.5 501.5,265.5C 501.5,293.5 501.5,321.5 501.5,349.5C 497.833,349.5 494.167,349.5 490.5,349.5C 490.5,321.5 490.5,293.5 490.5,265.5 Z"/></g>
<g><path style="opacity:1" fill="#108dd1" d="M 536.5,265.5 C 541.032,265.182 545.366,265.515 549.5,266.5C 540.1,280.074 530.1,293.241 519.5,306C 530.383,320.044 541.05,334.21 551.5,348.5C 547.03,349.486 542.363,349.819 537.5,349.5C 529.932,338.425 521.766,327.758 513,317.5C 510.35,313.868 508.517,309.868 507.5,305.5C 507.847,302.472 509.014,299.806 511,297.5C 519.744,286.934 528.244,276.268 536.5,265.5 Z"/></g>
<g><path style="opacity:1" fill="#79bfe0" d="M 271.5,277.5 C 277.31,276.51 283.31,276.177 289.5,276.5C 289.5,272.833 289.5,269.167 289.5,265.5C 273.167,265.5 256.833,265.5 240.5,265.5C 240.5,269.167 240.5,272.833 240.5,276.5C 246.69,276.177 252.69,276.51 258.5,277.5C 252.167,277.5 245.833,277.5 239.5,277.5C 239.5,273.167 239.5,268.833 239.5,264.5C 256.5,264.5 273.5,264.5 290.5,264.5C 290.5,268.833 290.5,273.167 290.5,277.5C 284.167,277.5 277.833,277.5 271.5,277.5 Z"/></g>
<g><path style="opacity:1" fill="#76bedf" d="M 317.5,265.5 C 330.323,264.505 343.323,264.171 356.5,264.5C 356.5,268.833 356.5,273.167 356.5,277.5C 343.5,277.5 330.5,277.5 317.5,277.5C 329.989,276.505 342.656,276.171 355.5,276.5C 355.5,272.833 355.5,269.167 355.5,265.5C 342.833,265.5 330.167,265.5 317.5,265.5 Z"/></g>
<g><path style="opacity:1" fill="#fbfdfe" d="M 570.5,276.5 C 580.172,276.334 589.839,276.5 599.5,277C 600.416,277.374 601.25,277.874 602,278.5C 603.639,296.409 603.973,314.409 603,332.5C 602.535,333.931 601.701,335.097 600.5,336C 590.574,337.59 580.574,337.923 570.5,337C 569.213,335.59 568.046,334.09 567,332.5C 566.333,315.833 566.333,299.167 567,282.5C 567.564,280.113 568.73,278.113 570.5,276.5 Z"/></g>
<g><path style="opacity:1" fill="#6fbbde" d="M 630.5,272.5 C 630.5,298.167 630.5,323.833 630.5,349.5C 634.5,349.5 638.5,349.5 642.5,349.5C 638.366,350.485 634.032,350.818 629.5,350.5C 629.169,324.328 629.502,298.328 630.5,272.5 Z"/></g>
<g><path style="opacity:1" fill="#42a4d5" d="M 258.5,277.5 C 259.498,301.328 259.831,325.328 259.5,349.5C 263.167,349.5 266.833,349.5 270.5,349.5C 270.169,325.328 270.502,301.328 271.5,277.5C 271.5,301.833 271.5,326.167 271.5,350.5C 267.167,350.5 262.833,350.5 258.5,350.5C 258.5,326.167 258.5,301.833 258.5,277.5 Z"/></g>
<g><path style="opacity:1" fill="#4ca9d8" d="M 715.5,270.5 C 716.498,296.995 716.831,323.661 716.5,350.5C 712.167,350.5 707.833,350.5 703.5,350.5C 703.831,326.994 703.498,303.661 702.5,280.5C 702.461,279.244 702.961,278.244 704,277.5C 704.5,301.498 704.667,325.498 704.5,349.5C 708.167,349.5 711.833,349.5 715.5,349.5C 715.5,323.167 715.5,296.833 715.5,270.5 Z"/></g>
<g><path style="opacity:1" fill="#078cd1" d="M 474.5,299.5 C 474.5,303.167 474.5,306.833 474.5,310.5C 464.833,310.5 455.167,310.5 445.5,310.5C 445.5,306.833 445.5,303.167 445.5,299.5C 455.167,299.5 464.833,299.5 474.5,299.5 Z"/></g>
<g><path style="opacity:1" fill="#1f8fd2" d="M 321.5,300.5 C 331.167,300.5 340.833,300.5 350.5,300.5C 350.5,304.5 350.5,308.5 350.5,312.5C 340.833,312.5 331.167,312.5 321.5,312.5C 321.5,308.5 321.5,304.5 321.5,300.5 Z"/></g>
<g><path style="opacity:1" fill="#60b3db" d="M 474.5,299.5 C 475.483,303.298 475.817,307.298 475.5,311.5C 465.319,311.827 455.319,311.494 445.5,310.5C 455.167,310.5 464.833,310.5 474.5,310.5C 474.5,306.833 474.5,303.167 474.5,299.5 Z"/></g>
<g><path style="opacity:1" fill="#70bbde" d="M 421.5,347.5 C 422.404,348.209 422.737,349.209 422.5,350.5C 417.968,350.818 413.634,350.485 409.5,349.5C 413.971,350.089 417.971,349.423 421.5,347.5 Z"/></g>
<g><path style="opacity:1" fill="#81c3e2" d="M 551.5,348.5 C 552.043,348.56 552.376,348.893 552.5,349.5C 547.348,350.814 542.348,350.814 537.5,349.5C 542.363,349.819 547.03,349.486 551.5,348.5 Z"/></g>
<g><path style="opacity:1" fill="#459ad3" d="M 256.5,360.5 C 269.657,357.326 274.991,362.326 272.5,375.5C 271.5,375.5 270.5,375.5 269.5,375.5C 269.5,371.5 269.5,367.5 269.5,363.5C 268.167,363.5 266.833,363.5 265.5,363.5C 265.5,367.5 265.5,371.5 265.5,375.5C 264.5,375.5 263.5,375.5 262.5,375.5C 262.5,371.5 262.5,367.5 262.5,363.5C 261.167,363.5 259.833,363.5 258.5,363.5C 258.824,367.555 258.491,371.555 257.5,375.5C 256.506,370.544 256.173,365.544 256.5,360.5 Z"/></g>
<g><path style="opacity:1" fill="#0682cb" d="M 293.5,361.5 C 296.518,361.335 299.518,361.502 302.5,362C 303.056,362.383 303.389,362.883 303.5,363.5C 303.665,366.518 303.498,369.518 303,372.5C 302.817,369.635 302.317,366.969 301.5,364.5C 301.5,363.833 301.167,363.5 300.5,363.5C 298.735,362.539 296.735,362.205 294.5,362.5C 294.5,366.5 294.5,370.5 294.5,374.5C 302.5,374.833 302.5,375.167 294.5,375.5C 294.5,377.5 294.5,379.5 294.5,381.5C 293.509,375.021 293.176,368.354 293.5,361.5 Z"/></g>
<g><path style="opacity:1" fill="#3692d1" d="M 676.5,375.5 C 676.5,371.167 676.5,366.833 676.5,362.5C 674.5,362.5 672.5,362.5 670.5,362.5C 670.5,366.833 670.5,371.167 670.5,375.5C 669.514,371.03 669.181,366.363 669.5,361.5C 674.179,361.334 678.845,361.501 683.5,362C 684,362.5 684.5,363 685,363.5C 685.499,367.486 685.666,371.486 685.5,375.5C 684.5,375.5 683.5,375.5 682.5,375.5C 682.5,371.5 682.5,367.5 682.5,363.5C 681.167,363.5 679.833,363.5 678.5,363.5C 679.089,367.971 678.423,371.971 676.5,375.5 Z"/></g>
<g><path style="opacity:1" fill="#3596d2" d="M 308.5,361.5 C 309.5,361.5 310.5,361.5 311.5,361.5C 311.5,363.5 311.5,365.5 311.5,367.5C 316.575,367.18 318.408,369.514 317,374.5C 314.281,375.444 311.448,375.777 308.5,375.5C 308.5,370.833 308.5,366.167 308.5,361.5 Z"/></g>
<g><path style="opacity:1" fill="#51a3d7" d="M 327.5,361.5 C 340.501,357.162 345.835,361.828 343.5,375.5C 342.5,375.5 341.5,375.5 340.5,375.5C 340.5,371.5 340.5,367.5 340.5,363.5C 339.167,363.5 337.833,363.5 336.5,363.5C 336.5,367.5 336.5,371.5 336.5,375.5C 335.5,375.5 334.5,375.5 333.5,375.5C 333.5,371.5 333.5,367.5 333.5,363.5C 332.167,363.5 330.833,363.5 329.5,363.5C 329.817,367.702 329.483,371.702 328.5,375.5C 328.5,371.167 328.5,366.833 328.5,362.5C 330.199,362.66 331.866,362.494 333.5,362C 331.527,361.505 329.527,361.338 327.5,361.5 Z"/></g>
<g><path style="opacity:1" fill="#55a6d8" d="M 434.5,373.5 C 432.708,374.309 430.708,374.809 428.5,375C 431.365,375.183 434.031,375.683 436.5,376.5C 425.328,377.639 421.328,372.639 424.5,361.5C 425.5,361.5 426.5,361.5 427.5,361.5C 427.5,365.5 427.5,369.5 427.5,373.5C 429.833,373.5 432.167,373.5 434.5,373.5 Z"/></g>
<g><path style="opacity:1" fill="#2c91d0" d="M 656.5,361.5 C 659.247,361.187 661.914,361.52 664.5,362.5C 662.577,363.308 660.577,363.808 658.5,364C 657.167,367 657.167,370 658.5,373C 660.577,373.192 662.577,373.692 664.5,374.5C 661.388,375.983 658.555,375.65 656,373.5C 655.306,369.446 655.473,365.446 656.5,361.5 Z"/></g>
<g><path style="opacity:1" fill="#228fcf" d="M 365.5,361.5 C 368.187,361.336 370.854,361.503 373.5,362C 374.435,364.381 374.768,366.881 374.5,369.5C 371.5,369.5 368.5,369.5 365.5,369.5C 365.33,370.822 365.663,371.989 366.5,373C 369.226,373.182 371.893,373.682 374.5,374.5C 364.51,377.342 361.01,373.675 364,363.5C 364.717,362.956 365.217,362.289 365.5,361.5 Z"/></g>
<g><path style="opacity:1" fill="#2590cf" d="M 641.5,361.5 C 644.187,361.336 646.854,361.503 649.5,362C 650.435,364.381 650.768,366.881 650.5,369.5C 647.5,369.5 644.5,369.5 641.5,369.5C 641.33,370.822 641.663,371.989 642.5,373C 645.226,373.182 647.893,373.682 650.5,374.5C 640.51,377.342 637.01,373.675 640,363.5C 640.717,362.956 641.217,362.289 641.5,361.5 Z"/></g>
<g><path style="opacity:1" fill="#55abd8" d="M 676.5,375.5 C 675.517,371.702 675.183,367.702 675.5,363.5C 674.167,363.5 672.833,363.5 671.5,363.5C 671.817,367.702 671.483,371.702 670.5,375.5C 670.5,371.167 670.5,366.833 670.5,362.5C 672.5,362.5 674.5,362.5 676.5,362.5C 676.5,366.833 676.5,371.167 676.5,375.5 Z"/></g>
<g><path style="opacity:1" fill="#3896d2" d="M 691.5,354.5 C 696.101,354.434 698.434,356.767 698.5,361.5C 699.478,361.977 700.311,362.643 701,363.5C 703.708,374.471 700.041,377.804 690,373.5C 689.333,367.833 689.333,362.167 690,356.5C 690.717,355.956 691.217,355.289 691.5,354.5 Z"/></g>
<g><path style="opacity:1" fill="#cde6f3" d="M 692.5,356.5 C 696.379,357.836 696.379,359.502 692.5,361.5C 691.334,359.833 691.334,358.166 692.5,356.5 Z"/></g>
<g><path style="opacity:1" fill="#208acd" d="M 320.5,361.5 C 321.805,363.397 322.471,365.731 322.5,368.5C 322.167,370.833 321.833,373.167 321.5,375.5C 320.507,370.88 320.173,366.214 320.5,361.5 Z"/></g>
<g><path style="opacity:1" fill="#208dce" d="M 349.5,361.5 C 352.249,361.274 354.916,361.607 357.5,362.5C 358.659,366.122 358.825,369.789 358,373.5C 354.667,376.167 351.333,376.167 348,373.5C 346.994,369.198 347.494,365.198 349.5,361.5 Z"/></g>
<g><path style="opacity:1" fill="#f1f8fb" d="M 350.5,363.5 C 352.467,363.261 354.301,363.594 356,364.5C 356.777,367.429 356.61,370.263 355.5,373C 353.559,373.743 351.726,373.576 350,372.5C 349.264,369.408 349.431,366.408 350.5,363.5 Z"/></g>
<g><path style="opacity:1" fill="#eef7fa" d="M 366.5,363.5 C 368.5,363.5 370.5,363.5 372.5,363.5C 372.5,364.833 372.5,366.167 372.5,367.5C 370.167,367.5 367.833,367.5 365.5,367.5C 365.433,366.041 365.766,364.708 366.5,363.5 Z"/></g>
<g><path style="opacity:1" fill="#258ecf" d="M 394.5,361.5 C 397.833,361.5 401.167,361.5 404.5,361.5C 403.974,366.109 404.641,370.443 406.5,374.5C 402.285,375.798 398.118,375.798 394,374.5C 393.232,370.08 393.398,365.747 394.5,361.5 Z"/></g>
<g><path style="opacity:1" fill="#f1f8fb" d="M 395.5,363.5 C 397.833,363.5 400.167,363.5 402.5,363.5C 402.665,366.518 402.498,369.518 402,372.5C 399.959,373.423 397.792,373.756 395.5,373.5C 395.5,370.167 395.5,366.833 395.5,363.5 Z"/></g>
<g><path style="opacity:1" fill="#148cce" d="M 443.5,361.5 C 445.26,364.701 446.094,368.367 446,372.5C 448.041,373.423 450.208,373.756 452.5,373.5C 452.176,369.445 452.509,365.445 453.5,361.5C 454.493,366.12 454.827,370.786 454.5,375.5C 451.102,375.82 447.768,375.487 444.5,374.5C 443.561,370.235 443.228,365.902 443.5,361.5 Z"/></g>
<g><path style="opacity:1" fill="#1586cc" d="M 515.5,375.5 C 513.473,375.662 511.473,375.495 509.5,375C 511.382,374.802 513.048,374.302 514.5,373.5C 515.117,373.389 515.617,373.056 516,372.5C 516.736,369.408 516.569,366.408 515.5,363.5C 513.393,362.532 511.059,362.198 508.5,362.5C 508.823,369.022 508.49,375.355 507.5,381.5C 507.5,374.833 507.5,368.167 507.5,361.5C 510.909,361.249 514.242,361.583 517.5,362.5C 518.659,366.122 518.825,369.789 518,373.5C 517.292,374.381 516.458,375.047 515.5,375.5 Z"/></g>
<g><path style="opacity:1" fill="#f4f9fc" d="M 515.5,363.5 C 516.569,366.408 516.736,369.408 516,372.5C 515.617,373.056 515.117,373.389 514.5,373.5C 512.833,373.5 511.167,373.5 509.5,373.5C 509.5,370.167 509.5,366.833 509.5,363.5C 511.5,363.5 513.5,363.5 515.5,363.5 Z"/></g>
<g><path style="opacity:1" fill="#3d98d3" d="M 586.5,361.5 C 596.012,360.193 599.179,364.193 596,373.5C 585.959,377.804 582.292,374.471 585,363.5C 585.717,362.956 586.217,362.289 586.5,361.5 Z"/></g>
<g><path style="opacity:1" fill="#fbfdfe" d="M 587.5,363.5 C 591.923,362.425 593.923,364.092 593.5,368.5C 593.923,372.908 591.923,374.575 587.5,373.5C 587.5,370.167 587.5,366.833 587.5,363.5 Z"/></g>
<g><path style="opacity:1" fill="#eff7fa" d="M 642.5,363.5 C 646.241,362.599 648.241,363.932 648.5,367.5C 646.167,367.5 643.833,367.5 641.5,367.5C 641.433,366.041 641.766,364.708 642.5,363.5 Z"/></g>
<g><path style="opacity:1" fill="#f9fcfd" d="M 692.5,363.5 C 694.5,363.5 696.5,363.5 698.5,363.5C 698.5,366.833 698.5,370.167 698.5,373.5C 696.5,373.5 694.5,373.5 692.5,373.5C 692.5,370.167 692.5,366.833 692.5,363.5 Z"/></g>
<g><path style="opacity:1" fill="#0079c7" d="M 327.5,361.5 C 329.527,361.338 331.527,361.505 333.5,362C 331.866,362.494 330.199,362.66 328.5,362.5C 328.5,366.833 328.5,371.167 328.5,375.5C 327.514,371.03 327.181,366.363 327.5,361.5 Z"/></g>
<g><path style="opacity:1" fill="#148dce" d="M 475.5,361.5 C 477.308,362.918 477.975,364.918 477.5,367.5C 479.833,367.5 482.167,367.5 484.5,367.5C 484.201,365.396 484.534,363.396 485.5,361.5C 486.833,366.167 486.833,370.833 485.5,375.5C 484.534,373.604 484.201,371.604 484.5,369.5C 482.167,369.5 479.833,369.5 477.5,369.5C 477.799,371.604 477.466,373.604 476.5,375.5C 475.507,370.88 475.173,366.214 475.5,361.5 Z"/></g>
<g><path style="opacity:1" fill="#248fcf" d="M 492.5,361.5 C 499.878,359.494 503.211,362.16 502.5,369.5C 499.5,369.5 496.5,369.5 493.5,369.5C 493.5,370.833 493.5,372.167 493.5,373.5C 496.572,373.183 499.572,373.516 502.5,374.5C 498.955,375.791 495.455,375.791 492,374.5C 491.232,370.08 491.398,365.747 492.5,361.5 Z"/></g>
<g><path style="opacity:1" fill="#e8f4f9" d="M 493.5,363.5 C 495.833,363.5 498.167,363.5 500.5,363.5C 500.5,364.833 500.5,366.167 500.5,367.5C 498.167,367.5 495.833,367.5 493.5,367.5C 493.5,366.167 493.5,364.833 493.5,363.5 Z"/></g>
<g><path style="opacity:1" fill="#1b8ece" d="M 523.5,361.5 C 525.308,362.918 525.975,364.918 525.5,367.5C 527.833,367.5 530.167,367.5 532.5,367.5C 532.201,365.396 532.534,363.396 533.5,361.5C 534.833,366.167 534.833,370.833 533.5,375.5C 532.534,373.604 532.201,371.604 532.5,369.5C 530.167,369.5 527.833,369.5 525.5,369.5C 525.799,371.604 525.466,373.604 524.5,375.5C 523.507,370.88 523.173,366.214 523.5,361.5 Z"/></g>
<g><path style="opacity:1" fill="#3093d1" d="M 556.5,361.5 C 563.82,359.501 567.153,362.167 566.5,369.5C 563.5,369.5 560.5,369.5 557.5,369.5C 557.5,370.833 557.5,372.167 557.5,373.5C 560.572,373.183 563.572,373.516 566.5,374.5C 554.429,377.162 551.095,372.829 556.5,361.5 Z"/></g>
<g><path style="opacity:1" fill="#e6f3f8" d="M 557.5,363.5 C 559.833,363.5 562.167,363.5 564.5,363.5C 564.5,364.833 564.5,366.167 564.5,367.5C 562.167,367.5 559.833,367.5 557.5,367.5C 557.5,366.167 557.5,364.833 557.5,363.5 Z"/></g>
<g><path style="opacity:1" fill="#3896d2" d="M 408.5,361.5 C 409.5,361.5 410.5,361.5 411.5,361.5C 411.338,363.527 411.505,365.527 412,367.5C 413.833,365.667 415.667,363.833 417.5,362C 418.5,361.333 419.5,361.333 420.5,362C 418.649,363.684 416.982,365.517 415.5,367.5C 416.921,370.009 418.588,372.343 420.5,374.5C 419.5,375.833 418.5,375.833 417.5,374.5C 414.032,367.578 412.032,367.911 411.5,375.5C 410.5,375.5 409.5,375.5 408.5,375.5C 408.5,370.833 408.5,366.167 408.5,361.5 Z"/></g>
<g><path style="opacity:1" fill="#2791d0" d="M 276.5,361.5 C 278.036,363.025 279.036,365.025 279.5,367.5C 281.65,365.851 283.65,364.018 285.5,362C 286.332,361.312 286.998,361.479 287.5,362.5C 286.167,364.167 284.833,365.833 283.5,367.5C 288.81,376.793 287.976,377.459 281,369.5C 279.252,371.135 278.085,373.135 277.5,375.5C 276.507,370.88 276.173,366.214 276.5,361.5 Z"/></g>
<g><path style="opacity:1" fill="#edf6fa" d="M 311.5,369.5 C 314.5,369.167 315.833,370.5 315.5,373.5C 314.167,373.5 312.833,373.5 311.5,373.5C 311.5,372.167 311.5,370.833 311.5,369.5 Z"/></g>
<g><path style="opacity:1" fill="#1a8dce" d="M 461.5,361.5 C 464.685,361.02 467.519,361.686 470,363.5C 470.667,366.833 470.667,370.167 470,373.5C 466.667,376.167 463.333,376.167 460,373.5C 458.994,369.198 459.494,365.198 461.5,361.5 Z"/></g>
<g><path style="opacity:1" fill="#f2f9fb" d="M 462.5,363.5 C 464.467,363.261 466.301,363.594 468,364.5C 468.777,367.429 468.61,370.263 467.5,373C 465.559,373.743 463.726,373.576 462,372.5C 461.264,369.408 461.431,366.408 462.5,363.5 Z"/></g>
<g><path style="opacity:1" fill="#489dd5" d="M 707.5,361.5 C 717.012,360.193 720.179,364.193 717,373.5C 706.959,377.804 703.292,374.471 706,363.5C 706.717,362.956 707.217,362.289 707.5,361.5 Z"/></g>
<g><path style="opacity:1" fill="#fafcfd" d="M 708.5,363.5 C 712.923,362.425 714.923,364.092 714.5,368.5C 714.923,372.908 712.923,374.575 708.5,373.5C 708.5,370.167 708.5,366.833 708.5,363.5 Z"/></g>
<g><path style="opacity:1" fill="#1f8ecf" d="M 242.5,361.5 C 245.685,361.02 248.519,361.686 251,363.5C 251.667,366.833 251.667,370.167 251,373.5C 247.667,376.167 244.333,376.167 241,373.5C 239.994,369.198 240.494,365.198 242.5,361.5 Z"/></g>
<g><path style="opacity:1" fill="#f0f8fb" d="M 243.5,363.5 C 245.467,363.261 247.301,363.594 249,364.5C 249.777,367.429 249.61,370.263 248.5,373C 246.559,373.743 244.726,373.576 243,372.5C 242.264,369.408 242.431,366.408 243.5,363.5 Z"/></g>
<g><path style="opacity:1" fill="#5fafdb" d="M 300.5,363.5 C 298.833,363.5 297.167,363.5 295.5,363.5C 295.5,366.833 295.5,370.167 295.5,373.5C 297.5,373.5 299.5,373.5 301.5,373.5C 301.5,370.5 301.5,367.5 301.5,364.5C 302.317,366.969 302.817,369.635 303,372.5C 303.498,369.518 303.665,366.518 303.5,363.5C 304.641,366.64 304.808,369.973 304,373.5C 301.804,376.125 298.97,377.125 295.5,376.5C 295.784,378.415 295.451,380.081 294.5,381.5C 294.5,379.5 294.5,377.5 294.5,375.5C 302.5,375.167 302.5,374.833 294.5,374.5C 294.5,370.5 294.5,366.5 294.5,362.5C 296.735,362.205 298.735,362.539 300.5,363.5 Z"/></g>
<g><path style="opacity:1" fill="#fcfdfe" d="M 300.5,363.5 C 301.167,363.5 301.5,363.833 301.5,364.5C 301.5,367.5 301.5,370.5 301.5,373.5C 299.5,373.5 297.5,373.5 295.5,373.5C 295.5,370.167 295.5,366.833 295.5,363.5C 297.167,363.5 298.833,363.5 300.5,363.5 Z"/></g>
<g><path style="opacity:1" fill="#178bce" d="M 436.5,376.5 C 434.031,375.683 431.365,375.183 428.5,375C 430.708,374.809 432.708,374.309 434.5,373.5C 434.176,369.445 434.509,365.445 435.5,361.5C 436.074,366.281 437.074,370.948 438.5,375.5C 438.139,377.418 437.472,377.751 436.5,376.5 Z"/></g>
<g><path style="opacity:1" fill="#258fcf" d="M 540.5,361.5 C 550.012,360.193 553.179,364.193 550,373.5C 546.667,376.167 543.333,376.167 540,373.5C 539.306,369.446 539.473,365.446 540.5,361.5 Z"/></g>
<g><path style="opacity:1" fill="#f1f8fb" d="M 542.5,363.5 C 544.467,363.261 546.301,363.594 548,364.5C 548.777,367.429 548.61,370.263 547.5,373C 545.559,373.743 543.726,373.576 542,372.5C 541.264,369.408 541.431,366.408 542.5,363.5 Z"/></g>
<g><path style="opacity:1" fill="#3795d2" d="M 600.5,354.5 C 604.555,354.176 608.555,354.509 612.5,355.5C 610.167,356.167 607.833,356.833 605.5,357.5C 612.707,361.805 614.374,367.638 610.5,375C 600.984,376.803 597.817,372.969 601,363.5C 602.307,362.228 603.807,361.228 605.5,360.5C 603.062,359.069 601.396,357.069 600.5,354.5 Z"/></g>
<g><path style="opacity:1" fill="#fafcfd" d="M 603.5,363.5 C 605.5,363.5 607.5,363.5 609.5,363.5C 609.5,366.833 609.5,370.167 609.5,373.5C 607.5,373.5 605.5,373.5 603.5,373.5C 603.5,370.167 603.5,366.833 603.5,363.5 Z"/></g>
<g><path style="opacity:1" fill="#168bce" d="M 616.5,361.5 C 618.26,364.701 619.094,368.367 619,372.5C 620.356,373.38 621.856,373.714 623.5,373.5C 624.167,357.5 624.833,357.5 625.5,373.5C 627.167,373.5 628.833,373.5 630.5,373.5C 630.176,369.445 630.509,365.445 631.5,361.5C 632.074,366.281 633.074,370.948 634.5,375.5C 634.167,376.167 633.833,376.833 633.5,377.5C 628.725,375.792 623.725,374.959 618.5,375C 618,374.5 617.5,374 617,373.5C 616.501,369.514 616.334,365.514 616.5,361.5 Z"/></g>
<g><path style="opacity:1" fill="#48a7d8" d="M 293.5,361.5 C 293.176,368.354 293.509,375.021 294.5,381.5C 294.44,382.043 294.107,382.376 293.5,382.5C 292.181,375.344 292.181,368.344 293.5,361.5 Z"/></g>
<g><path style="opacity:1" fill="#50a7d8" d="M 515.5,363.5 C 513.5,363.5 511.5,363.5 509.5,363.5C 509.5,366.833 509.5,370.167 509.5,373.5C 511.167,373.5 512.833,373.5 514.5,373.5C 513.048,374.302 511.382,374.802 509.5,375C 511.473,375.495 513.473,375.662 515.5,375.5C 513.735,376.461 511.735,376.795 509.5,376.5C 509.799,378.604 509.466,380.604 508.5,382.5C 507.893,382.376 507.56,382.043 507.5,381.5C 508.49,375.355 508.823,369.022 508.5,362.5C 511.059,362.198 513.393,362.532 515.5,363.5 Z"/></g>
</svg>
