<?xml version="1.0" encoding="UTF-8"?>
<!DOCTYPE svg PUBLIC "-//W3C//DTD SVG 1.1//EN" "http://www.w3.org/Graphics/SVG/1.1/DTD/svg11.dtd">
<svg xmlns="http://www.w3.org/2000/svg" version="1.1" width="800px" height="450px" style="shape-rendering:geometricPrecision; text-rendering:geometricPrecision; image-rendering:optimizeQuality; fill-rule:evenodd; clip-rule:evenodd" xmlns:xlink="http://www.w3.org/1999/xlink">
<g><path style="opacity:1" fill="#fefefe" d="M -0.5,-0.5 C 266.167,-0.5 532.833,-0.5 799.5,-0.5C 799.5,149.5 799.5,299.5 799.5,449.5C 532.833,449.5 266.167,449.5 -0.5,449.5C -0.5,299.5 -0.5,149.5 -0.5,-0.5 Z"/></g>
<g><path style="opacity:1" fill="#7fc4e0" d="M 391.5,50.5 C 382.021,51.6976 372.354,52.3643 362.5,52.5C 371.95,50.8598 381.616,50.1932 391.5,50.5 Z"/></g>
<g><path style="opacity:1" fill="#0990c4" d="M 391.5,50.5 C 381.616,50.1932 371.95,50.8598 362.5,52.5C 310.072,56.1264 259.072,66.6264 209.5,84C 175.994,96.4088 145.994,114.409 119.5,138C 75.726,184.068 74.226,231.568 115,280.5C 131.809,298.323 150.643,313.49 171.5,326C 216.94,351.703 265.273,369.703 316.5,380C 273.881,375.018 232.214,365.685 191.5,352C 145.266,336.895 103.932,313.562 67.5,282C 53.5882,268.685 42.7549,253.185 35,235.5C 22.9944,201.204 28.6611,170.204 52,142.5C 79.2234,113.456 111.723,92.2898 149.5,79C 216.055,55.2614 284.722,43.7614 355.5,44.5C 390.687,43.9241 425.687,46.0908 460.5,51C 457,51.1667 453.5,51.3333 450,51.5C 430.509,50.646 411.009,50.3127 391.5,50.5 Z"/></g>
<g><path style="opacity:1" fill="#ebf6fa" d="M 679.5,74.5 C 685.509,74.3338 691.509,74.5005 697.5,75C 699.256,75.2022 700.922,75.7022 702.5,76.5C 702.291,77.086 701.957,77.586 701.5,78C 703.452,86.23 704.118,94.73 703.5,103.5C 704.552,103.351 705.552,103.517 706.5,104C 704.393,106.227 702.06,108.227 699.5,110C 699.833,110.333 700.167,110.667 700.5,111C 692.507,111.5 684.507,111.666 676.5,111.5C 677.952,110.698 679.618,110.198 681.5,110C 683.936,107.395 683.269,105.395 679.5,104C 680.796,100.091 681.463,95.9246 681.5,91.5C 681.167,87.5 680.833,83.5 680.5,79.5C 677.972,78.4826 677.972,77.3159 680.5,76C 679.944,75.6174 679.611,75.1174 679.5,74.5 Z"/></g>
<g><path style="opacity:1" fill="#0590c4" d="M 511.5,110.5 C 505.974,110.179 500.64,110.512 495.5,111.5C 462.165,111.667 428.832,111.5 395.5,111C 407.703,99.2948 420.036,87.7948 432.5,76.5C 461.494,75.1468 490.494,75.6468 519.5,78C 515.911,78.2069 512.411,78.7069 509,79.5C 508.332,87.5086 507.999,95.5086 508,103.5C 515.497,104.089 522.997,104.923 530.5,106C 518.833,106.333 507.167,106.667 495.5,107C 501.833,107.333 508.167,107.667 514.5,108C 513.429,108.852 512.429,109.685 511.5,110.5 Z"/></g>
<g><path style="opacity:1" fill="#1799c7" d="M 540.5,74.5 C 540.082,75.2216 539.416,75.7216 538.5,76C 540.701,77.0432 543.034,77.8765 545.5,78.5C 545.167,78.8333 544.833,79.1667 544.5,79.5C 541.579,78.5934 538.579,78.2601 535.5,78.5C 534.882,87.27 535.548,95.77 537.5,104C 535.122,104.974 535.456,105.641 538.5,106C 537.552,106.483 536.552,106.649 535.5,106.5C 535.5,107.5 535.5,108.5 535.5,109.5C 527.517,110.166 519.517,110.499 511.5,110.5C 512.429,109.685 513.429,108.852 514.5,108C 508.167,107.667 501.833,107.333 495.5,107C 507.167,106.667 518.833,106.333 530.5,106C 522.997,104.923 515.497,104.089 508,103.5C 507.999,95.5086 508.332,87.5086 509,79.5C 512.411,78.7069 515.911,78.2069 519.5,78C 490.494,75.6468 461.494,75.1468 432.5,76.5C 432.611,75.8826 432.944,75.3826 433.5,75C 469.165,74.5 504.832,74.3333 540.5,74.5 Z"/></g>
<g><path style="opacity:1" fill="#39a8cf" d="M 540.5,74.5 C 549.5,74.5 558.5,74.5 567.5,74.5C 565.123,75.8873 562.457,76.7206 559.5,77C 561.256,77.2022 562.922,77.7022 564.5,78.5C 563.675,79.3857 562.675,79.719 561.5,79.5C 561.832,84.8282 562.166,90.1616 562.5,95.5C 562.214,99.6508 561.547,103.317 560.5,106.5C 561.376,107.251 562.376,107.751 563.5,108C 562.167,108.333 560.833,108.667 559.5,109C 562.146,109.497 564.813,109.664 567.5,109.5C 559.5,110.167 551.5,110.833 543.5,111.5C 527.5,111.5 511.5,111.5 495.5,111.5C 500.64,110.512 505.974,110.179 511.5,110.5C 519.517,110.499 527.517,110.166 535.5,109.5C 535.5,108.5 535.5,107.5 535.5,106.5C 536.552,106.649 537.552,106.483 538.5,106C 535.456,105.641 535.122,104.974 537.5,104C 535.548,95.77 534.882,87.27 535.5,78.5C 538.579,78.2601 541.579,78.5934 544.5,79.5C 544.833,79.1667 545.167,78.8333 545.5,78.5C 543.034,77.8765 540.701,77.0432 538.5,76C 539.416,75.7216 540.082,75.2216 540.5,74.5 Z"/></g>
<g><path style="opacity:1" fill="#69bddb" d="M 583.5,74.5 C 588.833,74.5 594.167,74.5 599.5,74.5C 600.263,75.2679 601.263,75.7679 602.5,76C 601.263,76.2321 600.263,76.7321 599.5,77.5C 594.156,77.334 588.823,77.5006 583.5,78C 587.486,78.4988 591.486,78.6655 595.5,78.5C 595.334,86.84 595.5,95.1733 596,103.5C 598.543,104.876 598.709,106.043 596.5,107C 597.624,107.249 598.624,107.749 599.5,108.5C 596.384,108.92 593.717,109.92 591.5,111.5C 575.5,111.5 559.5,111.5 543.5,111.5C 551.5,110.833 559.5,110.167 567.5,109.5C 575.5,109.067 583.5,108.567 591.5,108C 586.897,107.889 582.564,106.889 578.5,105C 579.167,104.667 579.833,104.333 580.5,104C 579.848,99.748 579.514,95.4147 579.5,91C 579.536,86.4106 580.202,82.0772 581.5,78C 579.423,77.8078 577.423,77.3078 575.5,76.5C 578.306,75.8324 580.972,75.1657 583.5,74.5 Z"/></g>
<g><path style="opacity:1" fill="#acdaeb" d="M 626.5,74.5 C 630.167,74.5 633.833,74.5 637.5,74.5C 637.082,75.2216 636.416,75.7216 635.5,76C 638.544,76.3589 638.878,77.0255 636.5,78C 640.5,78.3333 644.5,78.6667 648.5,79C 647.682,87.4217 647.182,95.9217 647,104.5C 645.933,105.191 644.766,105.691 643.5,106C 645.715,106.388 647.048,107.388 647.5,109C 644.69,109.782 642.023,110.616 639.5,111.5C 634.167,111.5 628.833,111.5 623.5,111.5C 626.028,110.834 628.694,110.168 631.5,109.5C 620.833,108.167 620.833,106.833 631.5,105.5C 628.893,104.682 626.226,104.182 623.5,104C 624.448,103.517 625.448,103.351 626.5,103.5C 626.184,95.2476 626.518,87.081 627.5,79C 626.167,78.6667 624.833,78.3333 623.5,78C 626.5,77.6667 629.5,77.3333 632.5,77C 630.026,76.9633 628.026,76.13 626.5,74.5 Z"/></g>
<g><path style="opacity:1" fill="#53b3d5" d="M 567.5,74.5 C 572.833,74.5 578.167,74.5 583.5,74.5C 580.972,75.1657 578.306,75.8324 575.5,76.5C 577.423,77.3078 579.423,77.8078 581.5,78C 580.202,82.0772 579.536,86.4106 579.5,91C 579.514,95.4147 579.848,99.748 580.5,104C 579.833,104.333 579.167,104.667 578.5,105C 582.564,106.889 586.897,107.889 591.5,108C 583.5,108.567 575.5,109.067 567.5,109.5C 564.813,109.664 562.146,109.497 559.5,109C 560.833,108.667 562.167,108.333 563.5,108C 562.376,107.751 561.376,107.251 560.5,106.5C 561.547,103.317 562.214,99.6508 562.5,95.5C 562.166,90.1616 561.832,84.8282 561.5,79.5C 562.675,79.719 563.675,79.3857 564.5,78.5C 562.922,77.7022 561.256,77.2022 559.5,77C 562.457,76.7206 565.123,75.8873 567.5,74.5 Z"/></g>
<g><path style="opacity:1" fill="#7fc6e0" d="M 599.5,77.5 C 603.835,77.9167 608.168,78.4167 612.5,79C 611.848,83.0848 611.515,87.2515 611.5,91.5C 611.565,96.0176 612.231,100.351 613.5,104.5C 612.975,105.192 612.308,105.692 611.5,106C 612.364,107.137 613.364,108.47 614.5,110C 611.964,110.186 609.631,110.686 607.5,111.5C 602.167,111.5 596.833,111.5 591.5,111.5C 593.717,109.92 596.384,108.92 599.5,108.5C 598.624,107.749 597.624,107.249 596.5,107C 598.709,106.043 598.543,104.876 596,103.5C 595.5,95.1733 595.334,86.84 595.5,78.5C 591.486,78.6655 587.486,78.4988 583.5,78C 588.823,77.5006 594.156,77.334 599.5,77.5 Z"/></g>
<g><path style="opacity:1" fill="#92cfe4" d="M 599.5,74.5 C 608.5,74.5 617.5,74.5 626.5,74.5C 628.026,76.13 630.026,76.9633 632.5,77C 629.5,77.3333 626.5,77.6667 623.5,78C 624.833,78.3333 626.167,78.6667 627.5,79C 626.518,87.081 626.184,95.2476 626.5,103.5C 625.448,103.351 624.448,103.517 623.5,104C 626.226,104.182 628.893,104.682 631.5,105.5C 620.833,106.833 620.833,108.167 631.5,109.5C 628.694,110.168 626.028,110.834 623.5,111.5C 618.167,111.5 612.833,111.5 607.5,111.5C 609.631,110.686 611.964,110.186 614.5,110C 613.364,108.47 612.364,107.137 611.5,106C 612.308,105.692 612.975,105.192 613.5,104.5C 612.231,100.351 611.565,96.0176 611.5,91.5C 611.515,87.2515 611.848,83.0848 612.5,79C 608.168,78.4167 603.835,77.9167 599.5,77.5C 600.263,76.7321 601.263,76.2321 602.5,76C 601.263,75.7679 600.263,75.2679 599.5,74.5 Z"/></g>
<g><path style="opacity:1" fill="#bfe3ef" d="M 637.5,74.5 C 644.167,74.5 650.833,74.5 657.5,74.5C 659.389,75.322 661.389,76.1553 663.5,77C 660.833,77.3333 658.167,77.6667 655.5,78C 657.5,78.3333 659.5,78.6667 661.5,79C 659.844,87.8166 658.844,96.8166 658.5,106C 659.5,106.833 660.5,107.667 661.5,108.5C 660.007,109.141 659.007,110.141 658.5,111.5C 652.167,111.5 645.833,111.5 639.5,111.5C 642.023,110.616 644.69,109.782 647.5,109C 647.048,107.388 645.715,106.388 643.5,106C 644.766,105.691 645.933,105.191 647,104.5C 647.182,95.9217 647.682,87.4217 648.5,79C 644.5,78.6667 640.5,78.3333 636.5,78C 638.878,77.0255 638.544,76.3589 635.5,76C 636.416,75.7216 637.082,75.2216 637.5,74.5 Z"/></g>
<g><path style="opacity:1" fill="#d5ecf4" d="M 657.5,74.5 C 664.833,74.5 672.167,74.5 679.5,74.5C 679.611,75.1174 679.944,75.6174 680.5,76C 677.972,77.3159 677.972,78.4826 680.5,79.5C 680.833,83.5 681.167,87.5 681.5,91.5C 681.463,95.9246 680.796,100.091 679.5,104C 683.269,105.395 683.936,107.395 681.5,110C 679.618,110.198 677.952,110.698 676.5,111.5C 670.5,111.5 664.5,111.5 658.5,111.5C 659.007,110.141 660.007,109.141 661.5,108.5C 660.5,107.667 659.5,106.833 658.5,106C 658.844,96.8166 659.844,87.8166 661.5,79C 659.5,78.6667 657.5,78.3333 655.5,78C 658.167,77.6667 660.833,77.3333 663.5,77C 661.389,76.1553 659.389,75.322 657.5,74.5 Z"/></g>
<g><path style="opacity:1" fill="#0290c3" d="M 378.5,127.5 C 403.5,127.5 428.5,127.5 453.5,127.5C 452.837,129.804 452.17,132.137 451.5,134.5C 451.534,143.031 451.534,151.531 451.5,160C 455.025,160.179 458.359,160.679 461.5,161.5C 458.813,161.336 456.146,161.503 453.5,162C 457.025,162.179 460.359,162.679 463.5,163.5C 422.33,163.832 381.33,163.499 340.5,162.5C 353.167,150.833 365.833,139.167 378.5,127.5 Z"/></g>
<g><path style="opacity:1" fill="#1598c8" d="M 453.5,127.5 C 459.833,127.5 466.167,127.5 472.5,127.5C 471.57,138.128 471.237,148.795 471.5,159.5C 464.866,159.677 464.866,160.177 471.5,161C 468.183,161.498 464.85,161.665 461.5,161.5C 458.359,160.679 455.025,160.179 451.5,160C 451.534,151.531 451.534,143.031 451.5,134.5C 452.17,132.137 452.837,129.804 453.5,127.5 Z"/></g>
<g><path style="opacity:1" fill="#28a1cb" d="M 472.5,127.5 C 478.833,127.5 485.167,127.5 491.5,127.5C 488.908,129.089 488.908,130.755 491.5,132.5C 491.192,133.308 490.692,133.975 490,134.5C 489.832,143.186 489.332,151.852 488.5,160.5C 486.885,161.154 485.218,161.654 483.5,162C 487.688,162.176 491.688,162.676 495.5,163.5C 484.833,163.5 474.167,163.5 463.5,163.5C 460.359,162.679 457.025,162.179 453.5,162C 456.146,161.503 458.813,161.336 461.5,161.5C 464.85,161.665 468.183,161.498 471.5,161C 464.866,160.177 464.866,159.677 471.5,159.5C 471.237,148.795 471.57,138.128 472.5,127.5 Z"/></g>
<g><path style="opacity:1" fill="#3eaad1" d="M 491.5,127.5 C 497.5,127.5 503.5,127.5 509.5,127.5C 509.168,138.187 509.501,148.854 510.5,159.5C 511.308,159.808 511.975,160.308 512.5,161C 509.5,161.333 506.5,161.667 503.5,162C 511.493,162.5 519.493,162.666 527.5,162.5C 530.385,162.194 533.052,162.527 535.5,163.5C 522.167,163.5 508.833,163.5 495.5,163.5C 491.688,162.676 487.688,162.176 483.5,162C 485.218,161.654 486.885,161.154 488.5,160.5C 489.332,151.852 489.832,143.186 490,134.5C 490.692,133.975 491.192,133.308 491.5,132.5C 488.908,130.755 488.908,129.089 491.5,127.5 Z"/></g>
<g><path style="opacity:1" fill="#87cae2" d="M 538.5,127.5 C 547.5,127.5 556.5,127.5 565.5,127.5C 564.547,138.486 564.381,149.486 565,160.5C 568.394,161.456 571.894,161.789 575.5,161.5C 575.5,162.167 575.5,162.833 575.5,163.5C 562.167,163.5 548.833,163.5 535.5,163.5C 533.052,162.527 530.385,162.194 527.5,162.5C 532.642,161.353 537.975,160.52 543.5,160C 541.527,159.505 539.527,159.338 537.5,159.5C 537.4,148.619 537.733,137.953 538.5,127.5 Z"/></g>
<g><path style="opacity:1" fill="#a1d6e8" d="M 378.5,127.5 C 446.014,126.185 513.68,126.185 581.5,127.5C 581.667,138.172 581.5,148.839 581,159.5C 579.416,160.861 577.582,161.528 575.5,161.5C 571.894,161.789 568.394,161.456 565,160.5C 564.381,149.486 564.547,138.486 565.5,127.5C 556.5,127.5 547.5,127.5 538.5,127.5C 528.833,127.5 519.167,127.5 509.5,127.5C 503.5,127.5 497.5,127.5 491.5,127.5C 485.167,127.5 478.833,127.5 472.5,127.5C 466.167,127.5 459.833,127.5 453.5,127.5C 428.5,127.5 403.5,127.5 378.5,127.5 Z"/></g>
<g><path style="opacity:1" fill="#b8e0ee" d="M 581.5,127.5 C 587.5,127.5 593.5,127.5 599.5,127.5C 598.769,129.749 597.769,131.916 596.5,134C 597.125,142.485 597.792,150.985 598.5,159.5C 601.434,160.977 604.434,161.977 607.5,162.5C 607.5,162.833 607.5,163.167 607.5,163.5C 596.833,163.5 586.167,163.5 575.5,163.5C 575.5,162.833 575.5,162.167 575.5,161.5C 577.582,161.528 579.416,160.861 581,159.5C 581.5,148.839 581.667,138.172 581.5,127.5 Z"/></g>
<g><path style="opacity:1" fill="#e3f2f8" d="M 610.5,127.5 C 619.833,127.5 629.167,127.5 638.5,127.5C 638.61,138.185 638.277,148.852 637.5,159.5C 636.448,159.351 635.448,159.517 634.5,160C 636.619,160.098 638.286,160.931 639.5,162.5C 628.854,163.499 618.187,163.832 607.5,163.5C 607.5,163.167 607.5,162.833 607.5,162.5C 610.722,162.892 613.722,162.392 616.5,161C 614.567,160.749 612.734,160.249 611,159.5C 610.5,148.839 610.333,138.172 610.5,127.5 Z"/></g>
<g><path style="opacity:1" fill="#c9e7f2" d="M 599.5,127.5 C 603.167,127.5 606.833,127.5 610.5,127.5C 610.333,138.172 610.5,148.839 611,159.5C 612.734,160.249 614.567,160.749 616.5,161C 613.722,162.392 610.722,162.892 607.5,162.5C 604.434,161.977 601.434,160.977 598.5,159.5C 597.792,150.985 597.125,142.485 596.5,134C 597.769,131.916 598.769,129.749 599.5,127.5 Z"/></g>
<g><path style="opacity:1" fill="#60b9d9" d="M 509.5,127.5 C 519.167,127.5 528.833,127.5 538.5,127.5C 537.733,137.953 537.4,148.619 537.5,159.5C 539.527,159.338 541.527,159.505 543.5,160C 537.975,160.52 532.642,161.353 527.5,162.5C 519.493,162.666 511.493,162.5 503.5,162C 506.5,161.667 509.5,161.333 512.5,161C 511.975,160.308 511.308,159.808 510.5,159.5C 509.501,148.854 509.168,138.187 509.5,127.5 Z"/></g>
<g><path style="opacity:1" fill="#b7deef" d="M 340.5,162.5 C 381.33,163.499 422.33,163.832 463.5,163.5C 474.167,163.5 484.833,163.5 495.5,163.5C 508.833,163.5 522.167,163.5 535.5,163.5C 548.833,163.5 562.167,163.5 575.5,163.5C 496.999,164.832 418.332,164.832 339.5,163.5C 339.624,162.893 339.957,162.56 340.5,162.5 Z"/></g>
<g><path style="opacity:1" fill="#0290c3" d="M 321.5,179.5 C 352.833,179.5 384.167,179.5 415.5,179.5C 407.5,180.167 399.5,180.833 391.5,181.5C 390.248,190.41 388.915,199.243 387.5,208C 391.5,208.667 391.5,209.333 387.5,210C 388.833,210.333 390.167,210.667 391.5,211C 390.09,211.368 389.09,212.201 388.5,213.5C 356.336,214.167 324.336,214.833 292.5,215.5C 289.482,215.665 286.482,215.498 283.5,215C 296.062,202.934 308.729,191.1 321.5,179.5 Z"/></g>
<g><path style="opacity:1" fill="#0f96c6" d="M 391.5,181.5 C 399.507,181.334 407.507,181.5 415.5,182C 412.833,182.333 410.167,182.667 407.5,183C 408.448,183.483 409.448,183.649 410.5,183.5C 411.501,191.51 411.501,199.51 410.5,207.5C 409.28,208.711 408.113,208.711 407,207.5C 406.727,209.329 405.893,210.829 404.5,212C 406.5,212.667 408.5,213.333 410.5,214C 409.944,214.383 409.611,214.883 409.5,215.5C 370.5,215.5 331.5,215.5 292.5,215.5C 324.336,214.833 356.336,214.167 388.5,213.5C 389.09,212.201 390.09,211.368 391.5,211C 390.167,210.667 388.833,210.333 387.5,210C 391.5,209.333 391.5,208.667 387.5,208C 388.915,199.243 390.248,190.41 391.5,181.5 Z"/></g>
<g><path style="opacity:1" fill="#249fcb" d="M 415.5,179.5 C 419.833,179.5 424.167,179.5 428.5,179.5C 428.389,180.117 428.056,180.617 427.5,181C 430.167,181.333 432.833,181.667 435.5,182C 434.167,182.333 432.833,182.667 431.5,183C 432.448,183.483 433.448,183.649 434.5,183.5C 434.273,194.228 434.273,204.894 434.5,215.5C 426.167,215.5 417.833,215.5 409.5,215.5C 409.611,214.883 409.944,214.383 410.5,214C 408.5,213.333 406.5,212.667 404.5,212C 405.893,210.829 406.727,209.329 407,207.5C 408.113,208.711 409.28,208.711 410.5,207.5C 411.501,199.51 411.501,191.51 410.5,183.5C 409.448,183.649 408.448,183.483 407.5,183C 410.167,182.667 412.833,182.333 415.5,182C 407.507,181.5 399.507,181.334 391.5,181.5C 399.5,180.833 407.5,180.167 415.5,179.5 Z"/></g>
<g><path style="opacity:1" fill="#9dd4e8" d="M 512.5,179.5 C 517.511,179.334 522.511,179.501 527.5,180C 525.616,180.216 523.949,180.883 522.5,182C 522.689,193.268 522.689,204.434 522.5,215.5C 516.833,215.5 511.167,215.5 505.5,215.5C 505.669,204.727 505.669,193.893 505.5,183C 508.601,183.042 510.934,181.875 512.5,179.5 Z"/></g>
<g><path style="opacity:1" fill="#bae1ee" d="M 487.5,179.5 C 487.5,179.167 487.5,178.833 487.5,178.5C 508.833,178.5 530.167,178.5 551.5,178.5C 551.5,178.833 551.5,179.167 551.5,179.5C 550.282,180.161 548.949,180.828 547.5,181.5C 547.709,182.086 548.043,182.586 548.5,183C 547.627,193.766 546.96,204.599 546.5,215.5C 538.5,215.5 530.5,215.5 522.5,215.5C 522.689,204.434 522.689,193.268 522.5,182C 523.949,180.883 525.616,180.216 527.5,180C 522.511,179.501 517.511,179.334 512.5,179.5C 504.167,179.5 495.833,179.5 487.5,179.5 Z"/></g>
<g><path style="opacity:1" fill="#edf7fa" d="M 551.5,179.5 C 551.5,179.167 551.5,178.833 551.5,178.5C 567.528,178.228 583.528,178.561 599.5,179.5C 599.5,180.833 599.5,182.167 599.5,183.5C 598.5,183.5 597.5,183.5 596.5,183.5C 596.5,188.833 596.5,194.167 596.5,199.5C 597.5,199.5 598.5,199.5 599.5,199.5C 599.5,202.167 599.5,204.833 599.5,207.5C 598.167,207.5 596.833,207.5 595.5,207.5C 595.067,210.285 593.734,212.619 591.5,214.5C 582.19,215.498 572.857,215.832 563.5,215.5C 563.82,204.585 563.487,193.752 562.5,183C 565.668,182.418 566.001,181.418 563.5,180C 559.514,179.501 555.514,179.334 551.5,179.5 Z"/></g>
<g><path style="opacity:1" fill="#3ba9d0" d="M 428.5,179.5 C 434.833,179.5 441.167,179.5 447.5,179.5C 444.023,180.323 440.356,180.823 436.5,181C 441.167,181.333 445.833,181.667 450.5,182C 449.177,191.47 449.177,200.97 450.5,210.5C 449.709,212.148 448.709,213.815 447.5,215.5C 443.167,215.5 438.833,215.5 434.5,215.5C 434.273,204.894 434.273,194.228 434.5,183.5C 433.448,183.649 432.448,183.483 431.5,183C 432.833,182.667 434.167,182.333 435.5,182C 432.833,181.667 430.167,181.333 427.5,181C 428.056,180.617 428.389,180.117 428.5,179.5 Z"/></g>
<g><path style="opacity:1" fill="#52b3d6" d="M 447.5,179.5 C 455.507,179.334 463.507,179.5 471.5,180C 460.833,180.667 460.833,181.333 471.5,182C 472.142,193.471 472.142,204.637 471.5,215.5C 463.5,215.5 455.5,215.5 447.5,215.5C 448.709,213.815 449.709,212.148 450.5,210.5C 449.177,200.97 449.177,191.47 450.5,182C 445.833,181.667 441.167,181.333 436.5,181C 440.356,180.823 444.023,180.323 447.5,179.5 Z"/></g>
<g><path style="opacity:1" fill="#6abdda" d="M 321.5,179.5 C 376.664,178.501 431.997,178.168 487.5,178.5C 487.5,178.833 487.5,179.167 487.5,179.5C 485.031,180.317 482.365,180.817 479.5,181C 483.167,181.333 486.833,181.667 490.5,182C 488.5,182.333 486.5,182.667 484.5,183C 485.487,193.752 485.82,204.585 485.5,215.5C 480.833,215.5 476.167,215.5 471.5,215.5C 472.142,204.637 472.142,193.471 471.5,182C 460.833,181.333 460.833,180.667 471.5,180C 463.507,179.5 455.507,179.334 447.5,179.5C 441.167,179.5 434.833,179.5 428.5,179.5C 424.167,179.5 419.833,179.5 415.5,179.5C 384.167,179.5 352.833,179.5 321.5,179.5 Z"/></g>
<g><path style="opacity:1" fill="#87cae2" d="M 487.5,179.5 C 495.833,179.5 504.167,179.5 512.5,179.5C 510.934,181.875 508.601,183.042 505.5,183C 505.669,193.893 505.669,204.727 505.5,215.5C 498.833,215.5 492.167,215.5 485.5,215.5C 485.82,204.585 485.487,193.752 484.5,183C 486.5,182.667 488.5,182.333 490.5,182C 486.833,181.667 483.167,181.333 479.5,181C 482.365,180.817 485.031,180.317 487.5,179.5 Z"/></g>
<g><path style="opacity:1" fill="#d1ebf4" d="M 551.5,179.5 C 555.514,179.334 559.514,179.501 563.5,180C 566.001,181.418 565.668,182.418 562.5,183C 563.487,193.752 563.82,204.585 563.5,215.5C 557.833,215.5 552.167,215.5 546.5,215.5C 546.96,204.599 547.627,193.766 548.5,183C 548.043,182.586 547.709,182.086 547.5,181.5C 548.949,180.828 550.282,180.161 551.5,179.5 Z"/></g>
<g><path style="opacity:1" fill="#ebf6fa" d="M 511.5,231.5 C 518.5,231.5 525.5,231.5 532.5,231.5C 532.43,243.287 532.43,254.953 532.5,266.5C 531.271,267.281 529.938,267.781 528.5,268C 522.843,268.499 517.176,268.666 511.5,268.5C 512.122,267.373 512.955,266.373 514,265.5C 514.167,261.167 514.333,256.833 514.5,252.5C 514.069,246.895 514.069,241.395 514.5,236C 513.685,234.357 512.685,232.857 511.5,231.5 Z"/></g>
<g><path style="opacity:1" fill="#0c94c5" d="M 337.5,231.5 C 344.303,232.171 350.636,233.671 356.5,236C 355.176,237.872 353.676,238.705 352,238.5C 351.5,247.827 351.334,257.161 351.5,266.5C 357.026,266.179 362.36,266.512 367.5,267.5C 359.5,267.5 351.5,267.5 343.5,267.5C 338.319,266.833 332.985,266.167 327.5,265.5C 298.172,264.667 268.839,264.167 239.5,264C 241.556,263.689 243.556,263.189 245.5,262.5C 273.988,263.171 302.488,263.837 331,264.5C 331.772,264.355 332.439,264.022 333,263.5C 333.167,259.5 333.333,255.5 333.5,251.5C 333.463,247.075 332.796,242.909 331.5,239C 332.634,237.984 332.301,237.317 330.5,237C 332.167,236.667 333.833,236.333 335.5,236C 334.643,235.311 333.977,234.478 333.5,233.5C 312.5,232.167 291.5,232.167 270.5,233.5C 270.167,234.5 269.5,235.167 268.5,235.5C 266.518,234.377 264.518,234.377 262.5,235.5C 263.29,234.206 264.29,233.039 265.5,232C 289.498,231.5 313.498,231.333 337.5,231.5 Z"/></g>
<g><path style="opacity:1" fill="#239eca" d="M 337.5,231.5 C 349.5,231.5 361.5,231.5 373.5,231.5C 372.993,232.859 371.993,233.859 370.5,234.5C 373.107,235.318 375.774,235.818 378.5,236C 376.069,236.295 374.236,237.462 373,239.5C 372.804,247.882 372.304,256.215 371.5,264.5C 371.709,265.086 372.043,265.586 372.5,266C 376.356,266.177 380.023,266.677 383.5,267.5C 378.167,267.5 372.833,267.5 367.5,267.5C 362.36,266.512 357.026,266.179 351.5,266.5C 351.334,257.161 351.5,247.827 352,238.5C 353.676,238.705 355.176,237.872 356.5,236C 350.636,233.671 344.303,232.171 337.5,231.5 Z"/></g>
<g><path style="opacity:1" fill="#96d0e6" d="M 434.5,231.5 C 443.167,231.5 451.833,231.5 460.5,231.5C 461.398,232.158 462.398,232.824 463.5,233.5C 463.252,243.664 462.252,253.83 460.5,264C 462.5,264.333 464.5,264.667 466.5,265C 464.881,265.236 463.881,266.069 463.5,267.5C 460.615,267.194 457.948,267.527 455.5,268.5C 379.497,268.833 303.497,268.5 227.5,267.5C 227.624,266.893 227.957,266.56 228.5,266.5C 266.663,267.499 304.996,267.832 343.5,267.5C 351.5,267.5 359.5,267.5 367.5,267.5C 372.833,267.5 378.167,267.5 383.5,267.5C 391.167,267.5 398.833,267.5 406.5,267.5C 413.5,267.5 420.5,267.5 427.5,267.5C 434.175,267.666 440.842,267.5 447.5,267C 445.5,266.667 443.5,266.333 441.5,266C 445.167,265.667 448.833,265.333 452.5,265C 449.167,264.667 445.833,264.333 442.5,264C 444.156,255.183 445.156,246.183 445.5,237C 443.606,235.899 442.939,234.566 443.5,233C 440.305,232.819 437.305,232.319 434.5,231.5 Z"/></g>
<g><path style="opacity:1" fill="#b3deed" d="M 460.5,231.5 C 468.833,231.5 477.167,231.5 485.5,231.5C 485.611,232.117 485.944,232.617 486.5,233C 485.844,243.106 485.178,253.273 484.5,263.5C 482.929,264.309 481.262,264.643 479.5,264.5C 479.5,265.5 479.5,266.5 479.5,267.5C 474.167,267.5 468.833,267.5 463.5,267.5C 463.881,266.069 464.881,265.236 466.5,265C 464.5,264.667 462.5,264.333 460.5,264C 462.252,253.83 463.252,243.664 463.5,233.5C 462.398,232.824 461.398,232.158 460.5,231.5 Z"/></g>
<g><path style="opacity:1" fill="#028fc3" d="M 343.5,267.5 C 304.996,267.832 266.663,267.499 228.5,266.5C 239.833,256.167 251.167,245.833 262.5,235.5C 264.518,234.377 266.518,234.377 268.5,235.5C 269.5,235.167 270.167,234.5 270.5,233.5C 291.5,232.167 312.5,232.167 333.5,233.5C 333.977,234.478 334.643,235.311 335.5,236C 333.833,236.333 332.167,236.667 330.5,237C 332.301,237.317 332.634,237.984 331.5,239C 332.796,242.909 333.463,247.075 333.5,251.5C 333.333,255.5 333.167,259.5 333,263.5C 332.439,264.022 331.772,264.355 331,264.5C 302.488,263.837 273.988,263.171 245.5,262.5C 243.556,263.189 241.556,263.689 239.5,264C 268.839,264.167 298.172,264.667 327.5,265.5C 332.985,266.167 338.319,266.833 343.5,267.5 Z"/></g>
<g><path style="opacity:1" fill="#80c7e0" d="M 423.5,231.5 C 427.167,231.5 430.833,231.5 434.5,231.5C 437.305,232.319 440.305,232.819 443.5,233C 442.939,234.566 443.606,235.899 445.5,237C 445.156,246.183 444.156,255.183 442.5,264C 445.833,264.333 449.167,264.667 452.5,265C 448.833,265.333 445.167,265.667 441.5,266C 443.5,266.333 445.5,266.667 447.5,267C 440.842,267.5 434.175,267.666 427.5,267.5C 427.5,267.167 427.5,266.833 427.5,266.5C 431.312,265.676 435.312,265.176 439.5,265C 435.833,264.667 432.167,264.333 428.5,264C 429.023,254.127 430.023,244.293 431.5,234.5C 430.448,234.649 429.448,234.483 428.5,234C 429.833,233.667 431.167,233.333 432.5,233C 429.305,232.819 426.305,232.319 423.5,231.5 Z"/></g>
<g><path style="opacity:1" fill="#38a8d0" d="M 373.5,231.5 C 376.833,231.5 380.167,231.5 383.5,231.5C 386.962,232.482 390.629,232.815 394.5,232.5C 394.36,234.124 395.027,235.29 396.5,236C 395.5,236.333 394.5,236.667 393.5,237C 395.5,237.333 397.5,237.667 399.5,238C 399,238.5 398.5,239 398,239.5C 397.817,247.745 397.317,255.912 396.5,264C 397.5,264.333 398.5,264.667 399.5,265C 396.833,265.333 394.167,265.667 391.5,266C 396.684,266.174 401.684,266.674 406.5,267.5C 398.833,267.5 391.167,267.5 383.5,267.5C 380.023,266.677 376.356,266.177 372.5,266C 372.043,265.586 371.709,265.086 371.5,264.5C 372.304,256.215 372.804,247.882 373,239.5C 374.236,237.462 376.069,236.295 378.5,236C 375.774,235.818 373.107,235.318 370.5,234.5C 371.993,233.859 372.993,232.859 373.5,231.5 Z"/></g>
<g><path style="opacity:1" fill="#55b5d6" d="M 383.5,231.5 C 391.5,231.5 399.5,231.5 407.5,231.5C 410.733,232.123 413.399,233.79 415.5,236.5C 414.478,237.354 413.645,238.354 413,239.5C 412.381,248.549 411.881,257.382 411.5,266C 416.823,266.499 422.156,266.666 427.5,266.5C 427.5,266.833 427.5,267.167 427.5,267.5C 420.5,267.5 413.5,267.5 406.5,267.5C 401.684,266.674 396.684,266.174 391.5,266C 394.167,265.667 396.833,265.333 399.5,265C 398.5,264.667 397.5,264.333 396.5,264C 397.317,255.912 397.817,247.745 398,239.5C 398.5,239 399,238.5 399.5,238C 397.5,237.667 395.5,237.333 393.5,237C 394.5,236.667 395.5,236.333 396.5,236C 395.027,235.29 394.36,234.124 394.5,232.5C 390.629,232.815 386.962,232.482 383.5,231.5 Z"/></g>
<g><path style="opacity:1" fill="#d9eef5" d="M 500.5,231.5 C 504.167,231.5 507.833,231.5 511.5,231.5C 512.685,232.857 513.685,234.357 514.5,236C 514.069,241.395 514.069,246.895 514.5,252.5C 514.333,256.833 514.167,261.167 514,265.5C 512.955,266.373 512.122,267.373 511.5,268.5C 492.833,268.5 474.167,268.5 455.5,268.5C 457.948,267.527 460.615,267.194 463.5,267.5C 468.833,267.5 474.167,267.5 479.5,267.5C 484.833,267.5 490.167,267.5 495.5,267.5C 495.5,266.5 495.5,265.5 495.5,264.5C 498.187,264.664 500.854,264.497 503.5,264C 502.207,263.51 500.873,263.343 499.5,263.5C 500.159,258.186 500.826,252.853 501.5,247.5C 501.24,243.75 500.573,240.084 499.5,236.5C 499.709,235.006 500.376,233.839 501.5,233C 500.944,232.617 500.611,232.117 500.5,231.5 Z"/></g>
<g><path style="opacity:1" fill="#68bddb" d="M 407.5,231.5 C 412.833,231.5 418.167,231.5 423.5,231.5C 426.305,232.319 429.305,232.819 432.5,233C 431.167,233.333 429.833,233.667 428.5,234C 429.448,234.483 430.448,234.649 431.5,234.5C 430.023,244.293 429.023,254.127 428.5,264C 432.167,264.333 435.833,264.667 439.5,265C 435.312,265.176 431.312,265.676 427.5,266.5C 422.156,266.666 416.823,266.499 411.5,266C 411.881,257.382 412.381,248.549 413,239.5C 413.645,238.354 414.478,237.354 415.5,236.5C 413.399,233.79 410.733,232.123 407.5,231.5 Z"/></g>
<g><path style="opacity:1" fill="#cae7f2" d="M 485.5,231.5 C 490.5,231.5 495.5,231.5 500.5,231.5C 500.611,232.117 500.944,232.617 501.5,233C 500.376,233.839 499.709,235.006 499.5,236.5C 500.573,240.084 501.24,243.75 501.5,247.5C 500.826,252.853 500.159,258.186 499.5,263.5C 500.873,263.343 502.207,263.51 503.5,264C 500.854,264.497 498.187,264.664 495.5,264.5C 495.5,265.5 495.5,266.5 495.5,267.5C 490.167,267.5 484.833,267.5 479.5,267.5C 479.5,266.5 479.5,265.5 479.5,264.5C 481.262,264.643 482.929,264.309 484.5,263.5C 485.178,253.273 485.844,243.106 486.5,233C 485.944,232.617 485.611,232.117 485.5,231.5 Z"/></g>
<g><path style="opacity:1" fill="#101010" d="M 219.5,287.5 C 220.833,287.5 222.167,287.5 223.5,287.5C 223.5,292.167 223.5,296.833 223.5,301.5C 229.402,300.962 235.068,301.795 240.5,304C 244.715,308.958 244.381,313.625 239.5,318C 232.908,319.329 226.241,319.829 219.5,319.5C 219.5,308.833 219.5,298.167 219.5,287.5 Z"/></g>
<g><path style="opacity:1" fill="#131313" d="M 259.5,287.5 C 267.035,286.927 274.368,287.761 281.5,290C 285.41,294.594 285.41,299.261 281.5,304C 275.711,306.151 269.711,306.984 263.5,306.5C 263.5,310.833 263.5,315.167 263.5,319.5C 262.167,319.5 260.833,319.5 259.5,319.5C 259.5,308.833 259.5,298.167 259.5,287.5 Z"/></g>
<g><path style="opacity:1" fill="#0e0e0e" d="M 310.5,288.5 C 310.5,289.5 310.5,290.5 310.5,291.5C 304.833,291.5 299.167,291.5 293.5,291.5C 293.5,300.833 293.5,310.167 293.5,319.5C 292.5,319.5 291.5,319.5 290.5,319.5C 290.5,309.167 290.5,298.833 290.5,288.5C 297.167,288.5 303.833,288.5 310.5,288.5 Z"/></g>
<g><path style="opacity:1" fill="#0a0a0a" d="M 318.5,301.5 C 324.38,301.048 330.047,301.882 335.5,304C 339.765,309.347 339.098,314.014 333.5,318C 327.243,319.317 320.909,319.817 314.5,319.5C 314.5,309.167 314.5,298.833 314.5,288.5C 315.5,288.5 316.5,288.5 317.5,288.5C 317.182,293.032 317.515,297.366 318.5,301.5 Z"/></g>
<g><path style="opacity:1" fill="#349ac8" d="M 391.5,287.5 C 400.167,287.5 408.833,287.5 417.5,287.5C 417.5,288.833 417.5,290.167 417.5,291.5C 414.167,291.5 410.833,291.5 407.5,291.5C 407.5,300.833 407.5,310.167 407.5,319.5C 405.833,319.5 404.167,319.5 402.5,319.5C 402.5,310.167 402.5,300.833 402.5,291.5C 398.833,291.5 395.167,291.5 391.5,291.5C 391.5,290.167 391.5,288.833 391.5,287.5 Z"/></g>
<g><path style="opacity:1" fill="#09090a" d="M 422.5,288.5 C 429.863,288.169 437.197,288.503 444.5,289.5C 438.346,290.167 432.346,290.833 426.5,291.5C 426.5,294.833 426.5,298.167 426.5,301.5C 432.5,301.5 438.5,301.5 444.5,301.5C 444.5,302.5 444.5,303.5 444.5,304.5C 438.5,304.5 432.5,304.5 426.5,304.5C 426.5,308.167 426.5,311.833 426.5,315.5C 432.645,316.49 438.978,316.823 445.5,316.5C 445.5,317.5 445.5,318.5 445.5,319.5C 437.833,319.5 430.167,319.5 422.5,319.5C 422.5,309.167 422.5,298.833 422.5,288.5 Z"/></g>
<g><path style="opacity:1" fill="#181818" d="M 479.5,319.5 C 479.666,310.494 479.5,301.494 479,292.5C 478.283,293.044 477.783,293.711 477.5,294.5C 474.833,302.833 472.167,311.167 469.5,319.5C 467.856,319.714 466.356,319.38 465,318.5C 462.791,310.706 460.291,303.04 457.5,295.5C 457.539,294.244 457.039,293.244 456,292.5C 455.5,301.494 455.334,310.494 455.5,319.5C 454.167,319.5 452.833,319.5 451.5,319.5C 451.5,308.833 451.5,298.167 451.5,287.5C 453.924,287.192 456.257,287.526 458.5,288.5C 461.778,297.173 464.945,305.839 468,314.5C 470.855,305.469 473.689,296.469 476.5,287.5C 478.5,287.5 480.5,287.5 482.5,287.5C 482.5,298.167 482.5,308.833 482.5,319.5C 481.5,319.5 480.5,319.5 479.5,319.5 Z"/></g>
<g><path style="opacity:1" fill="#0f0f0f" d="M 539.5,288.5 C 547.255,290.349 549.422,295.016 546,302.5C 544.59,303.787 543.09,304.954 541.5,306C 536.511,306.499 531.511,306.666 526.5,306.5C 526.5,310.833 526.5,315.167 526.5,319.5C 525.5,319.5 524.5,319.5 523.5,319.5C 523.5,309.167 523.5,298.833 523.5,288.5C 528.833,288.5 534.167,288.5 539.5,288.5 Z"/></g>
<g><path style="opacity:1" fill="#161616" d="M 663.5,319.5 C 662.167,319.5 660.833,319.5 659.5,319.5C 659.5,310.167 659.5,300.833 659.5,291.5C 655.5,291.5 651.5,291.5 647.5,291.5C 647.666,299.84 647.5,308.173 647,316.5C 645.239,320.051 642.572,321.051 639,319.5C 638.517,318.552 638.351,317.552 638.5,316.5C 640.292,316.634 641.958,316.301 643.5,315.5C 644.493,306.682 644.827,297.682 644.5,288.5C 650.833,288.5 657.167,288.5 663.5,288.5C 663.5,298.833 663.5,309.167 663.5,319.5 Z"/></g>
<g><path style="opacity:1" fill="#636363" d="M 318.5,301.5 C 317.515,297.366 317.182,293.032 317.5,288.5C 316.5,288.5 315.5,288.5 314.5,288.5C 314.5,298.833 314.5,309.167 314.5,319.5C 313.506,309.013 313.172,298.346 313.5,287.5C 315.167,287.5 316.833,287.5 318.5,287.5C 318.5,292.167 318.5,296.833 318.5,301.5 Z"/></g>
<g><path style="opacity:1" fill="#464646" d="M 422.5,288.5 C 429.982,287.508 437.648,287.175 445.5,287.5C 445.5,288.833 445.5,290.167 445.5,291.5C 439.167,291.5 432.833,291.5 426.5,291.5C 432.346,290.833 438.346,290.167 444.5,289.5C 437.197,288.503 429.863,288.169 422.5,288.5 Z"/></g>
<g><path style="opacity:1" fill="#f3f3f3" d="M 263.5,291.5 C 268.179,291.334 272.845,291.501 277.5,292C 280.366,295.943 280.032,299.61 276.5,303C 272.179,303.499 267.846,303.666 263.5,303.5C 263.5,299.5 263.5,295.5 263.5,291.5 Z"/></g>
<g><path style="opacity:1" fill="#f7f7f7" d="M 527.5,291.5 C 531.846,291.334 536.179,291.501 540.5,292C 543.835,294.679 544.335,297.845 542,301.5C 541.329,302.252 540.496,302.586 539.5,302.5C 535.5,302.5 531.5,302.5 527.5,302.5C 527.5,298.833 527.5,295.167 527.5,291.5 Z"/></g>
<g><path style="opacity:1" fill="#767676" d="M 251.5,319.5 C 251.5,309.167 251.5,298.833 251.5,288.5C 250.5,288.5 249.5,288.5 248.5,288.5C 248.5,298.833 248.5,309.167 248.5,319.5C 247.506,309.013 247.172,298.346 247.5,287.5C 249.167,287.5 250.833,287.5 252.5,287.5C 252.828,298.346 252.494,309.013 251.5,319.5 Z"/></g>
<g><path style="opacity:1" fill="#010101" d="M 251.5,319.5 C 250.5,319.5 249.5,319.5 248.5,319.5C 248.5,309.167 248.5,298.833 248.5,288.5C 249.5,288.5 250.5,288.5 251.5,288.5C 251.5,298.833 251.5,309.167 251.5,319.5 Z"/></g>
<g><path style="opacity:1" fill="#282828" d="M 345.5,319.5 C 344.833,278.167 344.167,278.167 343.5,319.5C 342.506,309.013 342.172,298.346 342.5,287.5C 343.833,287.5 345.167,287.5 346.5,287.5C 346.828,298.346 346.494,309.013 345.5,319.5 Z"/></g>
<g><path style="opacity:1" fill="#000000" d="M 345.5,319.5 C 344.833,319.5 344.167,319.5 343.5,319.5C 344.167,278.167 344.833,278.167 345.5,319.5 Z"/></g>
<g><path style="opacity:1" fill="#3e3e3e" d="M 539.5,288.5 C 534.167,288.5 528.833,288.5 523.5,288.5C 523.5,298.833 523.5,309.167 523.5,319.5C 522.506,309.013 522.172,298.346 522.5,287.5C 528.358,287.178 534.025,287.511 539.5,288.5 Z"/></g>
<g><path style="opacity:1" fill="#2d98c6" d="M 562.5,287.5 C 564.989,287.298 567.323,287.798 569.5,289C 572.046,292.59 574.213,296.423 576,300.5C 577.11,302.037 578.61,302.703 580.5,302.5C 580.5,297.5 580.5,292.5 580.5,287.5C 582.167,287.5 583.833,287.5 585.5,287.5C 585.5,292.5 585.5,297.5 585.5,302.5C 587.903,302.607 589.736,301.607 591,299.5C 592.181,295.637 594.014,292.137 596.5,289C 598.677,287.798 601.011,287.298 603.5,287.5C 603.5,288.833 603.5,290.167 603.5,291.5C 601.278,291.178 599.444,291.845 598,293.5C 596.46,297.419 594.293,300.919 591.5,304C 593.624,305.122 595.457,306.622 597,308.5C 599.041,312.084 601.208,315.584 603.5,319C 601.833,319.667 600.167,319.667 598.5,319C 596,315.167 593.5,311.333 591,307.5C 589.416,306.139 587.582,305.472 585.5,305.5C 585.5,310.167 585.5,314.833 585.5,319.5C 583.833,319.5 582.167,319.5 580.5,319.5C 580.5,314.833 580.5,310.167 580.5,305.5C 578.856,305.286 577.356,305.62 576,306.5C 573.302,310.367 570.802,314.367 568.5,318.5C 566.579,319.641 564.579,319.808 562.5,319C 564.792,315.584 566.959,312.084 569,308.5C 570.543,306.622 572.376,305.122 574.5,304C 571.433,300.703 569.267,296.869 568,292.5C 566.301,291.594 564.467,291.261 562.5,291.5C 562.5,290.167 562.5,288.833 562.5,287.5 Z"/></g>
<g><path style="opacity:1" fill="#181818" d="M 617.5,286.5 C 631.766,287.612 637.6,295.279 635,309.5C 630.784,319.02 623.617,322.187 613.5,319C 603.92,311.793 602.087,302.96 608,292.5C 610.843,289.837 614.009,287.837 617.5,286.5 Z"/></g>
<g><path style="opacity:1" fill="#f8f8f8" d="M 615.5,290.5 C 630.137,290.396 634.97,297.396 630,311.5C 629.07,313.552 627.57,315.052 625.5,316C 621.833,316.667 618.167,316.667 614.5,316C 609.755,310.731 608.255,304.564 610,297.5C 610.967,294.379 612.8,292.046 615.5,290.5 Z"/></g>
<g><path style="opacity:1" fill="#2e2e2e" d="M 310.5,288.5 C 303.833,288.5 297.167,288.5 290.5,288.5C 290.5,298.833 290.5,309.167 290.5,319.5C 289.506,309.013 289.172,298.346 289.5,287.5C 296.687,287.175 303.687,287.509 310.5,288.5 Z"/></g>
<g><path style="opacity:1" fill="#515151" d="M 663.5,319.5 C 663.5,309.167 663.5,298.833 663.5,288.5C 657.167,288.5 650.833,288.5 644.5,288.5C 644.827,297.682 644.493,306.682 643.5,315.5C 643.5,306.167 643.5,296.833 643.5,287.5C 650.5,287.5 657.5,287.5 664.5,287.5C 664.828,298.346 664.494,309.013 663.5,319.5 Z"/></g>
<g><path style="opacity:1" fill="#8c8c8c" d="M 457.5,295.5 C 456.833,303.5 456.167,311.5 455.5,319.5C 455.334,310.494 455.5,301.494 456,292.5C 457.039,293.244 457.539,294.244 457.5,295.5 Z"/></g>
<g><path style="opacity:1" fill="#7a7a7a" d="M 479.5,319.5 C 478.833,311.167 478.167,302.833 477.5,294.5C 477.783,293.711 478.283,293.044 479,292.5C 479.5,301.494 479.666,310.494 479.5,319.5 Z"/></g>
<g><path style="opacity:1" fill="#b0b0b0" d="M 527.5,291.5 C 527.5,295.167 527.5,298.833 527.5,302.5C 531.5,302.5 535.5,302.5 539.5,302.5C 535.366,303.485 531.032,303.818 526.5,303.5C 526.183,299.298 526.517,295.298 527.5,291.5 Z"/></g>
<g><path style="opacity:1" fill="#808080" d="M 362.5,301.5 C 362.5,302.5 362.5,303.5 362.5,304.5C 364.415,304.216 366.081,304.549 367.5,305.5C 365.5,305.5 363.5,305.5 361.5,305.5C 361.232,303.901 361.566,302.568 362.5,301.5 Z"/></g>
<g><path style="opacity:1" fill="#eaeaea" d="M 223.5,304.5 C 227.514,304.334 231.514,304.501 235.5,305C 239.782,307.739 240.448,311.073 237.5,315C 232.934,316.309 228.267,316.809 223.5,316.5C 223.5,312.5 223.5,308.5 223.5,304.5 Z"/></g>
<g><path style="opacity:1" fill="#fbfbfb" d="M 330.5,305.5 C 333.332,307.407 334.166,310.073 333,313.5C 332.292,314.381 331.458,315.047 330.5,315.5C 326.5,315.5 322.5,315.5 318.5,315.5C 318.5,312.167 318.5,308.833 318.5,305.5C 322.5,305.5 326.5,305.5 330.5,305.5 Z"/></g>
<g><path style="opacity:1" fill="#141414" d="M 672.5,319.5 C 673.802,317.972 675.469,316.972 677.5,316.5C 678.725,315.063 679.725,313.396 680.5,311.5C 676.42,303.671 672.087,296.004 667.5,288.5C 669.006,287.253 670.506,287.253 672,288.5C 675.078,294.991 678.412,301.325 682,307.5C 685.151,301.198 688.318,294.864 691.5,288.5C 692.833,287.167 694.167,287.167 695.5,288.5C 690.667,298.167 685.833,307.833 681,317.5C 678.594,320.311 675.761,320.977 672.5,319.5 Z"/></g>
<g><path style="opacity:1" fill="#181818" d="M 367.5,305.5 C 366.081,304.549 364.415,304.216 362.5,304.5C 362.5,303.5 362.5,302.5 362.5,301.5C 370.828,300.931 372.495,297.431 367.5,291C 361.965,289.143 358.299,290.977 356.5,296.5C 355.675,297.386 354.675,297.719 353.5,297.5C 355.699,287.14 361.699,284.306 371.5,289C 375.677,293.954 375.343,298.62 370.5,303C 375.224,305.435 376.724,309.269 375,314.5C 372.55,318.549 368.883,320.549 364,320.5C 357.464,320.123 353.631,316.79 352.5,310.5C 355.93,310.786 358.264,312.62 359.5,316C 367.807,318.663 371.64,315.83 371,307.5C 369.887,306.695 368.721,306.028 367.5,305.5 Z"/></g>
<g><path style="opacity:1" fill="#0d0d0d" d="M 493.5,287.5 C 493.169,295.86 493.502,304.193 494.5,312.5C 495.107,312.376 495.44,312.043 495.5,311.5C 500.074,304.024 504.908,296.69 510,289.5C 511.444,287.845 513.278,287.178 515.5,287.5C 515.5,298.167 515.5,308.833 515.5,319.5C 514.5,319.5 513.5,319.5 512.5,319.5C 512.831,311.14 512.498,302.807 511.5,294.5C 510.893,294.624 510.56,294.957 510.5,295.5C 505.343,303.138 500.177,310.805 495,318.5C 493.644,319.38 492.144,319.714 490.5,319.5C 490.5,308.833 490.5,298.167 490.5,287.5C 491.5,287.5 492.5,287.5 493.5,287.5 Z"/></g>
<g><path style="opacity:1" fill="#424242" d="M 510.5,295.5 C 510.56,294.957 510.893,294.624 511.5,294.5C 512.498,302.807 512.831,311.14 512.5,319.5C 511.833,311.5 511.167,303.5 510.5,295.5 Z"/></g>
<g><path style="opacity:1" fill="#8b8b8b" d="M 493.5,287.5 C 494.167,295.5 494.833,303.5 495.5,311.5C 495.44,312.043 495.107,312.376 494.5,312.5C 493.502,304.193 493.169,295.86 493.5,287.5 Z"/></g>
<g><path style="opacity:1" fill="#1992c3" d="M 192.5,287.5 C 193.833,287.5 195.167,287.5 196.5,287.5C 196.5,292.5 196.5,297.5 196.5,302.5C 198.903,302.607 200.736,301.607 202,299.5C 203.461,295.768 205.294,292.268 207.5,289C 209.74,288.023 212.073,287.523 214.5,287.5C 214.5,288.833 214.5,290.167 214.5,291.5C 212.278,291.178 210.444,291.845 209,293.5C 207.63,297.133 205.796,300.467 203.5,303.5C 207.9,307.967 211.566,312.967 214.5,318.5C 212.926,319.631 211.259,319.798 209.5,319C 207,315.167 204.5,311.333 202,307.5C 200.556,305.845 198.722,305.178 196.5,305.5C 196.5,310.167 196.5,314.833 196.5,319.5C 195.167,319.5 193.833,319.5 192.5,319.5C 192.5,308.833 192.5,298.167 192.5,287.5 Z"/></g>
<g><path style="opacity:1" fill="#898989" d="M 330.5,305.5 C 326.5,305.5 322.5,305.5 318.5,305.5C 318.5,308.833 318.5,312.167 318.5,315.5C 322.5,315.5 326.5,315.5 330.5,315.5C 326.366,316.485 322.032,316.818 317.5,316.5C 317.5,312.5 317.5,308.5 317.5,304.5C 322.032,304.182 326.366,304.515 330.5,305.5 Z"/></g>
<g><path style="opacity:1" fill="#999999" d="M 426.5,315.5 C 433.167,315.5 439.833,315.5 446.5,315.5C 446.768,317.099 446.434,318.432 445.5,319.5C 445.5,318.5 445.5,317.5 445.5,316.5C 438.978,316.823 432.645,316.49 426.5,315.5 Z"/></g>
<g><path style="opacity:1" fill="#636363" d="M 677.5,316.5 C 675.469,316.972 673.802,317.972 672.5,319.5C 671.596,318.791 671.263,317.791 671.5,316.5C 673.5,316.5 675.5,316.5 677.5,316.5 Z"/></g>
</svg>
